NotoSansCherokee-Bold.ufo
<glyph name="gravecomb" format="2">
  <unicode hex="0300"/>
  <anchor x="-390" y="553" name="_top"/>
  <anchor x="-390" y="765" name="top"/>
  <outline>
    <contour>
      <point x="-349" y="766" type="curve"/>
      <point x="-559" y="766" type="line"/>
      <point x="-559" y="756" type="line"/>
      <point x="-511" y="718"/>
      <point x="-402" y="640"/>
      <point x="-348" y="606" type="curve"/>
      <point x="-221" y="606" type="line"/>
      <point x="-221" y="620" type="line"/>
      <point x="-254" y="657"/>
      <point x="-315" y="721"/>
    </contour>
  </outline>
</glyph>
<glyph name="acutecomb" format="2">
  <unicode hex="0301"/>
  <anchor x="-290" y="553" name="_top"/>
  <anchor x="-290" y="765" name="top"/>
  <outline>
    <contour>
      <point x="-121" y="766" type="line"/>
      <point x="-330" y="766" type="line"/>
      <point x="-363" y="721"/>
      <point x="-425" y="657"/>
      <point x="-459" y="620" type="curve"/>
      <point x="-459" y="606" type="line"/>
      <point x="-332" y="606" type="line"/>
      <point x="-278" y="640"/>
      <point x="-168" y="718"/>
      <point x="-121" y="756" type="curve"/>
    </contour>
  </outline>
</glyph>
<glyph name="circumflexcomb" format="2">
  <unicode hex="0302"/>
  <anchor x="-6" y="553" name="_top"/>
  <anchor x="-6" y="765" name="top"/>
  <outline>
    <contour>
      <point x="91" y="766" type="curve"/>
      <point x="-101" y="766" type="line"/>
      <point x="-131" y="720"/>
      <point x="-189" y="656"/>
      <point x="-227" y="620" type="curve"/>
      <point x="-227" y="606" type="line"/>
      <point x="-101" y="606" type="line"/>
      <point x="-66" y="628"/>
      <point x="-41" y="649"/>
      <point x="-6" y="679" type="curve"/>
      <point x="29" y="649"/>
      <point x="57" y="626"/>
      <point x="92" y="606" type="curve"/>
      <point x="216" y="606" type="line"/>
      <point x="216" y="620" type="line"/>
      <point x="182" y="654"/>
      <point x="122" y="720"/>
    </contour>
  </outline>
</glyph>
<glyph name="macroncomb" format="2">
  <unicode hex="0304"/>
  <anchor x="-1" y="553" name="_top"/>
  <anchor x="-1" y="724" name="top"/>
  <outline>
    <contour>
      <point x="177" y="721" type="line"/>
      <point x="-178" y="721" type="line"/>
      <point x="-178" y="606" type="line"/>
      <point x="177" y="606" type="line"/>
    </contour>
  </outline>
</glyph>
<glyph name="hungarumlautcomb" format="2">
  <unicode hex="030B"/>
  <anchor x="73" y="553" name="_top"/>
  <anchor x="73" y="766" name="top"/>
  <outline>
    <contour>
      <point x="327" y="766" type="line"/>
      <point x="145" y="766" type="line"/>
      <point x="121" y="721"/>
      <point x="72" y="658"/>
      <point x="44" y="620" type="curve"/>
      <point x="44" y="606" type="line"/>
      <point x="143" y="606" type="line"/>
      <point x="195" y="641"/>
      <point x="306" y="721"/>
      <point x="327" y="756" type="curve"/>
    </contour>
    <contour>
      <point x="100" y="766" type="line"/>
      <point x="-81" y="766" type="line"/>
      <point x="-107" y="721"/>
      <point x="-154" y="658"/>
      <point x="-182" y="620" type="curve"/>
      <point x="-182" y="606" type="line"/>
      <point x="-83" y="606" type="line"/>
      <point x="-32" y="641"/>
      <point x="79" y="721"/>
      <point x="100" y="756" type="curve"/>
    </contour>
  </outline>
</glyph>
<glyph name="caroncomb" format="2">
  <unicode hex="030C"/>
  <anchor x="-6" y="553" name="_top"/>
  <anchor x="-4" y="766" name="top"/>
  <outline>
    <contour>
      <point x="216" y="766" type="line"/>
      <point x="92" y="766" type="line"/>
      <point x="57" y="746"/>
      <point x="29" y="723"/>
      <point x="-6" y="693" type="curve"/>
      <point x="-41" y="723"/>
      <point x="-66" y="744"/>
      <point x="-101" y="766" type="curve"/>
      <point x="-227" y="766" type="line"/>
      <point x="-227" y="752" type="line"/>
      <point x="-189" y="716"/>
      <point x="-131" y="652"/>
      <point x="-101" y="606" type="curve"/>
      <point x="91" y="606" type="line"/>
      <point x="122" y="652"/>
      <point x="182" y="718"/>
      <point x="216" y="752" type="curve"/>
    </contour>
  </outline>
</glyph>
<glyph name="dotbelowcomb" format="2">
  <unicode hex="0323"/>
  <anchor x="-363" y="0" name="_bottom"/>
  <anchor x="-363" y="-234" name="bottom"/>
  <outline>
    <contour>
      <point x="-466" y="-149" type="curve"/>
      <point x="-466" y="-216"/>
      <point x="-421" y="-234"/>
      <point x="-365" y="-234" type="curve" smooth="yes"/>
      <point x="-310" y="-234"/>
      <point x="-263" y="-216"/>
      <point x="-263" y="-149" type="curve" smooth="yes"/>
      <point x="-263" y="-81"/>
      <point x="-310" y="-64"/>
      <point x="-365" y="-64" type="curve" smooth="yes"/>
      <point x="-421" y="-64"/>
      <point x="-466" y="-81"/>
    </contour>
  </outline>
</glyph>
<glyph name="dieresisbelowcomb" format="2">
  <unicode hex="0324"/>
  <anchor x="-1" y="553" name="_top"/>
  <anchor x="-1" y="760" name="top"/>
  <outline>
    <contour>
      <point x="-202" y="690" type="curve"/>
      <point x="-202" y="638"/>
      <point x="-166" y="614"/>
      <point x="-119" y="614" type="curve" smooth="yes"/>
      <point x="-74" y="614"/>
      <point x="-35" y="638"/>
      <point x="-35" y="690" type="curve" smooth="yes"/>
      <point x="-35" y="743"/>
      <point x="-74" y="767"/>
      <point x="-119" y="767" type="curve" smooth="yes"/>
      <point x="-166" y="767"/>
      <point x="-202" y="743"/>
    </contour>
    <contour>
      <point x="32" y="690" type="curve"/>
      <point x="32" y="638"/>
      <point x="68" y="614"/>
      <point x="116" y="614" type="curve" smooth="yes"/>
      <point x="161" y="614"/>
      <point x="200" y="638"/>
      <point x="200" y="690" type="curve" smooth="yes"/>
      <point x="200" y="743"/>
      <point x="161" y="767"/>
      <point x="116" y="767" type="curve" smooth="yes"/>
      <point x="68" y="767"/>
      <point x="32" y="743"/>
    </contour>
  </outline>
</glyph>
<glyph name="tildebelowcomb" format="2">
  <unicode hex="0330"/>
  <anchor x="-9" y="0" name="_bottom"/>
  <anchor x="-7" y="-217" name="bottom"/>
  <outline>
    <contour>
      <point x="197" y="-49" type="curve"/>
      <point x="108" y="-49" type="line"/>
      <point x="101" y="-91"/>
      <point x="85" y="-97"/>
      <point x="73" y="-97" type="curve" smooth="yes"/>
      <point x="23" y="-97"/>
      <point x="-41" y="-50"/>
      <point x="-91" y="-50" type="curve" smooth="yes"/>
      <point x="-163" y="-50"/>
      <point x="-206" y="-95"/>
      <point x="-214" y="-217" type="curve"/>
      <point x="-126" y="-217" type="line"/>
      <point x="-118" y="-174"/>
      <point x="-103" y="-169"/>
      <point x="-91" y="-169" type="curve"/>
      <point x="-42" y="-169"/>
      <point x="18" y="-216"/>
      <point x="77" y="-216" type="curve" smooth="yes"/>
      <point x="141" y="-216"/>
      <point x="189" y="-169"/>
    </contour>
  </outline>
</glyph>
<glyph name="macronbelowcomb" format="2">
  <unicode hex="0331"/>
  <anchor x="0" y="0" name="_bottom"/>
  <anchor x="2" y="-199" name="bottom"/>
  <outline>
    <contour>
      <point x="177" y="-84" type="line"/>
      <point x="-178" y="-84" type="line"/>
      <point x="-178" y="-199" type="line"/>
      <point x="177" y="-199" type="line"/>
    </contour>
  </outline>
</glyph>
<glyph name="uni13A0" format="2">
  <advance width="801"/>
  <unicode hex="13A0"/>
  <note>
uni13A0
</note>
  <anchor x="401" y="0" name="bottom"/>
  <anchor x="401" y="714" name="top"/>
  <outline>
    <contour>
      <point x="55" y="0" type="line"/>
      <point x="346" y="0" type="line" smooth="yes"/>
      <point x="599" y="0"/>
      <point x="746" y="123"/>
      <point x="746" y="364" type="curve" smooth="yes"/>
      <point x="746" y="598"/>
      <point x="611" y="714"/>
      <point x="372" y="714" type="curve" smooth="yes"/>
      <point x="55" y="714" type="line"/>
      <point x="55" y="602" type="line"/>
      <point x="118" y="594" type="line"/>
      <point x="118" y="120" type="line"/>
      <point x="55" y="112" type="line"/>
    </contour>
    <contour>
      <point x="309" y="143" type="line"/>
      <point x="309" y="573" type="line"/>
      <point x="370" y="573" type="line" smooth="yes"/>
      <point x="485" y="573"/>
      <point x="546" y="514"/>
      <point x="546" y="365" type="curve" smooth="yes"/>
      <point x="546" y="205"/>
      <point x="471" y="143"/>
      <point x="354" y="143" type="curve" smooth="yes"/>
    </contour>
  </outline>
</glyph>
<glyph name="uni13A1" format="2">
  <advance width="786"/>
  <unicode hex="13A1"/>
  <note>
uni13A1
</note>
  <anchor x="393" y="0" name="bottom"/>
  <anchor x="393" y="714" name="top"/>
  <outline>
    <contour>
      <point x="632" y="-6" type="curve" smooth="yes"/>
      <point x="685" y="-6"/>
      <point x="727" y="6"/>
      <point x="751" y="18" type="curve"/>
      <point x="735" y="117" type="line"/>
      <point x="727" y="114"/>
      <point x="717" y="111"/>
      <point x="704" y="111" type="curve" smooth="yes"/>
      <point x="677" y="111"/>
      <point x="663" y="122"/>
      <point x="654" y="167" type="curve" smooth="yes"/>
      <point x="644" y="220" type="line" smooth="yes"/>
      <point x="631" y="288"/>
      <point x="594" y="319"/>
      <point x="531" y="332" type="curve"/>
      <point x="531" y="334" type="line"/>
      <point x="625" y="355"/>
      <point x="683" y="419"/>
      <point x="683" y="517" type="curve" smooth="yes"/>
      <point x="683" y="647"/>
      <point x="604" y="714"/>
      <point x="419" y="714" type="curve" smooth="yes"/>
      <point x="55" y="714" type="line"/>
      <point x="55" y="602" type="line"/>
      <point x="118" y="595" type="line"/>
      <point x="118" y="119" type="line"/>
      <point x="55" y="112" type="line"/>
      <point x="55" y="0" type="line"/>
      <point x="363" y="0" type="line"/>
      <point x="363" y="112" type="line"/>
      <point x="311" y="118" type="line"/>
      <point x="311" y="270" type="line"/>
      <point x="379" y="270" type="line" smooth="yes"/>
      <point x="428" y="270"/>
      <point x="453" y="253"/>
      <point x="465" y="175" type="curve" smooth="yes"/>
      <point x="473" y="125" type="line" smooth="yes"/>
      <point x="490" y="20"/>
      <point x="541" y="-6"/>
    </contour>
    <contour>
      <point x="311" y="395" type="line"/>
      <point x="311" y="580" type="line"/>
      <point x="385" y="580" type="line" smooth="yes"/>
      <point x="455" y="580"/>
      <point x="488" y="552"/>
      <point x="488" y="490" type="curve" smooth="yes"/>
      <point x="488" y="417"/>
      <point x="441" y="395"/>
      <point x="381" y="395" type="curve" smooth="yes"/>
    </contour>
  </outline>
</glyph>
<glyph name="uni13A2" format="2">
  <advance width="731"/>
  <unicode hex="13A2"/>
  <note>
uni13A2
</note>
  <anchor x="366" y="0" name="bottom"/>
  <anchor x="366" y="714" name="top"/>
  <outline>
    <contour>
      <point x="171" y="0" type="line"/>
      <point x="560" y="0" type="line"/>
      <point x="560" y="112" type="line"/>
      <point x="462" y="123" type="line"/>
      <point x="462" y="579" type="line"/>
      <point x="575" y="579" type="line"/>
      <point x="589" y="470" type="line"/>
      <point x="691" y="470" type="line"/>
      <point x="691" y="714" type="line"/>
      <point x="40" y="714" type="line"/>
      <point x="40" y="470" type="line"/>
      <point x="142" y="470" type="line"/>
      <point x="156" y="579" type="line"/>
      <point x="269" y="579" type="line"/>
      <point x="269" y="123" type="line"/>
      <point x="171" y="112" type="line"/>
    </contour>
  </outline>
</glyph>
<glyph name="uni13A3" format="2">
  <advance width="914"/>
  <unicode hex="13A3"/>
  <note>
uni13A3
</note>
  <anchor x="477" y="0" name="bottom"/>
  <anchor x="477" y="714" name="top"/>
  <outline>
    <contour>
      <point x="570" y="-13" type="line"/>
      <point x="753" y="-1"/>
      <point x="866" y="91"/>
      <point x="866" y="261" type="curve" smooth="yes"/>
      <point x="866" y="407"/>
      <point x="770" y="504"/>
      <point x="591" y="561" type="curve"/>
      <point x="593" y="594" type="line"/>
      <point x="671" y="602" type="line"/>
      <point x="671" y="714" type="line"/>
      <point x="340" y="714" type="line"/>
      <point x="340" y="602" type="line"/>
      <point x="418" y="594" type="line"/>
      <point x="418" y="557" type="line"/>
      <point x="416" y="530"/>
      <point x="384" y="495"/>
      <point x="322" y="470" type="curve"/>
      <point x="312" y="471"/>
      <point x="302" y="472"/>
      <point x="291" y="472" type="curve" smooth="yes"/>
      <point x="147" y="472"/>
      <point x="45" y="388"/>
      <point x="45" y="237" type="curve" smooth="yes"/>
      <point x="45" y="88"/>
      <point x="143" y="5"/>
      <point x="291" y="5" type="curve" smooth="yes"/>
      <point x="435" y="5"/>
      <point x="537" y="96"/>
      <point x="537" y="244" type="curve" smooth="yes"/>
      <point x="537" y="315"/>
      <point x="511" y="370"/>
      <point x="476" y="404" type="curve"/>
      <point x="490" y="412"/>
      <point x="504" y="422"/>
      <point x="516" y="434" type="curve"/>
      <point x="620" y="402"/>
      <point x="691" y="353"/>
      <point x="691" y="254" type="curve" smooth="yes"/>
      <point x="691" y="175"/>
      <point x="639" y="134"/>
      <point x="570" y="125" type="curve"/>
    </contour>
    <contour>
      <point x="291" y="140" type="curve" smooth="yes"/>
      <point x="250" y="140"/>
      <point x="221" y="173"/>
      <point x="221" y="240" type="curve" smooth="yes"/>
      <point x="221" y="305"/>
      <point x="251" y="337"/>
      <point x="291" y="337" type="curve" smooth="yes"/>
      <point x="332" y="337"/>
      <point x="361" y="309"/>
      <point x="361" y="242" type="curve" smooth="yes"/>
      <point x="361" y="176"/>
      <point x="331" y="140"/>
    </contour>
  </outline>
</glyph>
<glyph name="uni13A4" format="2">
  <advance width="1139"/>
  <unicode hex="13A4"/>
  <note>
uni13A4
</note>
  <anchor x="367" y="0" name="bottom"/>
  <anchor x="367" y="714" name="top"/>
  <outline>
    <contour>
      <point x="367" y="-10" type="curve" smooth="yes"/>
      <point x="553" y="-10"/>
      <point x="648" y="93"/>
      <point x="674" y="257" type="curve"/>
      <point x="712" y="223"/>
      <point x="760" y="205"/>
      <point x="829" y="205" type="curve" smooth="yes"/>
      <point x="988" y="205"/>
      <point x="1093" y="323"/>
      <point x="1093" y="485" type="curve" smooth="yes"/>
      <point x="1093" y="637"/>
      <point x="1017" y="729"/>
      <point x="882" y="729" type="curve" smooth="yes"/>
      <point x="771" y="729"/>
      <point x="700" y="663"/>
      <point x="700" y="546" type="curve" smooth="yes"/>
      <point x="700" y="525"/>
      <point x="702" y="504"/>
      <point x="704" y="490" type="curve"/>
      <point x="853" y="490" type="line"/>
      <point x="852" y="501"/>
      <point x="851" y="515"/>
      <point x="851" y="529" type="curve" smooth="yes"/>
      <point x="851" y="570"/>
      <point x="864" y="587"/>
      <point x="886" y="587" type="curve" smooth="yes"/>
      <point x="912" y="587"/>
      <point x="929" y="563"/>
      <point x="929" y="482" type="curve" smooth="yes"/>
      <point x="929" y="397"/>
      <point x="889" y="355"/>
      <point x="812" y="355" type="curve" smooth="yes"/>
      <point x="729" y="355"/>
      <point x="690" y="402"/>
      <point x="668" y="494" type="curve" smooth="yes"/>
      <point x="634" y="638"/>
      <point x="540" y="725"/>
      <point x="367" y="725" type="curve" smooth="yes"/>
      <point x="148" y="725"/>
      <point x="51" y="581"/>
      <point x="51" y="359" type="curve" smooth="yes"/>
      <point x="51" y="136"/>
      <point x="148" y="-10"/>
    </contour>
    <contour>
      <point x="367" y="149" type="curve" smooth="yes"/>
      <point x="285" y="149"/>
      <point x="252" y="227"/>
      <point x="252" y="358" type="curve" smooth="yes"/>
      <point x="252" y="489"/>
      <point x="284" y="569"/>
      <point x="367" y="569" type="curve" smooth="yes"/>
      <point x="451" y="569"/>
      <point x="481" y="489"/>
      <point x="481" y="358" type="curve" smooth="yes"/>
      <point x="481" y="227"/>
      <point x="451" y="149"/>
    </contour>
  </outline>
</glyph>
<glyph name="uni13A5" format="2">
  <advance width="451"/>
  <unicode hex="13A5"/>
  <note>
uni13A5
</note>
  <anchor x="226" y="0" name="bottom"/>
  <anchor x="226" y="714" name="top"/>
  <outline>
    <contour>
      <point x="32" y="0" type="line"/>
      <point x="419" y="0" type="line"/>
      <point x="419" y="105" type="line"/>
      <point x="316" y="116" type="line"/>
      <point x="316" y="469" type="line"/>
      <point x="135" y="469" type="line"/>
      <point x="135" y="116" type="line"/>
      <point x="32" y="105" type="line"/>
    </contour>
    <contour>
      <point x="227" y="545" type="curve" smooth="yes"/>
      <point x="290" y="545"/>
      <point x="329" y="580"/>
      <point x="329" y="636" type="curve" smooth="yes"/>
      <point x="329" y="692"/>
      <point x="292" y="725"/>
      <point x="227" y="725" type="curve" smooth="yes"/>
      <point x="159" y="725"/>
      <point x="122" y="693"/>
      <point x="122" y="636" type="curve" smooth="yes"/>
      <point x="122" y="579"/>
      <point x="161" y="545"/>
    </contour>
  </outline>
</glyph>
<glyph name="uni13A6" format="2">
  <advance width="667"/>
  <unicode hex="13A6"/>
  <note>
uni13A6
</note>
  <anchor x="334" y="0" name="bottom"/>
  <anchor x="334" y="714" name="top"/>
  <outline>
    <contour>
      <point x="307" y="-10" type="curve" smooth="yes"/>
      <point x="516" y="-10"/>
      <point x="597" y="91"/>
      <point x="597" y="195" type="curve" smooth="yes"/>
      <point x="597" y="245"/>
      <point x="575" y="283"/>
      <point x="544" y="306" type="curve"/>
      <point x="544" y="308" type="line"/>
      <point x="568" y="306"/>
      <point x="583" y="306"/>
      <point x="594" y="306" type="curve" smooth="yes"/>
      <point x="632" y="306" type="line"/>
      <point x="632" y="428" type="line"/>
      <point x="339" y="428" type="line"/>
      <point x="278" y="452"/>
      <point x="262" y="485"/>
      <point x="262" y="521" type="curve" smooth="yes"/>
      <point x="262" y="572"/>
      <point x="290" y="602"/>
      <point x="356" y="602" type="curve" smooth="yes"/>
      <point x="394" y="602"/>
      <point x="423" y="592"/>
      <point x="436" y="577" type="curve"/>
      <point x="433" y="572"/>
      <point x="432" y="565"/>
      <point x="432" y="551" type="curve" smooth="yes"/>
      <point x="432" y="504"/>
      <point x="456" y="475"/>
      <point x="510" y="475" type="curve" smooth="yes"/>
      <point x="565" y="475"/>
      <point x="597" y="511"/>
      <point x="597" y="570" type="curve" smooth="yes"/>
      <point x="597" y="661"/>
      <point x="511" y="724"/>
      <point x="355" y="724" type="curve" smooth="yes"/>
      <point x="173" y="724"/>
      <point x="78" y="652"/>
      <point x="78" y="536" type="curve" smooth="yes"/>
      <point x="78" y="492"/>
      <point x="97" y="451"/>
      <point x="125" y="428" type="curve"/>
      <point x="125" y="426" type="line"/>
      <point x="103" y="428"/>
      <point x="91" y="428"/>
      <point x="78" y="428" type="curve" smooth="yes"/>
      <point x="35" y="428" type="line"/>
      <point x="35" y="306" type="line"/>
      <point x="328" y="306" type="line"/>
      <point x="398" y="278"/>
      <point x="416" y="240"/>
      <point x="416" y="205" type="curve" smooth="yes"/>
      <point x="416" y="149"/>
      <point x="378" y="117"/>
      <point x="311" y="117" type="curve" smooth="yes"/>
      <point x="268" y="117"/>
      <point x="232" y="131"/>
      <point x="221" y="147" type="curve"/>
      <point x="224" y="152"/>
      <point x="225" y="159"/>
      <point x="225" y="173" type="curve" smooth="yes"/>
      <point x="225" y="220"/>
      <point x="201" y="249"/>
      <point x="147" y="249" type="curve" smooth="yes"/>
      <point x="92" y="249"/>
      <point x="60" y="213"/>
      <point x="60" y="154" type="curve" smooth="yes"/>
      <point x="60" y="63"/>
      <point x="138" y="-10"/>
    </contour>
  </outline>
</glyph>
<glyph name="uni13A7" format="2">
  <advance width="869"/>
  <unicode hex="13A7"/>
  <note>
uni13A7
</note>
  <anchor x="435" y="0" name="bottom"/>
  <anchor x="435" y="714" name="top"/>
  <outline>
    <contour>
      <point x="415" y="-10" type="curve" smooth="yes"/>
      <point x="662" y="-10"/>
      <point x="818" y="148"/>
      <point x="818" y="363" type="curve" smooth="yes"/>
      <point x="818" y="574"/>
      <point x="689" y="726"/>
      <point x="414" y="726" type="curve" smooth="yes"/>
      <point x="280" y="726"/>
      <point x="206" y="695"/>
      <point x="154" y="665" type="curve"/>
      <point x="218" y="533" type="line"/>
      <point x="251" y="551"/>
      <point x="310" y="573"/>
      <point x="394" y="573" type="curve" smooth="yes"/>
      <point x="545" y="573"/>
      <point x="628" y="492"/>
      <point x="628" y="361" type="curve" smooth="yes"/>
      <point x="628" y="226"/>
      <point x="542" y="141"/>
      <point x="417" y="141" type="curve" smooth="yes"/>
      <point x="372" y="141"/>
      <point x="339" y="149"/>
      <point x="320" y="156" type="curve"/>
      <point x="382" y="188"/>
      <point x="437" y="244"/>
      <point x="437" y="341" type="curve" smooth="yes"/>
      <point x="437" y="444"/>
      <point x="370" y="509"/>
      <point x="254" y="509" type="curve" smooth="yes"/>
      <point x="140" y="509"/>
      <point x="46" y="434"/>
      <point x="46" y="290" type="curve" smooth="yes"/>
      <point x="46" y="118"/>
      <point x="169" y="-10"/>
    </contour>
    <contour>
      <point x="223" y="232" type="curve"/>
      <point x="210" y="251"/>
      <point x="202" y="270"/>
      <point x="202" y="311" type="curve" smooth="yes"/>
      <point x="202" y="351"/>
      <point x="222" y="375"/>
      <point x="253" y="375" type="curve" smooth="yes"/>
      <point x="279" y="375"/>
      <point x="292" y="351"/>
      <point x="292" y="326" type="curve" smooth="yes"/>
      <point x="292" y="278"/>
      <point x="254" y="247"/>
    </contour>
  </outline>
</glyph>
<glyph name="uni13A8" format="2">
  <advance width="809"/>
  <unicode hex="13A8"/>
  <note>
uni13A8
</note>
  <anchor x="225" y="0" name="bottom"/>
  <anchor x="225" y="714" name="top"/>
  <outline>
    <contour>
      <point x="55" y="0" type="line"/>
      <point x="386" y="0" type="line"/>
      <point x="386" y="112" type="line"/>
      <point x="322" y="119" type="line"/>
      <point x="322" y="269" type="line"/>
      <point x="425" y="322" type="line"/>
      <point x="448" y="272"/>
      <point x="485" y="219"/>
      <point x="585" y="219" type="curve" smooth="yes"/>
      <point x="714" y="219"/>
      <point x="774" y="311"/>
      <point x="795" y="458" type="curve"/>
      <point x="664" y="474" type="line"/>
      <point x="652" y="400"/>
      <point x="637" y="360"/>
      <point x="590" y="360" type="curve" smooth="yes"/>
      <point x="552" y="360"/>
      <point x="534" y="380"/>
      <point x="519" y="444" type="curve" smooth="yes"/>
      <point x="508" y="492" type="line"/>
      <point x="322" y="408" type="line"/>
      <point x="322" y="595" type="line"/>
      <point x="386" y="602" type="line"/>
      <point x="386" y="714" type="line"/>
      <point x="55" y="714" type="line"/>
      <point x="55" y="602" type="line"/>
      <point x="128" y="593" type="line"/>
      <point x="128" y="121" type="line"/>
      <point x="55" y="112" type="line"/>
    </contour>
  </outline>
</glyph>
<glyph name="uni13A9" format="2">
  <advance width="721"/>
  <unicode hex="13A9"/>
  <note>
uni13A9
</note>
  <anchor x="361" y="0" name="bottom"/>
  <anchor x="361" y="714" name="top"/>
  <outline>
    <contour>
      <point x="203" y="-10" type="curve" smooth="yes"/>
      <point x="337" y="-10"/>
      <point x="412" y="75"/>
      <point x="469" y="199" type="curve" smooth="yes"/>
      <point x="650" y="595" type="line"/>
      <point x="711" y="602" type="line"/>
      <point x="711" y="714" type="line"/>
      <point x="406" y="714" type="line"/>
      <point x="406" y="602" type="line"/>
      <point x="462" y="595" type="line"/>
      <point x="423" y="492" type="line" smooth="yes"/>
      <point x="414" y="467"/>
      <point x="391" y="406"/>
      <point x="380" y="361" type="curve"/>
      <point x="375" y="361" type="line"/>
      <point x="364" y="398"/>
      <point x="346" y="443"/>
      <point x="332" y="476" type="curve" smooth="yes"/>
      <point x="281" y="596" type="line"/>
      <point x="336" y="602" type="line"/>
      <point x="336" y="714" type="line"/>
      <point x="13" y="714" type="line"/>
      <point x="13" y="602" type="line"/>
      <point x="81" y="594" type="line"/>
      <point x="282" y="176" type="line"/>
      <point x="265" y="144"/>
      <point x="250" y="125"/>
      <point x="225" y="125" type="curve" smooth="yes"/>
      <point x="217" y="125"/>
      <point x="210" y="128"/>
      <point x="208" y="131" type="curve"/>
      <point x="211" y="137"/>
      <point x="214" y="147"/>
      <point x="214" y="162" type="curve" smooth="yes"/>
      <point x="214" y="196"/>
      <point x="188" y="227"/>
      <point x="137" y="227" type="curve" smooth="yes"/>
      <point x="73" y="227"/>
      <point x="40" y="185"/>
      <point x="40" y="127" type="curve" smooth="yes"/>
      <point x="40" y="43"/>
      <point x="93" y="-10"/>
    </contour>
  </outline>
</glyph>
<glyph name="uni13AA" format="2">
  <advance width="768"/>
  <unicode hex="13AA"/>
  <note>
uni13AA
</note>
  <anchor x="384" y="0" name="bottom"/>
  <anchor x="384" y="714" name="top"/>
  <outline>
    <contour>
      <point x="8" y="0" type="line"/>
      <point x="317" y="0" type="line"/>
      <point x="317" y="112" type="line"/>
      <point x="250" y="120" type="line"/>
      <point x="268" y="189" type="line"/>
      <point x="481" y="189" type="line"/>
      <point x="498" y="118" type="line"/>
      <point x="443" y="112" type="line"/>
      <point x="443" y="0" type="line"/>
      <point x="760" y="0" type="line"/>
      <point x="760" y="112" type="line"/>
      <point x="701" y="119" type="line"/>
      <point x="512" y="717" type="line"/>
      <point x="258" y="717" type="line"/>
      <point x="68" y="119" type="line"/>
      <point x="8" y="112" type="line"/>
    </contour>
    <contour>
      <point x="300" y="323" type="line"/>
      <point x="330" y="429" type="line" smooth="yes"/>
      <point x="347" y="488"/>
      <point x="364" y="555"/>
      <point x="373" y="598" type="curve"/>
      <point x="377" y="598" type="line"/>
      <point x="386" y="555"/>
      <point x="403" y="488"/>
      <point x="419" y="429" type="curve" smooth="yes"/>
      <point x="448" y="323" type="line"/>
    </contour>
  </outline>
</glyph>
<glyph name="uni13AB" format="2">
  <advance width="662"/>
  <unicode hex="13AB"/>
  <note>
uni13AB
</note>
  <anchor x="331" y="0" name="bottom"/>
  <anchor x="459" y="714" name="top"/>
  <outline>
    <contour>
      <point x="249" y="0" type="curve" smooth="yes"/>
      <point x="454" y="0"/>
      <point x="555" y="114"/>
      <point x="555" y="316" type="curve" smooth="yes"/>
      <point x="555" y="594" type="line"/>
      <point x="622" y="602" type="line"/>
      <point x="622" y="714" type="line"/>
      <point x="291" y="714" type="line"/>
      <point x="291" y="602" type="line"/>
      <point x="364" y="593" type="line"/>
      <point x="364" y="293" type="line" smooth="yes"/>
      <point x="364" y="196"/>
      <point x="323" y="132"/>
      <point x="249" y="132" type="curve" smooth="yes"/>
      <point x="221" y="132"/>
      <point x="204" y="140"/>
      <point x="193" y="151" type="curve"/>
      <point x="198" y="156"/>
      <point x="207" y="171"/>
      <point x="207" y="192" type="curve" smooth="yes"/>
      <point x="207" y="237"/>
      <point x="176" y="269"/>
      <point x="120" y="269" type="curve" smooth="yes"/>
      <point x="51" y="269"/>
      <point x="21" y="218"/>
      <point x="21" y="165" type="curve" smooth="yes"/>
      <point x="21" y="74"/>
      <point x="85" y="0"/>
    </contour>
  </outline>
</glyph>
<glyph name="uni13AC" format="2">
  <advance width="732"/>
  <unicode hex="13AC"/>
  <note>
uni13AC
</note>
  <anchor x="383" y="0" name="bottom"/>
  <anchor x="383" y="714" name="top"/>
  <outline>
    <contour>
      <point x="55" y="0" type="line"/>
      <point x="672" y="0" type="line"/>
      <point x="672" y="229" type="line"/>
      <point x="565" y="229" type="line"/>
      <point x="557" y="132" type="line"/>
      <point x="324" y="132" type="line"/>
      <point x="324" y="308" type="line"/>
      <point x="404" y="308" type="line"/>
      <point x="414" y="232" type="line"/>
      <point x="509" y="232" type="line"/>
      <point x="509" y="496" type="line"/>
      <point x="414" y="496" type="line"/>
      <point x="406" y="431" type="line"/>
      <point x="324" y="431" type="line"/>
      <point x="324" y="584" type="line"/>
      <point x="556" y="584" type="line"/>
      <point x="565" y="485" type="line"/>
      <point x="672" y="485" type="line"/>
      <point x="672" y="714" type="line"/>
      <point x="55" y="714" type="line"/>
      <point x="55" y="602" type="line"/>
      <point x="131" y="593" type="line"/>
      <point x="131" y="121" type="line"/>
      <point x="55" y="112" type="line"/>
    </contour>
  </outline>
</glyph>
<glyph name="uni13AD" format="2">
  <advance width="1159"/>
  <unicode hex="13AD"/>
  <note>
uni13AD
</note>
  <anchor x="649" y="0" name="bottom"/>
  <anchor x="649" y="714" name="top"/>
  <outline>
    <contour>
      <point x="552" y="0" type="line"/>
      <point x="828" y="0" type="line"/>
      <point x="1075" y="372" type="line"/>
      <point x="1135" y="380" type="line"/>
      <point x="1135" y="492" type="line"/>
      <point x="816" y="492" type="line"/>
      <point x="816" y="380" type="line"/>
      <point x="872" y="373" type="line"/>
      <point x="819" y="288" type="line" smooth="yes"/>
      <point x="785" y="233"/>
      <point x="758" y="191"/>
      <point x="742" y="158" type="curve"/>
      <point x="740" y="158" type="line"/>
      <point x="744" y="229"/>
      <point x="745" y="273"/>
      <point x="745" y="323" type="curve" smooth="yes"/>
      <point x="745" y="594" type="line"/>
      <point x="812" y="602" type="line"/>
      <point x="812" y="714" type="line"/>
      <point x="484" y="714" type="line"/>
      <point x="484" y="602" type="line"/>
      <point x="552" y="594" type="line"/>
      <point x="552" y="430" type="line"/>
      <point x="463" y="382" type="line"/>
      <point x="445" y="471"/>
      <point x="370" y="530"/>
      <point x="248" y="530" type="curve" smooth="yes"/>
      <point x="121" y="530"/>
      <point x="32" y="455"/>
      <point x="32" y="318" type="curve" smooth="yes"/>
      <point x="32" y="184"/>
      <point x="118" y="109"/>
      <point x="248" y="109" type="curve" smooth="yes"/>
      <point x="356" y="109"/>
      <point x="437" y="167"/>
      <point x="460" y="266" type="curve"/>
      <point x="552" y="316" type="line"/>
    </contour>
    <contour>
      <point x="248" y="231" type="curve" smooth="yes"/>
      <point x="216" y="231"/>
      <point x="193" y="260"/>
      <point x="193" y="321" type="curve" smooth="yes"/>
      <point x="193" y="379"/>
      <point x="216" y="408"/>
      <point x="248" y="408" type="curve" smooth="yes"/>
      <point x="281" y="408"/>
      <point x="305" y="383"/>
      <point x="305" y="323" type="curve" smooth="yes"/>
      <point x="305" y="263"/>
      <point x="281" y="231"/>
    </contour>
  </outline>
</glyph>
<glyph name="uni13AE" format="2">
  <advance width="718"/>
  <unicode hex="13AE"/>
  <note>
uni13AE
</note>
  <anchor x="230" y="0" name="bottom"/>
  <anchor x="346" y="765" name="top"/>
  <outline>
    <contour>
      <point x="55" y="0" type="line"/>
      <point x="395" y="0" type="line"/>
      <point x="395" y="112" type="line"/>
      <point x="322" y="119" type="line"/>
      <point x="322" y="229" type="line"/>
      <point x="343" y="229" type="line" smooth="yes"/>
      <point x="590" y="229"/>
      <point x="673" y="368"/>
      <point x="673" y="519" type="curve" smooth="yes"/>
      <point x="673" y="677"/>
      <point x="571" y="782"/>
      <point x="349" y="782" type="curve" smooth="yes"/>
      <point x="243" y="782"/>
      <point x="160" y="755"/>
      <point x="117" y="732" type="curve"/>
      <point x="164" y="595" type="line"/>
      <point x="200" y="612"/>
      <point x="257" y="632"/>
      <point x="330" y="632" type="curve" smooth="yes"/>
      <point x="438" y="632"/>
      <point x="477" y="583"/>
      <point x="477" y="504" type="curve" smooth="yes"/>
      <point x="477" y="413"/>
      <point x="424" y="378"/>
      <point x="337" y="378" type="curve" smooth="yes"/>
      <point x="322" y="378" type="line"/>
      <point x="322" y="435" type="line"/>
      <point x="379" y="442" type="line"/>
      <point x="379" y="554" type="line"/>
      <point x="55" y="554" type="line"/>
      <point x="55" y="442" type="line"/>
      <point x="128" y="433" type="line"/>
      <point x="128" y="121" type="line"/>
      <point x="55" y="112" type="line"/>
    </contour>
  </outline>
</glyph>
<glyph name="uni13AF" format="2">
  <advance width="920"/>
  <unicode hex="13AF"/>
  <note>
uni13AF
</note>
  <anchor x="460" y="0" name="bottom"/>
  <anchor x="573" y="714" name="top"/>
  <outline>
    <contour>
      <point x="180" y="-9" type="curve" smooth="yes"/>
      <point x="343" y="-9"/>
      <point x="408" y="106"/>
      <point x="435" y="278" type="curve"/>
      <point x="668" y="278" type="line"/>
      <point x="661" y="176"/>
      <point x="640" y="132"/>
      <point x="615" y="132" type="curve"/>
      <point x="617" y="136"/>
      <point x="619" y="147"/>
      <point x="619" y="159" type="curve" smooth="yes"/>
      <point x="619" y="192"/>
      <point x="597" y="226"/>
      <point x="545" y="226" type="curve" smooth="yes"/>
      <point x="481" y="226"/>
      <point x="450" y="183"/>
      <point x="450" y="125" type="curve" smooth="yes"/>
      <point x="450" y="39"/>
      <point x="507" y="-9"/>
      <point x="607" y="-9" type="curve" smooth="yes"/>
      <point x="788" y="-9"/>
      <point x="861" y="153"/>
      <point x="861" y="371" type="curve" smooth="yes"/>
      <point x="861" y="629"/>
      <point x="764" y="725"/>
      <point x="573" y="725" type="curve" smooth="yes"/>
      <point x="365" y="725"/>
      <point x="277" y="620"/>
      <point x="258" y="399" type="curve" smooth="yes"/>
      <point x="240" y="193"/>
      <point x="223" y="132"/>
      <point x="188" y="132" type="curve"/>
      <point x="190" y="136"/>
      <point x="192" y="147"/>
      <point x="192" y="159" type="curve" smooth="yes"/>
      <point x="192" y="192"/>
      <point x="170" y="226"/>
      <point x="118" y="226" type="curve" smooth="yes"/>
      <point x="54" y="226"/>
      <point x="23" y="183"/>
      <point x="23" y="125" type="curve" smooth="yes"/>
      <point x="23" y="39"/>
      <point x="80" y="-9"/>
    </contour>
    <contour>
      <point x="448" y="402" type="line"/>
      <point x="457" y="533"/>
      <point x="483" y="589"/>
      <point x="558" y="589" type="curve" smooth="yes"/>
      <point x="623" y="589"/>
      <point x="665" y="551"/>
      <point x="669" y="402" type="curve"/>
    </contour>
  </outline>
</glyph>
<glyph name="uni13B0" format="2">
  <advance width="636"/>
  <unicode hex="13B0"/>
  <note>
uni13B0
</note>
  <anchor x="226" y="0" name="bottom"/>
  <anchor x="226" y="714" name="top"/>
  <outline>
    <contour>
      <point x="55" y="0" type="line"/>
      <point x="386" y="0" type="line"/>
      <point x="386" y="112" type="line"/>
      <point x="322" y="119" type="line"/>
      <point x="322" y="308" type="line"/>
      <point x="484" y="308" type="line"/>
      <point x="496" y="217" type="line"/>
      <point x="591" y="217" type="line"/>
      <point x="591" y="511" type="line"/>
      <point x="496" y="511" type="line"/>
      <point x="486" y="431" type="line"/>
      <point x="322" y="431" type="line"/>
      <point x="322" y="595" type="line"/>
      <point x="386" y="602" type="line"/>
      <point x="386" y="714" type="line"/>
      <point x="55" y="714" type="line"/>
      <point x="55" y="602" type="line"/>
      <point x="128" y="593" type="line"/>
      <point x="128" y="121" type="line"/>
      <point x="55" y="112" type="line"/>
    </contour>
  </outline>
</glyph>
<glyph name="uni13B1" format="2">
  <advance width="678"/>
  <unicode hex="13B1"/>
  <note>
uni13B1
</note>
  <anchor x="229" y="0" name="bottom"/>
  <anchor x="361" y="714" name="top"/>
  <outline>
    <contour>
      <point x="55" y="0" type="line"/>
      <point x="400" y="0" type="line"/>
      <point x="400" y="112" type="line"/>
      <point x="324" y="121" type="line"/>
      <point x="324" y="582" type="line"/>
      <point x="539" y="582" type="line"/>
      <point x="547" y="485" type="line"/>
      <point x="654" y="485" type="line"/>
      <point x="654" y="714" type="line"/>
      <point x="55" y="714" type="line"/>
      <point x="55" y="602" type="line"/>
      <point x="131" y="593" type="line"/>
      <point x="131" y="121" type="line"/>
      <point x="55" y="112" type="line"/>
    </contour>
  </outline>
</glyph>
<glyph name="uni13B2" format="2">
  <advance width="992"/>
  <unicode hex="13B2"/>
  <note>
uni13B2
</note>
  <anchor x="481" y="0" name="bottom"/>
  <anchor x="477" y="714" name="top"/>
  <outline>
    <contour>
      <point x="268" y="-11" type="curve" smooth="yes"/>
      <point x="363" y="-11"/>
      <point x="418" y="17"/>
      <point x="468" y="58" type="curve"/>
      <point x="522" y="15"/>
      <point x="583" y="-11"/>
      <point x="685" y="-11" type="curve" smooth="yes"/>
      <point x="824" y="-11"/>
      <point x="908" y="69"/>
      <point x="928" y="183" type="curve"/>
      <point x="975" y="189" type="line"/>
      <point x="975" y="301" type="line"/>
      <point x="699" y="301" type="line"/>
      <point x="699" y="189" type="line"/>
      <point x="743" y="183" type="line"/>
      <point x="733" y="153"/>
      <point x="714" y="136"/>
      <point x="677" y="136" type="curve" smooth="yes"/>
      <point x="636" y="136"/>
      <point x="612" y="152"/>
      <point x="592" y="171" type="curve"/>
      <point x="675" y="258"/>
      <point x="718" y="370"/>
      <point x="718" y="483" type="curve" smooth="yes"/>
      <point x="718" y="638"/>
      <point x="625" y="725"/>
      <point x="479" y="725" type="curve" smooth="yes"/>
      <point x="322" y="725"/>
      <point x="224" y="629"/>
      <point x="224" y="466" type="curve" smooth="yes"/>
      <point x="224" y="358"/>
      <point x="262" y="260"/>
      <point x="349" y="170" type="curve"/>
      <point x="332" y="153"/>
      <point x="307" y="136"/>
      <point x="273" y="136" type="curve" smooth="yes"/>
      <point x="231" y="136"/>
      <point x="205" y="166"/>
      <point x="205" y="234" type="curve" smooth="yes"/>
      <point x="205" y="261"/>
      <point x="207" y="283"/>
      <point x="209" y="303" type="curve"/>
      <point x="33" y="303" type="line"/>
      <point x="28" y="276"/>
      <point x="25" y="244"/>
      <point x="25" y="210" type="curve" smooth="yes"/>
      <point x="25" y="66"/>
      <point x="113" y="-11"/>
    </contour>
    <contour>
      <point x="470" y="291" type="curve"/>
      <point x="437" y="346"/>
      <point x="420" y="409"/>
      <point x="420" y="475" type="curve" smooth="yes"/>
      <point x="420" y="551"/>
      <point x="440" y="584"/>
      <point x="474" y="584" type="curve" smooth="yes"/>
      <point x="503" y="584"/>
      <point x="525" y="555"/>
      <point x="525" y="479" type="curve" smooth="yes"/>
      <point x="525" y="420"/>
      <point x="507" y="351"/>
    </contour>
  </outline>
</glyph>
<glyph name="uni13B3" format="2">
  <advance width="1123"/>
  <unicode hex="13B3"/>
  <note>
uni13B3
</note>
  <anchor x="562" y="0" name="bottom"/>
  <anchor x="562" y="714" name="top"/>
  <outline>
    <contour>
      <point x="223" y="0" type="line"/>
      <point x="439" y="0" type="line"/>
      <point x="519" y="263" type="line" smooth="yes"/>
      <point x="531" y="301"/>
      <point x="544" y="349"/>
      <point x="554" y="393" type="curve"/>
      <point x="556" y="393" type="line"/>
      <point x="565" y="349"/>
      <point x="578" y="301"/>
      <point x="588" y="263" type="curve" smooth="yes"/>
      <point x="656" y="0" type="line"/>
      <point x="881" y="0" type="line"/>
      <point x="1036" y="593" type="line"/>
      <point x="1113" y="602" type="line"/>
      <point x="1113" y="714" type="line"/>
      <point x="794" y="714" type="line"/>
      <point x="794" y="602" type="line"/>
      <point x="863" y="594" type="line"/>
      <point x="807" y="350" type="line" smooth="yes"/>
      <point x="800" y="319"/>
      <point x="779" y="219"/>
      <point x="769" y="167" type="curve"/>
      <point x="767" y="167" type="line"/>
      <point x="758" y="219"/>
      <point x="740" y="298"/>
      <point x="727" y="349" type="curve" smooth="yes"/>
      <point x="663" y="594" type="line"/>
      <point x="730" y="602" type="line"/>
      <point x="730" y="714" type="line"/>
      <point x="414" y="714" type="line"/>
      <point x="414" y="602" type="line"/>
      <point x="467" y="595" type="line"/>
      <point x="469" y="581" type="line"/>
      <point x="393" y="320" type="line" smooth="yes"/>
      <point x="378" y="267"/>
      <point x="360" y="214"/>
      <point x="349" y="167" type="curve"/>
      <point x="347" y="167" type="line"/>
      <point x="340" y="214"/>
      <point x="327" y="289"/>
      <point x="320" y="320" type="curve" smooth="yes"/>
      <point x="261" y="592" type="line"/>
      <point x="344" y="602" type="line"/>
      <point x="344" y="714" type="line"/>
      <point x="10" y="714" type="line"/>
      <point x="10" y="602" type="line"/>
      <point x="73" y="595" type="line"/>
    </contour>
  </outline>
</glyph>
<glyph name="uni13B4" format="2">
  <advance width="805"/>
  <unicode hex="13B4"/>
  <note>
uni13B4
</note>
  <anchor x="271" y="0" name="bottom"/>
  <anchor x="403" y="714" name="top"/>
  <outline>
    <contour>
      <point x="267" y="-9" type="curve" smooth="yes"/>
      <point x="467" y="-9"/>
      <point x="544" y="105"/>
      <point x="544" y="313" type="curve" smooth="yes"/>
      <point x="544" y="551" type="line" smooth="yes"/>
      <point x="544" y="590"/>
      <point x="559" y="604"/>
      <point x="585" y="604" type="curve" smooth="yes"/>
      <point x="602" y="604"/>
      <point x="616" y="596"/>
      <point x="619" y="579" type="curve"/>
      <point x="616" y="574"/>
      <point x="615" y="567"/>
      <point x="615" y="553" type="curve" smooth="yes"/>
      <point x="615" y="506"/>
      <point x="639" y="475"/>
      <point x="693" y="475" type="curve" smooth="yes"/>
      <point x="748" y="475"/>
      <point x="780" y="513"/>
      <point x="780" y="572" type="curve" smooth="yes"/>
      <point x="780" y="663"/>
      <point x="704" y="726"/>
      <point x="578" y="726" type="curve" smooth="yes"/>
      <point x="434" y="726"/>
      <point x="351" y="657"/>
      <point x="351" y="517" type="curve" smooth="yes"/>
      <point x="351" y="486" type="line" smooth="yes"/>
      <point x="351" y="431"/>
      <point x="351" y="442"/>
      <point x="353" y="418" type="curve"/>
      <point x="350" y="418" type="line"/>
      <point x="337" y="433"/>
      <point x="293" y="467"/>
      <point x="219" y="467" type="curve" smooth="yes"/>
      <point x="103" y="467"/>
      <point x="15" y="393"/>
      <point x="15" y="237" type="curve" smooth="yes"/>
      <point x="15" y="73"/>
      <point x="106" y="-9"/>
    </contour>
    <contour>
      <point x="274" y="123" type="curve" smooth="yes"/>
      <point x="231" y="123"/>
      <point x="202" y="158"/>
      <point x="202" y="230" type="curve" smooth="yes"/>
      <point x="202" y="301"/>
      <point x="228" y="336"/>
      <point x="277" y="336" type="curve" smooth="yes"/>
      <point x="320" y="336"/>
      <point x="349" y="301"/>
      <point x="349" y="236" type="curve" smooth="yes"/>
      <point x="349" y="157"/>
      <point x="319" y="123"/>
    </contour>
  </outline>
</glyph>
<glyph name="uni13B5" format="2">
  <advance width="737"/>
  <unicode hex="13B5"/>
  <note>
uni13B5
</note>
  <anchor x="207" y="0" name="bottom"/>
  <anchor x="414" y="714" name="top"/>
  <outline>
    <contour>
      <point x="40" y="0" type="line"/>
      <point x="371" y="0" type="line"/>
      <point x="371" y="112" type="line"/>
      <point x="298" y="121" type="line"/>
      <point x="298" y="429" type="line" smooth="yes"/>
      <point x="298" y="547"/>
      <point x="342" y="592"/>
      <point x="423" y="592" type="curve" smooth="yes"/>
      <point x="495" y="592"/>
      <point x="531" y="547"/>
      <point x="531" y="480" type="curve" smooth="yes"/>
      <point x="531" y="428"/>
      <point x="503" y="392"/>
      <point x="477" y="386" type="curve"/>
      <point x="471" y="405"/>
      <point x="453" y="422"/>
      <point x="423" y="422" type="curve" smooth="yes"/>
      <point x="379" y="422"/>
      <point x="351" y="396"/>
      <point x="351" y="348" type="curve" smooth="yes"/>
      <point x="351" y="285"/>
      <point x="400" y="249"/>
      <point x="474" y="249" type="curve" smooth="yes"/>
      <point x="615" y="249"/>
      <point x="697" y="349"/>
      <point x="697" y="483" type="curve" smooth="yes"/>
      <point x="697" y="620"/>
      <point x="612" y="724"/>
      <point x="423" y="724" type="curve" smooth="yes"/>
      <point x="207" y="724"/>
      <point x="107" y="620"/>
      <point x="107" y="421" type="curve" smooth="yes"/>
      <point x="107" y="120" type="line"/>
      <point x="40" y="112" type="line"/>
    </contour>
  </outline>
</glyph>
<glyph name="uni13B6" format="2">
  <advance width="733"/>
  <unicode hex="13B6"/>
  <note>
uni13B6
</note>
  <anchor x="387" y="0" name="bottom"/>
  <anchor x="387" y="714" name="top"/>
  <outline>
    <contour>
      <point x="394" y="-10" type="curve" smooth="yes"/>
      <point x="611" y="-10"/>
      <point x="698" y="98"/>
      <point x="698" y="230" type="curve" smooth="yes"/>
      <point x="698" y="374"/>
      <point x="611" y="425"/>
      <point x="475" y="426" type="curve"/>
      <point x="468" y="485" type="line"/>
      <point x="356" y="485" type="line"/>
      <point x="356" y="219" type="line"/>
      <point x="468" y="219" type="line"/>
      <point x="476" y="288" type="line"/>
      <point x="514" y="286"/>
      <point x="546" y="271"/>
      <point x="546" y="220" type="curve" smooth="yes"/>
      <point x="546" y="165"/>
      <point x="505" y="129"/>
      <point x="423" y="129" type="curve" smooth="yes"/>
      <point x="320" y="129"/>
      <point x="249" y="180"/>
      <point x="249" y="353" type="curve" smooth="yes"/>
      <point x="249" y="528"/>
      <point x="313" y="589"/>
      <point x="424" y="589" type="curve" smooth="yes"/>
      <point x="467" y="589"/>
      <point x="498" y="578"/>
      <point x="520" y="564" type="curve"/>
      <point x="535" y="487" type="line"/>
      <point x="652" y="487" type="line"/>
      <point x="652" y="659" type="line"/>
      <point x="589" y="704"/>
      <point x="506" y="724"/>
      <point x="407" y="724" type="curve" smooth="yes"/>
      <point x="174" y="724"/>
      <point x="51" y="594"/>
      <point x="51" y="348" type="curve" smooth="yes"/>
      <point x="51" y="118"/>
      <point x="167" y="-10"/>
    </contour>
  </outline>
</glyph>
<glyph name="uni13B7" format="2">
  <advance width="1104"/>
  <unicode hex="13B7"/>
  <note>
uni13B7
</note>
  <anchor x="552" y="0" name="bottom"/>
  <anchor x="552" y="714" name="top"/>
  <outline>
    <contour>
      <point x="55" y="0" type="line"/>
      <point x="366" y="0" type="line"/>
      <point x="366" y="112" type="line"/>
      <point x="292" y="121" type="line"/>
      <point x="292" y="310" type="line" smooth="yes"/>
      <point x="292" y="383"/>
      <point x="285" y="474"/>
      <point x="282" y="514" type="curve"/>
      <point x="286" y="514" type="line"/>
      <point x="464" y="0" type="line"/>
      <point x="628" y="0" type="line"/>
      <point x="796" y="513" type="line"/>
      <point x="800" y="513" type="line"/>
      <point x="797" y="473"/>
      <point x="793" y="380"/>
      <point x="793" y="313" type="curve" smooth="yes"/>
      <point x="793" y="120" type="line"/>
      <point x="725" y="112" type="line"/>
      <point x="725" y="0" type="line"/>
      <point x="1049" y="0" type="line"/>
      <point x="1049" y="112" type="line"/>
      <point x="970" y="121" type="line"/>
      <point x="970" y="593" type="line"/>
      <point x="1049" y="602" type="line"/>
      <point x="1049" y="714" type="line"/>
      <point x="719" y="714" type="line"/>
      <point x="588" y="325" type="line" smooth="yes"/>
      <point x="574" y="285"/>
      <point x="563" y="248"/>
      <point x="552" y="204" type="curve"/>
      <point x="548" y="204" type="line"/>
      <point x="538" y="247"/>
      <point x="527" y="286"/>
      <point x="514" y="325" type="curve" smooth="yes"/>
      <point x="387" y="714" type="line"/>
      <point x="55" y="714" type="line"/>
      <point x="55" y="602" type="line"/>
      <point x="134" y="593" type="line"/>
      <point x="134" y="121" type="line"/>
      <point x="55" y="112" type="line"/>
    </contour>
  </outline>
</glyph>
<glyph name="uni13B8" format="2">
  <advance width="891"/>
  <unicode hex="13B8"/>
  <note>
uni13B8
</note>
  <anchor x="681" y="0" name="bottom"/>
  <anchor x="485" y="714" name="top"/>
  <outline>
    <contour>
      <point x="520" y="0" type="line"/>
      <point x="851" y="0" type="line"/>
      <point x="851" y="112" type="line"/>
      <point x="784" y="120" type="line"/>
      <point x="784" y="436" type="line" smooth="yes"/>
      <point x="784" y="637"/>
      <point x="685" y="728"/>
      <point x="485" y="728" type="curve" smooth="yes"/>
      <point x="296" y="728"/>
      <point x="221" y="647"/>
      <point x="221" y="561" type="curve" smooth="yes"/>
      <point x="221" y="501"/>
      <point x="251" y="464"/>
      <point x="315" y="464" type="curve" smooth="yes"/>
      <point x="374" y="464"/>
      <point x="399" y="497"/>
      <point x="399" y="536" type="curve" smooth="yes"/>
      <point x="399" y="549"/>
      <point x="396" y="558"/>
      <point x="393" y="564" type="curve"/>
      <point x="404" y="582"/>
      <point x="431" y="596"/>
      <point x="478" y="596" type="curve" smooth="yes"/>
      <point x="560" y="596"/>
      <point x="593" y="551"/>
      <point x="593" y="458" type="curve" smooth="yes"/>
      <point x="593" y="377" type="line"/>
      <point x="572" y="344"/>
      <point x="532" y="304"/>
      <point x="459" y="304" type="curve" smooth="yes"/>
      <point x="369" y="304"/>
      <point x="336" y="352"/>
      <point x="330" y="422" type="curve"/>
      <point x="179" y="422" type="line"/>
      <point x="170" y="495" type="line"/>
      <point x="58" y="495" type="line"/>
      <point x="58" y="177" type="line"/>
      <point x="170" y="177" type="line"/>
      <point x="178" y="244" type="line"/>
      <point x="223" y="244" type="line"/>
      <point x="249" y="187"/>
      <point x="319" y="142"/>
      <point x="419" y="142" type="curve" smooth="yes"/>
      <point x="508" y="142"/>
      <point x="561" y="177"/>
      <point x="593" y="204" type="curve"/>
      <point x="593" y="121" type="line"/>
      <point x="520" y="112" type="line"/>
    </contour>
  </outline>
</glyph>
<glyph name="uni13B9" format="2">
  <advance width="1072"/>
  <unicode hex="13B9"/>
  <note>
uni13B9
</note>
  <anchor x="396" y="0" name="bottom"/>
  <anchor x="430" y="714" name="top"/>
  <outline>
    <contour>
      <point x="397" y="-10" type="curve" smooth="yes"/>
      <point x="528" y="-10"/>
      <point x="609" y="76"/>
      <point x="609" y="202" type="curve" smooth="yes"/>
      <point x="609" y="300"/>
      <point x="560" y="369"/>
      <point x="481" y="412" type="curve"/>
      <point x="485" y="417"/>
      <point x="492" y="430"/>
      <point x="494" y="437" type="curve"/>
      <point x="505" y="430"/>
      <point x="526" y="424"/>
      <point x="553" y="424" type="curve" smooth="yes"/>
      <point x="618" y="424"/>
      <point x="679" y="456"/>
      <point x="730" y="498" type="curve" smooth="yes"/>
      <point x="784" y="542"/>
      <point x="807" y="556"/>
      <point x="836" y="556" type="curve" smooth="yes"/>
      <point x="865" y="556"/>
      <point x="885" y="539"/>
      <point x="885" y="508" type="curve" smooth="yes"/>
      <point x="885" y="473"/>
      <point x="852" y="454"/>
      <point x="811" y="454" type="curve"/>
      <point x="811" y="331" type="line"/>
      <point x="948" y="331"/>
      <point x="1042" y="389"/>
      <point x="1042" y="528" type="curve" smooth="yes"/>
      <point x="1042" y="633"/>
      <point x="970" y="702"/>
      <point x="849" y="702" type="curve" smooth="yes"/>
      <point x="755" y="702"/>
      <point x="700" y="656"/>
      <point x="641" y="606" type="curve" smooth="yes"/>
      <point x="598" y="570"/>
      <point x="569" y="554"/>
      <point x="542" y="554" type="curve" smooth="yes"/>
      <point x="530" y="554"/>
      <point x="523" y="557"/>
      <point x="520" y="560" type="curve"/>
      <point x="520" y="593" type="line"/>
      <point x="594" y="602" type="line"/>
      <point x="594" y="714" type="line"/>
      <point x="275" y="714" type="line"/>
      <point x="275" y="602" type="line"/>
      <point x="347" y="594" type="line"/>
      <point x="347" y="564" type="line" smooth="yes"/>
      <point x="347" y="515"/>
      <point x="343" y="480"/>
      <point x="330" y="455" type="curve"/>
      <point x="308" y="458"/>
      <point x="290" y="460"/>
      <point x="256" y="460" type="curve" smooth="yes"/>
      <point x="87" y="460"/>
      <point x="-7" y="356"/>
      <point x="-7" y="224" type="curve"/>
      <point x="135" y="224" type="line"/>
      <point x="135" y="290"/>
      <point x="183" y="331"/>
      <point x="241" y="331" type="curve" smooth="yes"/>
      <point x="245" y="331"/>
      <point x="250" y="331"/>
      <point x="254" y="330" type="curve"/>
      <point x="216" y="284"/>
      <point x="196" y="243"/>
      <point x="196" y="178" type="curve" smooth="yes"/>
      <point x="196" y="64"/>
      <point x="266" y="-10"/>
    </contour>
    <contour>
      <point x="396" y="109" type="curve" smooth="yes"/>
      <point x="375" y="109"/>
      <point x="358" y="131"/>
      <point x="358" y="180" type="curve" smooth="yes"/>
      <point x="358" y="223"/>
      <point x="370" y="254"/>
      <point x="396" y="294" type="curve"/>
      <point x="420" y="277"/>
      <point x="437" y="237"/>
      <point x="437" y="191" type="curve" smooth="yes"/>
      <point x="437" y="132"/>
      <point x="419" y="109"/>
    </contour>
  </outline>
</glyph>
<glyph name="uni13BA" format="2">
  <advance width="1078"/>
  <unicode hex="13BA"/>
  <note>
uni13BA
</note>
  <anchor x="539" y="0" name="bottom"/>
  <anchor x="539" y="714" name="top"/>
  <outline>
    <contour>
      <point x="374" y="-10" type="curve" smooth="yes"/>
      <point x="574" y="-10"/>
      <point x="667" y="107"/>
      <point x="685" y="291" type="curve"/>
      <point x="804" y="291" type="line"/>
      <point x="804" y="0" type="line"/>
      <point x="998" y="0" type="line"/>
      <point x="998" y="714" type="line"/>
      <point x="804" y="714" type="line"/>
      <point x="804" y="449" type="line"/>
      <point x="682" y="449" type="line"/>
      <point x="659" y="619"/>
      <point x="565" y="725"/>
      <point x="373" y="725" type="curve" smooth="yes"/>
      <point x="146" y="725"/>
      <point x="51" y="580"/>
      <point x="51" y="358" type="curve" smooth="yes"/>
      <point x="51" y="137"/>
      <point x="146" y="-10"/>
    </contour>
    <contour>
      <point x="374" y="151" type="curve" smooth="yes"/>
      <point x="286" y="151"/>
      <point x="254" y="229"/>
      <point x="254" y="358" type="curve" smooth="yes"/>
      <point x="254" y="487"/>
      <point x="286" y="567"/>
      <point x="373" y="567" type="curve" smooth="yes"/>
      <point x="461" y="567"/>
      <point x="494" y="487"/>
      <point x="494" y="358" type="curve" smooth="yes"/>
      <point x="494" y="229"/>
      <point x="460" y="151"/>
    </contour>
  </outline>
</glyph>
<glyph name="uni13BB" format="2">
  <advance width="869"/>
  <unicode hex="13BB"/>
  <note>
uni13BB
</note>
  <anchor x="435" y="0" name="bottom"/>
  <anchor x="435" y="714" name="top"/>
  <outline>
    <contour>
      <point x="55" y="0" type="line"/>
      <point x="386" y="0" type="line"/>
      <point x="386" y="112" type="line"/>
      <point x="322" y="119" type="line"/>
      <point x="322" y="301" type="line"/>
      <point x="546" y="301" type="line"/>
      <point x="546" y="119" type="line"/>
      <point x="483" y="112" type="line"/>
      <point x="483" y="0" type="line"/>
      <point x="814" y="0" type="line"/>
      <point x="814" y="112" type="line"/>
      <point x="740" y="121" type="line"/>
      <point x="740" y="593" type="line"/>
      <point x="814" y="602" type="line"/>
      <point x="814" y="714" type="line"/>
      <point x="483" y="714" type="line"/>
      <point x="483" y="602" type="line"/>
      <point x="546" y="595" type="line"/>
      <point x="546" y="439" type="line"/>
      <point x="322" y="439" type="line"/>
      <point x="322" y="595" type="line"/>
      <point x="386" y="602" type="line"/>
      <point x="386" y="714" type="line"/>
      <point x="55" y="714" type="line"/>
      <point x="55" y="602" type="line"/>
      <point x="128" y="593" type="line"/>
      <point x="128" y="121" type="line"/>
      <point x="55" y="112" type="line"/>
    </contour>
  </outline>
</glyph>
<glyph name="uni13BC" format="2">
  <advance width="928"/>
  <unicode hex="13BC"/>
  <note>
uni13BC
</note>
  <anchor x="581" y="0" name="bottom"/>
  <anchor x="512" y="714" name="top"/>
  <outline>
    <contour>
      <point x="583" y="-13" type="curve" smooth="yes"/>
      <point x="768" y="-13"/>
      <point x="884" y="99"/>
      <point x="884" y="271" type="curve" smooth="yes"/>
      <point x="884" y="440"/>
      <point x="788" y="540"/>
      <point x="603" y="561" type="curve"/>
      <point x="603" y="594" type="line"/>
      <point x="683" y="602" type="line"/>
      <point x="683" y="714" type="line"/>
      <point x="352" y="714" type="line"/>
      <point x="352" y="602" type="line"/>
      <point x="430" y="594" type="line"/>
      <point x="430" y="561" type="line"/>
      <point x="374" y="489"/>
      <point x="319" y="451"/>
      <point x="248" y="451" type="curve" smooth="yes"/>
      <point x="194" y="451"/>
      <point x="157" y="478"/>
      <point x="131" y="515" type="curve"/>
      <point x="20" y="410" type="line"/>
      <point x="61" y="346"/>
      <point x="134" y="295"/>
      <point x="236" y="295" type="curve" smooth="yes"/>
      <point x="359" y="295"/>
      <point x="439" y="352"/>
      <point x="510" y="435" type="curve"/>
      <point x="635" y="429"/>
      <point x="705" y="377"/>
      <point x="705" y="258" type="curve" smooth="yes"/>
      <point x="705" y="177"/>
      <point x="664" y="126"/>
      <point x="590" y="126" type="curve" smooth="yes"/>
      <point x="518" y="126"/>
      <point x="491" y="172"/>
      <point x="489" y="220" type="curve"/>
      <point x="323" y="220" type="line"/>
      <point x="323" y="90"/>
      <point x="404" y="-13"/>
    </contour>
  </outline>
</glyph>
<glyph name="uni13BD" format="2">
  <advance width="786"/>
  <unicode hex="13BD"/>
  <note>
uni13BD
</note>
  <anchor x="249" y="0" name="bottom"/>
  <anchor x="393" y="714" name="top"/>
  <outline>
    <contour>
      <point x="246" y="-11" type="curve" smooth="yes"/>
      <point x="394" y="-11"/>
      <point x="457" y="81"/>
      <point x="518" y="203" type="curve" smooth="yes"/>
      <point x="713" y="595" type="line"/>
      <point x="774" y="602" type="line"/>
      <point x="774" y="714" type="line"/>
      <point x="469" y="714" type="line"/>
      <point x="469" y="602" type="line"/>
      <point x="525" y="595" type="line"/>
      <point x="469" y="472" type="line" smooth="yes"/>
      <point x="458" y="448"/>
      <point x="445" y="419"/>
      <point x="430" y="381" type="curve"/>
      <point x="425" y="381" type="line"/>
      <point x="408" y="418"/>
      <point x="392" y="450"/>
      <point x="375" y="481" type="curve" smooth="yes"/>
      <point x="245" y="714" type="line"/>
      <point x="26" y="714" type="line"/>
      <point x="334" y="206" type="line"/>
      <point x="311" y="155"/>
      <point x="292" y="119"/>
      <point x="258" y="119" type="curve" smooth="yes"/>
      <point x="230" y="119"/>
      <point x="221" y="134"/>
      <point x="219" y="153" type="curve"/>
      <point x="265" y="159" type="line"/>
      <point x="265" y="271" type="line"/>
      <point x="3" y="271" type="line"/>
      <point x="3" y="159" type="line"/>
      <point x="51" y="154" type="line"/>
      <point x="58" y="63"/>
      <point x="113" y="-11"/>
    </contour>
  </outline>
</glyph>
<glyph name="uni13BE" format="2">
  <advance width="796"/>
  <unicode hex="13BE"/>
  <note>
uni13BE
</note>
  <anchor x="398" y="0" name="bottom"/>
  <anchor x="398" y="714" name="top"/>
  <outline>
    <contour>
      <point x="398" y="-10" type="curve" smooth="yes"/>
      <point x="643" y="-10"/>
      <point x="745" y="137"/>
      <point x="745" y="358" type="curve" smooth="yes"/>
      <point x="745" y="580"/>
      <point x="643" y="725"/>
      <point x="399" y="725" type="curve" smooth="yes"/>
      <point x="158" y="725"/>
      <point x="51" y="581"/>
      <point x="51" y="359" type="curve" smooth="yes"/>
      <point x="51" y="136"/>
      <point x="158" y="-10"/>
    </contour>
    <contour>
      <point x="398" y="131" type="curve" smooth="yes"/>
      <point x="310" y="131"/>
      <point x="267" y="188"/>
      <point x="257" y="298" type="curve"/>
      <point x="540" y="298" type="line"/>
      <point x="530" y="188"/>
      <point x="489" y="131"/>
    </contour>
    <contour>
      <point x="257" y="418" type="line"/>
      <point x="267" y="528"/>
      <point x="309" y="587"/>
      <point x="399" y="587" type="curve" smooth="yes"/>
      <point x="489" y="587"/>
      <point x="530" y="528"/>
      <point x="540" y="418" type="curve"/>
    </contour>
  </outline>
</glyph>
<glyph name="uni13BF" format="2">
  <advance width="827"/>
  <unicode hex="13BF"/>
  <note>
uni13BF
</note>
  <anchor x="313" y="0" name="bottom"/>
  <anchor x="240" y="714" name="top"/>
  <outline>
    <contour>
      <point x="547" y="-80" type="line"/>
      <point x="716" y="-80" type="line"/>
      <point x="716" y="244" type="line"/>
      <point x="809" y="244" type="line"/>
      <point x="809" y="366" type="line"/>
      <point x="443" y="366" type="line"/>
      <point x="443" y="244" type="line"/>
      <point x="547" y="244" type="line"/>
      <point x="547" y="232" type="line" smooth="yes"/>
      <point x="547" y="174"/>
      <point x="511" y="131"/>
      <point x="447" y="131" type="curve" smooth="yes"/>
      <point x="386" y="131"/>
      <point x="341" y="160"/>
      <point x="341" y="240" type="curve" smooth="yes"/>
      <point x="341" y="470" type="line"/>
      <point x="496" y="470" type="line"/>
      <point x="496" y="592" type="line"/>
      <point x="341" y="592" type="line"/>
      <point x="341" y="714" type="line"/>
      <point x="143" y="714" type="line"/>
      <point x="143" y="592" type="line"/>
      <point x="26" y="592" type="line"/>
      <point x="26" y="470" type="line"/>
      <point x="143" y="470" type="line"/>
      <point x="143" y="234" type="line" smooth="yes"/>
      <point x="143" y="81"/>
      <point x="233" y="-10"/>
      <point x="378" y="-10" type="curve" smooth="yes"/>
      <point x="462" y="-10"/>
      <point x="516" y="16"/>
      <point x="545" y="47" type="curve"/>
      <point x="547" y="47" type="line"/>
    </contour>
  </outline>
</glyph>
<glyph name="uni13C0" format="2">
  <advance width="781"/>
  <unicode hex="13C0"/>
  <note>
uni13C0
</note>
  <anchor x="391" y="0" name="bottom"/>
  <anchor x="391" y="714" name="top"/>
  <outline>
    <contour>
      <point x="322" y="-10" type="curve" smooth="yes"/>
      <point x="402" y="-10"/>
      <point x="456" y="16"/>
      <point x="493" y="55" type="curve"/>
      <point x="493" y="0" type="line"/>
      <point x="662" y="0" type="line"/>
      <point x="662" y="233" type="line"/>
      <point x="725" y="240" type="line"/>
      <point x="725" y="352" type="line"/>
      <point x="419" y="352" type="line"/>
      <point x="419" y="240" type="line"/>
      <point x="493" y="231" type="line"/>
      <point x="493" y="191" type="line"/>
      <point x="477" y="157"/>
      <point x="443" y="129"/>
      <point x="391" y="129" type="curve" smooth="yes"/>
      <point x="305" y="129"/>
      <point x="249" y="180"/>
      <point x="249" y="337" type="curve" smooth="yes"/>
      <point x="249" y="528"/>
      <point x="313" y="589"/>
      <point x="424" y="589" type="curve" smooth="yes"/>
      <point x="466" y="589"/>
      <point x="497" y="578"/>
      <point x="519" y="565" type="curve"/>
      <point x="535" y="475" type="line"/>
      <point x="652" y="475" type="line"/>
      <point x="652" y="659" type="line"/>
      <point x="589" y="704"/>
      <point x="506" y="724"/>
      <point x="407" y="724" type="curve" smooth="yes"/>
      <point x="174" y="724"/>
      <point x="51" y="594"/>
      <point x="51" y="332" type="curve" smooth="yes"/>
      <point x="51" y="118"/>
      <point x="149" y="-10"/>
    </contour>
  </outline>
</glyph>
<glyph name="uni13C1" format="2">
  <advance width="933"/>
  <unicode hex="13C1"/>
  <note>
uni13C1
</note>
  <anchor x="467" y="0" name="bottom"/>
  <anchor x="549" y="714" name="top"/>
  <outline>
    <contour>
      <point x="186" y="-9" type="curve" smooth="yes"/>
      <point x="372" y="-9"/>
      <point x="435" y="144"/>
      <point x="450" y="351" type="curve" smooth="yes"/>
      <point x="462" y="521"/>
      <point x="479" y="586"/>
      <point x="559" y="586" type="curve" smooth="yes"/>
      <point x="615" y="586"/>
      <point x="635" y="543"/>
      <point x="635" y="468" type="curve" smooth="yes"/>
      <point x="635" y="121" type="line"/>
      <point x="562" y="112" type="line"/>
      <point x="562" y="0" type="line"/>
      <point x="893" y="0" type="line"/>
      <point x="893" y="112" type="line"/>
      <point x="826" y="120" type="line"/>
      <point x="826" y="450" type="line" smooth="yes"/>
      <point x="826" y="627"/>
      <point x="752" y="726"/>
      <point x="564" y="726" type="curve" smooth="yes"/>
      <point x="363" y="726"/>
      <point x="282" y="627"/>
      <point x="264" y="383" type="curve" smooth="yes"/>
      <point x="250" y="190"/>
      <point x="229" y="132"/>
      <point x="194" y="132" type="curve"/>
      <point x="196" y="136"/>
      <point x="198" y="147"/>
      <point x="198" y="159" type="curve" smooth="yes"/>
      <point x="198" y="191"/>
      <point x="176" y="225"/>
      <point x="124" y="225" type="curve" smooth="yes"/>
      <point x="60" y="225"/>
      <point x="29" y="182"/>
      <point x="29" y="125" type="curve" smooth="yes"/>
      <point x="29" y="39"/>
      <point x="86" y="-9"/>
    </contour>
  </outline>
</glyph>
<glyph name="uni13C2" format="2">
  <advance width="842"/>
  <unicode hex="13C2"/>
  <note>
uni13C2
</note>
  <anchor x="421" y="0" name="bottom"/>
  <anchor x="219" y="714" name="top"/>
  <outline>
    <contour>
      <point x="61" y="0" type="line"/>
      <point x="392" y="0" type="line"/>
      <point x="392" y="112" type="line"/>
      <point x="319" y="121" type="line"/>
      <point x="319" y="244" type="line" smooth="yes"/>
      <point x="319" y="326"/>
      <point x="354" y="365"/>
      <point x="435" y="365" type="curve" smooth="yes"/>
      <point x="508" y="365"/>
      <point x="538" y="328"/>
      <point x="538" y="258" type="curve" smooth="yes"/>
      <point x="538" y="120" type="line"/>
      <point x="471" y="112" type="line"/>
      <point x="471" y="0" type="line"/>
      <point x="802" y="0" type="line"/>
      <point x="802" y="112" type="line"/>
      <point x="729" y="121" type="line"/>
      <point x="729" y="280" type="line" smooth="yes"/>
      <point x="729" y="449"/>
      <point x="646" y="527"/>
      <point x="501" y="527" type="curve" smooth="yes"/>
      <point x="399" y="527"/>
      <point x="343" y="484"/>
      <point x="319" y="437" type="curve"/>
      <point x="315" y="439" type="line"/>
      <point x="318" y="454"/>
      <point x="319" y="472"/>
      <point x="319" y="488" type="curve" smooth="yes"/>
      <point x="319" y="595" type="line"/>
      <point x="386" y="602" type="line"/>
      <point x="386" y="714" type="line"/>
      <point x="55" y="714" type="line"/>
      <point x="55" y="602" type="line"/>
      <point x="128" y="593" type="line"/>
      <point x="128" y="120" type="line"/>
      <point x="61" y="112" type="line"/>
    </contour>
  </outline>
</glyph>
<glyph name="uni13C3" format="2">
  <advance width="651"/>
  <unicode hex="13C3"/>
  <note>
uni13C3
</note>
  <anchor x="326" y="0" name="bottom"/>
  <anchor x="326" y="714" name="top"/>
  <outline>
    <contour>
      <point x="38" y="0" type="line"/>
      <point x="607" y="0" type="line"/>
      <point x="607" y="229" type="line"/>
      <point x="500" y="229" type="line"/>
      <point x="492" y="132" type="line"/>
      <point x="267" y="132" type="line"/>
      <point x="611" y="595" type="line"/>
      <point x="611" y="714" type="line"/>
      <point x="53" y="714" type="line"/>
      <point x="53" y="485" type="line"/>
      <point x="160" y="485" type="line"/>
      <point x="170" y="582" type="line"/>
      <point x="385" y="582" type="line"/>
      <point x="38" y="119" type="line"/>
    </contour>
  </outline>
</glyph>
<glyph name="uni13C4" format="2">
  <advance width="811"/>
  <unicode hex="13C4"/>
  <note>
uni13C4
</note>
  <anchor x="605" y="0" name="bottom"/>
  <anchor x="391" y="714" name="top"/>
  <outline>
    <contour>
      <point x="440" y="0" type="line"/>
      <point x="771" y="0" type="line"/>
      <point x="771" y="112" type="line"/>
      <point x="704" y="120" type="line"/>
      <point x="704" y="421" type="line" smooth="yes"/>
      <point x="704" y="619"/>
      <point x="605" y="725"/>
      <point x="390" y="725" type="curve" smooth="yes"/>
      <point x="221" y="725"/>
      <point x="121" y="647"/>
      <point x="91" y="555" type="curve"/>
      <point x="26" y="546" type="line"/>
      <point x="26" y="450" type="line"/>
      <point x="347" y="450" type="line"/>
      <point x="347" y="546" type="line"/>
      <point x="282" y="554" type="line"/>
      <point x="304" y="581"/>
      <point x="334" y="597"/>
      <point x="387" y="597" type="curve" smooth="yes"/>
      <point x="472" y="597"/>
      <point x="513" y="543"/>
      <point x="513" y="434" type="curve" smooth="yes"/>
      <point x="513" y="332"/>
      <point x="471" y="264"/>
      <point x="381" y="264" type="curve" smooth="yes"/>
      <point x="318" y="264"/>
      <point x="296" y="284"/>
      <point x="282" y="306" type="curve"/>
      <point x="347" y="315" type="line"/>
      <point x="347" y="410" type="line"/>
      <point x="26" y="410" type="line"/>
      <point x="26" y="315" type="line"/>
      <point x="91" y="307" type="line"/>
      <point x="116" y="202"/>
      <point x="194" y="135"/>
      <point x="338" y="135" type="curve" smooth="yes"/>
      <point x="438" y="135"/>
      <point x="486" y="168"/>
      <point x="513" y="197" type="curve"/>
      <point x="515" y="197" type="line"/>
      <point x="514" y="186"/>
      <point x="513" y="165"/>
      <point x="513" y="151" type="curve" smooth="yes"/>
      <point x="513" y="121" type="line"/>
      <point x="440" y="112" type="line"/>
    </contour>
  </outline>
</glyph>
<glyph name="uni13C5" format="2">
  <advance width="1155"/>
  <unicode hex="13C5"/>
  <note>
uni13C5
</note>
  <anchor x="375" y="0" name="bottom"/>
  <anchor x="375" y="714" name="top"/>
  <outline>
    <contour>
      <point x="367" y="-10" type="curve" smooth="yes"/>
      <point x="529" y="-10"/>
      <point x="649" y="80"/>
      <point x="677" y="263" type="curve"/>
      <point x="772" y="319" type="line"/>
      <point x="794" y="269"/>
      <point x="831" y="219"/>
      <point x="931" y="219" type="curve" smooth="yes"/>
      <point x="1060" y="219"/>
      <point x="1120" y="311"/>
      <point x="1141" y="458" type="curve"/>
      <point x="1010" y="474" type="line"/>
      <point x="998" y="400"/>
      <point x="983" y="360"/>
      <point x="936" y="360" type="curve" smooth="yes"/>
      <point x="898" y="360"/>
      <point x="881" y="380"/>
      <point x="865" y="444" type="curve" smooth="yes"/>
      <point x="852" y="497" type="line"/>
      <point x="683" y="404" type="line"/>
      <point x="668" y="656"/>
      <point x="545" y="725"/>
      <point x="374" y="725" type="curve" smooth="yes"/>
      <point x="155" y="725"/>
      <point x="51" y="581"/>
      <point x="51" y="359" type="curve" smooth="yes"/>
      <point x="51" y="136"/>
      <point x="148" y="-10"/>
    </contour>
    <contour>
      <point x="367" y="149" type="curve" smooth="yes"/>
      <point x="285" y="149"/>
      <point x="252" y="227"/>
      <point x="252" y="358" type="curve" smooth="yes"/>
      <point x="252" y="489"/>
      <point x="284" y="569"/>
      <point x="367" y="569" type="curve" smooth="yes"/>
      <point x="451" y="569"/>
      <point x="481" y="489"/>
      <point x="481" y="358" type="curve" smooth="yes"/>
      <point x="481" y="227"/>
      <point x="451" y="149"/>
    </contour>
  </outline>
</glyph>
<glyph name="uni13C6" format="2">
  <advance width="775"/>
  <unicode hex="13C6"/>
  <note>
uni13C6
</note>
  <anchor x="388" y="0" name="bottom"/>
  <anchor x="388" y="714" name="top"/>
  <outline>
    <contour>
      <point x="69" y="0" type="line"/>
      <point x="720" y="0" type="line"/>
      <point x="720" y="244" type="line"/>
      <point x="618" y="244" type="line"/>
      <point x="604" y="135" type="line"/>
      <point x="484" y="135" type="line"/>
      <point x="484" y="579" type="line"/>
      <point x="590" y="579" type="line"/>
      <point x="604" y="470" type="line"/>
      <point x="706" y="470" type="line"/>
      <point x="706" y="714" type="line"/>
      <point x="55" y="714" type="line"/>
      <point x="55" y="470" type="line"/>
      <point x="157" y="470" type="line"/>
      <point x="171" y="579" type="line"/>
      <point x="291" y="579" type="line"/>
      <point x="291" y="135" type="line"/>
      <point x="185" y="135" type="line"/>
      <point x="171" y="244" type="line"/>
      <point x="69" y="244" type="line"/>
    </contour>
  </outline>
</glyph>
<glyph name="uni13C7" format="2">
  <advance width="1070"/>
  <unicode hex="13C7"/>
  <note>
uni13C7
</note>
  <anchor x="535" y="0" name="bottom"/>
  <anchor x="673" y="714" name="top"/>
  <outline>
    <contour>
      <point x="279" y="-11" type="curve" smooth="yes"/>
      <point x="409" y="-11"/>
      <point x="468" y="50"/>
      <point x="498" y="117" type="curve"/>
      <point x="500" y="117" type="line"/>
      <point x="524" y="58"/>
      <point x="575" y="-11"/>
      <point x="710" y="-11" type="curve" smooth="yes"/>
      <point x="878" y="-11"/>
      <point x="1020" y="119"/>
      <point x="1020" y="354" type="curve" smooth="yes"/>
      <point x="1020" y="565"/>
      <point x="911" y="725"/>
      <point x="660" y="725" type="curve" smooth="yes"/>
      <point x="496" y="725"/>
      <point x="408" y="655"/>
      <point x="360" y="585" type="curve"/>
      <point x="466" y="487" type="line"/>
      <point x="498" y="529"/>
      <point x="556" y="574"/>
      <point x="642" y="574" type="curve" smooth="yes"/>
      <point x="766" y="574"/>
      <point x="836" y="484"/>
      <point x="836" y="350" type="curve" smooth="yes"/>
      <point x="836" y="200"/>
      <point x="775" y="139"/>
      <point x="705" y="139" type="curve" smooth="yes"/>
      <point x="629" y="139"/>
      <point x="588" y="196"/>
      <point x="588" y="292" type="curve" smooth="yes"/>
      <point x="588" y="330"/>
      <point x="591" y="360"/>
      <point x="599" y="391" type="curve"/>
      <point x="444" y="398" type="line"/>
      <point x="437" y="372"/>
      <point x="430" y="325"/>
      <point x="428" y="276" type="curve"/>
      <point x="407" y="178"/>
      <point x="371" y="138"/>
      <point x="305" y="138" type="curve" smooth="yes"/>
      <point x="244" y="138"/>
      <point x="210" y="182"/>
      <point x="210" y="262" type="curve" smooth="yes"/>
      <point x="210" y="321"/>
      <point x="224" y="357"/>
      <point x="238" y="391" type="curve"/>
      <point x="87" y="404" type="line"/>
      <point x="63" y="367"/>
      <point x="45" y="307"/>
      <point x="45" y="238" type="curve" smooth="yes"/>
      <point x="45" y="82"/>
      <point x="130" y="-11"/>
    </contour>
  </outline>
</glyph>
<glyph name="uni13C8" format="2">
  <advance width="999"/>
  <unicode hex="13C8"/>
  <note>
uni13C8
</note>
  <anchor x="500" y="0" name="bottom"/>
  <anchor x="500" y="714" name="top"/>
  <outline>
    <contour>
      <point x="480" y="-10" type="curve" smooth="yes"/>
      <point x="637" y="-10"/>
      <point x="735" y="86"/>
      <point x="735" y="249" type="curve" smooth="yes"/>
      <point x="735" y="357"/>
      <point x="697" y="450"/>
      <point x="610" y="540" type="curve"/>
      <point x="627" y="557"/>
      <point x="666" y="577"/>
      <point x="714" y="577" type="curve" smooth="yes"/>
      <point x="773" y="577"/>
      <point x="799" y="556"/>
      <point x="799" y="522" type="curve" smooth="yes"/>
      <point x="799" y="491"/>
      <point x="777" y="478"/>
      <point x="752" y="474" type="curve"/>
      <point x="752" y="335" type="line"/>
      <point x="868" y="340"/>
      <point x="961" y="402"/>
      <point x="961" y="530" type="curve" smooth="yes"/>
      <point x="961" y="647"/>
      <point x="885" y="726"/>
      <point x="723" y="726" type="curve" smooth="yes"/>
      <point x="624" y="726"/>
      <point x="541" y="698"/>
      <point x="491" y="657" type="curve"/>
      <point x="437" y="700"/>
      <point x="378" y="726"/>
      <point x="276" y="726" type="curve" smooth="yes"/>
      <point x="133" y="726"/>
      <point x="45" y="638"/>
      <point x="45" y="494" type="curve" smooth="yes"/>
      <point x="45" y="470"/>
      <point x="48" y="446"/>
      <point x="51" y="419" type="curve"/>
      <point x="213" y="419" type="line"/>
      <point x="211" y="437"/>
      <point x="210" y="465"/>
      <point x="210" y="480" type="curve" smooth="yes"/>
      <point x="210" y="543"/>
      <point x="240" y="578"/>
      <point x="287" y="578" type="curve" smooth="yes"/>
      <point x="328" y="578"/>
      <point x="347" y="562"/>
      <point x="367" y="539" type="curve"/>
      <point x="284" y="452"/>
      <point x="241" y="345"/>
      <point x="241" y="232" type="curve" smooth="yes"/>
      <point x="241" y="77"/>
      <point x="334" y="-10"/>
    </contour>
    <contour>
      <point x="485" y="135" type="curve" smooth="yes"/>
      <point x="452" y="135"/>
      <point x="430" y="161"/>
      <point x="430" y="236" type="curve" smooth="yes"/>
      <point x="430" y="295"/>
      <point x="448" y="370"/>
      <point x="489" y="430" type="curve"/>
      <point x="526" y="375"/>
      <point x="543" y="306"/>
      <point x="543" y="240" type="curve" smooth="yes"/>
      <point x="543" y="165"/>
      <point x="523" y="135"/>
    </contour>
  </outline>
</glyph>
<glyph name="uni13C9" format="2">
  <advance width="1384"/>
  <unicode hex="13C9"/>
  <note>
uni13C9
</note>
  <anchor x="624" y="0" name="bottom"/>
  <anchor x="640" y="714" name="top"/>
  <outline>
    <contour>
      <point x="505" y="0" type="line"/>
      <point x="726" y="0" type="line"/>
      <point x="928" y="561" type="line"/>
      <point x="942" y="551"/>
      <point x="964" y="541"/>
      <point x="992" y="541" type="curve" smooth="yes"/>
      <point x="1023" y="541"/>
      <point x="1048" y="548"/>
      <point x="1084" y="564" type="curve" smooth="yes"/>
      <point x="1107" y="574"/>
      <point x="1125" y="582"/>
      <point x="1148" y="582" type="curve" smooth="yes"/>
      <point x="1182" y="582"/>
      <point x="1208" y="562"/>
      <point x="1208" y="525" type="curve" smooth="yes"/>
      <point x="1208" y="491"/>
      <point x="1186" y="466"/>
      <point x="1148" y="466" type="curve" smooth="yes"/>
      <point x="1112" y="466"/>
      <point x="1090" y="490"/>
      <point x="1082" y="525" type="curve"/>
      <point x="959" y="485" type="line"/>
      <point x="978" y="398"/>
      <point x="1042" y="338"/>
      <point x="1147" y="338" type="curve" smooth="yes"/>
      <point x="1284" y="338"/>
      <point x="1364" y="422"/>
      <point x="1364" y="529" type="curve" smooth="yes"/>
      <point x="1364" y="637"/>
      <point x="1296" y="713"/>
      <point x="1168" y="713" type="curve" smooth="yes"/>
      <point x="1121" y="713"/>
      <point x="1087" y="701"/>
      <point x="1052" y="686" type="curve" smooth="yes"/>
      <point x="1024" y="674"/>
      <point x="1007" y="669"/>
      <point x="986" y="669" type="curve" smooth="yes"/>
      <point x="969" y="669"/>
      <point x="960" y="677"/>
      <point x="956" y="685" type="curve"/>
      <point x="956" y="714" type="line"/>
      <point x="780" y="714" type="line"/>
      <point x="780" y="695" type="line"/>
      <point x="774" y="659"/>
      <point x="763" y="630"/>
      <point x="746" y="576" type="curve" smooth="yes"/>
      <point x="662" y="311" type="line" smooth="yes"/>
      <point x="647" y="263"/>
      <point x="631" y="203"/>
      <point x="624" y="169" type="curve"/>
      <point x="621" y="169" type="line"/>
      <point x="615" y="203"/>
      <point x="602" y="269"/>
      <point x="591" y="315" type="curve" smooth="yes"/>
      <point x="497" y="714" type="line"/>
      <point x="311" y="714" type="line"/>
      <point x="381" y="453" type="line"/>
      <point x="370" y="368"/>
      <point x="326" y="262"/>
      <point x="229" y="262" type="curve" smooth="yes"/>
      <point x="187" y="262"/>
      <point x="162" y="283"/>
      <point x="162" y="319" type="curve" smooth="yes"/>
      <point x="162" y="348"/>
      <point x="181" y="365"/>
      <point x="201" y="365" type="curve" smooth="yes"/>
      <point x="207" y="365"/>
      <point x="211" y="364"/>
      <point x="215" y="363" type="curve"/>
      <point x="209" y="392" type="line"/>
      <point x="197" y="389"/>
      <point x="191" y="376"/>
      <point x="191" y="364" type="curve" smooth="yes"/>
      <point x="191" y="333"/>
      <point x="211" y="314"/>
      <point x="245" y="314" type="curve" smooth="yes"/>
      <point x="291" y="314"/>
      <point x="314" y="344"/>
      <point x="314" y="388" type="curve" smooth="yes"/>
      <point x="314" y="449"/>
      <point x="271" y="484"/>
      <point x="198" y="484" type="curve" smooth="yes"/>
      <point x="91" y="484"/>
      <point x="20" y="413"/>
      <point x="20" y="309" type="curve" smooth="yes"/>
      <point x="20" y="200"/>
      <point x="81" y="127"/>
      <point x="214" y="127" type="curve" smooth="yes"/>
      <point x="333" y="127"/>
      <point x="404" y="202"/>
      <point x="433" y="258" type="curve"/>
      <point x="435" y="258" type="line"/>
    </contour>
  </outline>
</glyph>
<glyph name="uni13CA" format="2">
  <advance width="1162"/>
  <unicode hex="13CA"/>
  <note>
uni13CA
</note>
  <anchor x="528" y="0" name="bottom"/>
  <anchor x="735" y="714" name="top"/>
  <outline>
    <contour>
      <point x="295" y="-11" type="curve" smooth="yes"/>
      <point x="417" y="-11"/>
      <point x="488" y="50"/>
      <point x="524" y="117" type="curve"/>
      <point x="526" y="117" type="line"/>
      <point x="553" y="54"/>
      <point x="620" y="-11"/>
      <point x="763" y="-11" type="curve" smooth="yes"/>
      <point x="956" y="-11"/>
      <point x="1112" y="119"/>
      <point x="1112" y="354" type="curve" smooth="yes"/>
      <point x="1112" y="565"/>
      <point x="999" y="725"/>
      <point x="724" y="725" type="curve" smooth="yes"/>
      <point x="556" y="725"/>
      <point x="455" y="659"/>
      <point x="407" y="602" type="curve"/>
      <point x="512" y="487" type="line"/>
      <point x="547" y="530"/>
      <point x="611" y="572"/>
      <point x="705" y="572" type="curve" smooth="yes"/>
      <point x="852" y="572"/>
      <point x="922" y="484"/>
      <point x="922" y="350" type="curve" smooth="yes"/>
      <point x="922" y="200"/>
      <point x="847" y="139"/>
      <point x="752" y="139" type="curve" smooth="yes"/>
      <point x="656" y="139"/>
      <point x="620" y="196"/>
      <point x="620" y="252" type="curve" smooth="yes"/>
      <point x="620" y="300"/>
      <point x="638" y="322"/>
      <point x="665" y="322" type="curve" smooth="yes"/>
      <point x="675" y="322"/>
      <point x="684" y="318"/>
      <point x="689" y="314" type="curve"/>
      <point x="671" y="353" type="line"/>
      <point x="657" y="347"/>
      <point x="648" y="333"/>
      <point x="648" y="312" type="curve" smooth="yes"/>
      <point x="648" y="278"/>
      <point x="667" y="249"/>
      <point x="714" y="249" type="curve" smooth="yes"/>
      <point x="762" y="249"/>
      <point x="790" y="284"/>
      <point x="790" y="335" type="curve" smooth="yes"/>
      <point x="790" y="395"/>
      <point x="750" y="447"/>
      <point x="657" y="447" type="curve" smooth="yes"/>
      <point x="561" y="447"/>
      <point x="495" y="406"/>
      <point x="458" y="276" type="curve" smooth="yes"/>
      <point x="426" y="164"/>
      <point x="382" y="138"/>
      <point x="321" y="138" type="curve" smooth="yes"/>
      <point x="257" y="138"/>
      <point x="219" y="182"/>
      <point x="219" y="262" type="curve" smooth="yes"/>
      <point x="219" y="321"/>
      <point x="234" y="357"/>
      <point x="250" y="391" type="curve"/>
      <point x="91" y="404" type="line"/>
      <point x="65" y="367"/>
      <point x="45" y="307"/>
      <point x="45" y="238" type="curve" smooth="yes"/>
      <point x="45" y="82"/>
      <point x="138" y="-11"/>
    </contour>
  </outline>
</glyph>
<glyph name="uni13CB" format="2">
  <advance width="674"/>
  <unicode hex="13CB"/>
  <note>
uni13CB
</note>
  <anchor x="337" y="0" name="bottom"/>
  <anchor x="337" y="714" name="top"/>
  <outline>
    <contour>
      <point x="357" y="-14" type="curve" smooth="yes"/>
      <point x="526" y="-14"/>
      <point x="629" y="52"/>
      <point x="629" y="175" type="curve" smooth="yes"/>
      <point x="629" y="292"/>
      <point x="542" y="329"/>
      <point x="412" y="329" type="curve" smooth="yes"/>
      <point x="396" y="329" type="line"/>
      <point x="396" y="215" type="line"/>
      <point x="412" y="215" type="line" smooth="yes"/>
      <point x="450" y="215"/>
      <point x="481" y="208"/>
      <point x="481" y="177" type="curve" smooth="yes"/>
      <point x="481" y="144"/>
      <point x="446" y="122"/>
      <point x="371" y="122" type="curve" smooth="yes"/>
      <point x="297" y="122"/>
      <point x="246" y="162"/>
      <point x="246" y="243" type="curve" smooth="yes"/>
      <point x="246" y="319"/>
      <point x="305" y="360"/>
      <point x="391" y="360" type="curve" smooth="yes"/>
      <point x="490" y="360" type="line"/>
      <point x="490" y="483" type="line"/>
      <point x="387" y="483" type="line" smooth="yes"/>
      <point x="312" y="483"/>
      <point x="287" y="504"/>
      <point x="287" y="537" type="curve" smooth="yes"/>
      <point x="287" y="575"/>
      <point x="317" y="594"/>
      <point x="388" y="594" type="curve" smooth="yes"/>
      <point x="453" y="594"/>
      <point x="480" y="583"/>
      <point x="518" y="567" type="curve"/>
      <point x="560" y="686" type="line"/>
      <point x="518" y="705"/>
      <point x="444" y="723"/>
      <point x="357" y="723" type="curve" smooth="yes"/>
      <point x="189" y="723"/>
      <point x="101" y="659"/>
      <point x="101" y="557" type="curve" smooth="yes"/>
      <point x="101" y="483"/>
      <point x="140" y="440"/>
      <point x="216" y="421" type="curve"/>
      <point x="216" y="420" type="line"/>
      <point x="151" y="406"/>
      <point x="60" y="354"/>
      <point x="60" y="218" type="curve" smooth="yes"/>
      <point x="60" y="66"/>
      <point x="159" y="-14"/>
    </contour>
  </outline>
</glyph>
<glyph name="uni13CC" format="2">
  <advance width="824"/>
  <unicode hex="13CC"/>
  <note>
uni13CC
</note>
  <anchor x="412" y="0" name="bottom"/>
  <anchor x="412" y="714" name="top"/>
  <outline>
    <contour>
      <point x="409" y="-10" type="curve" smooth="yes"/>
      <point x="615" y="-10"/>
      <point x="717" y="91"/>
      <point x="717" y="251" type="curve" smooth="yes"/>
      <point x="717" y="594" type="line"/>
      <point x="784" y="602" type="line"/>
      <point x="784" y="714" type="line"/>
      <point x="457" y="714" type="line"/>
      <point x="457" y="602" type="line"/>
      <point x="524" y="594" type="line"/>
      <point x="524" y="438" type="line"/>
      <point x="300" y="438" type="line"/>
      <point x="300" y="594" type="line"/>
      <point x="368" y="602" type="line"/>
      <point x="368" y="714" type="line"/>
      <point x="40" y="714" type="line"/>
      <point x="40" y="602" type="line"/>
      <point x="106" y="594" type="line"/>
      <point x="106" y="247" type="line" smooth="yes"/>
      <point x="106" y="82"/>
      <point x="212" y="-10"/>
    </contour>
    <contour>
      <point x="412" y="131" type="curve" smooth="yes"/>
      <point x="338" y="131"/>
      <point x="300" y="161"/>
      <point x="300" y="242" type="curve" smooth="yes"/>
      <point x="300" y="318" type="line"/>
      <point x="524" y="318" type="line"/>
      <point x="524" y="243" type="line" smooth="yes"/>
      <point x="524" y="161"/>
      <point x="491" y="131"/>
    </contour>
  </outline>
</glyph>
<glyph name="uni13CD" format="2">
  <advance width="1187"/>
  <unicode hex="13CD"/>
  <note>
uni13CD
</note>
  <anchor x="594" y="0" name="bottom"/>
  <anchor x="701" y="714" name="top"/>
  <outline>
    <contour>
      <point x="275" y="-12" type="curve" smooth="yes"/>
      <point x="389" y="-12"/>
      <point x="475" y="53"/>
      <point x="499" y="162" type="curve"/>
      <point x="603" y="213" type="line"/>
      <point x="603" y="203" type="line" smooth="yes"/>
      <point x="603" y="92"/>
      <point x="656" y="-11"/>
      <point x="838" y="-11" type="curve" smooth="yes"/>
      <point x="1031" y="-11"/>
      <point x="1137" y="123"/>
      <point x="1137" y="333" type="curve" smooth="yes"/>
      <point x="1137" y="550"/>
      <point x="1016" y="725"/>
      <point x="694" y="725" type="curve" smooth="yes"/>
      <point x="500" y="725"/>
      <point x="382" y="669"/>
      <point x="319" y="623" type="curve"/>
      <point x="399" y="493" type="line"/>
      <point x="446" y="530"/>
      <point x="540" y="575"/>
      <point x="675" y="575" type="curve" smooth="yes"/>
      <point x="851" y="575"/>
      <point x="936" y="487"/>
      <point x="936" y="322" type="curve" smooth="yes"/>
      <point x="936" y="178"/>
      <point x="904" y="132"/>
      <point x="855" y="132" type="curve" smooth="yes"/>
      <point x="812" y="132"/>
      <point x="796" y="165"/>
      <point x="796" y="218" type="curve" smooth="yes"/>
      <point x="796" y="343" type="line"/>
      <point x="851" y="350" type="line"/>
      <point x="851" y="462" type="line"/>
      <point x="545" y="462" type="line"/>
      <point x="545" y="350" type="line"/>
      <point x="603" y="342" type="line"/>
      <point x="603" y="327" type="line"/>
      <point x="502" y="278" type="line"/>
      <point x="484" y="389"/>
      <point x="404" y="455"/>
      <point x="275" y="455" type="curve" smooth="yes"/>
      <point x="140" y="455"/>
      <point x="45" y="371"/>
      <point x="45" y="220" type="curve" smooth="yes"/>
      <point x="45" y="71"/>
      <point x="137" y="-12"/>
    </contour>
    <contour>
      <point x="275" y="123" type="curve" smooth="yes"/>
      <point x="241" y="123"/>
      <point x="216" y="156"/>
      <point x="216" y="223" type="curve" smooth="yes"/>
      <point x="216" y="288"/>
      <point x="241" y="320"/>
      <point x="275" y="320" type="curve" smooth="yes"/>
      <point x="310" y="320"/>
      <point x="335" y="292"/>
      <point x="335" y="225" type="curve" smooth="yes"/>
      <point x="335" y="159"/>
      <point x="310" y="123"/>
    </contour>
  </outline>
</glyph>
<glyph name="uni13CE" format="2">
  <advance width="619"/>
  <unicode hex="13CE"/>
  <note>
uni13CE
</note>
  <anchor x="400" y="0" name="bottom"/>
  <anchor x="394" y="714" name="top"/>
  <outline>
    <contour>
      <point x="245" y="0" type="line"/>
      <point x="561" y="0" type="line"/>
      <point x="561" y="112" type="line"/>
      <point x="500" y="119" type="line"/>
      <point x="500" y="166" type="line"/>
      <point x="589" y="166" type="line"/>
      <point x="589" y="300" type="line"/>
      <point x="500" y="300" type="line"/>
      <point x="500" y="714" type="line"/>
      <point x="308" y="714" type="line"/>
      <point x="15" y="298" type="line"/>
      <point x="15" y="166" type="line"/>
      <point x="310" y="166" type="line"/>
      <point x="310" y="120" type="line"/>
      <point x="245" y="112" type="line"/>
    </contour>
    <contour>
      <point x="182" y="300" type="line"/>
      <point x="270" y="430" type="line"/>
      <point x="308" y="493" type="line"/>
      <point x="313" y="493" type="line"/>
      <point x="310" y="382" type="line"/>
      <point x="310" y="300" type="line"/>
    </contour>
  </outline>
</glyph>
<glyph name="uni13CF" format="2">
  <advance width="716"/>
  <unicode hex="13CF"/>
  <note>
uni13CF
</note>
  <anchor x="358" y="0" name="bottom"/>
  <anchor x="216" y="714" name="top"/>
  <outline>
    <contour>
      <point x="55" y="0" type="line"/>
      <point x="388" y="0" type="line" smooth="yes"/>
      <point x="569" y="0"/>
      <point x="676" y="89"/>
      <point x="676" y="239" type="curve" smooth="yes"/>
      <point x="676" y="369"/>
      <point x="591" y="456"/>
      <point x="408" y="456" type="curve" smooth="yes"/>
      <point x="314" y="456" type="line"/>
      <point x="314" y="594" type="line"/>
      <point x="379" y="602" type="line"/>
      <point x="379" y="714" type="line"/>
      <point x="55" y="714" type="line"/>
      <point x="55" y="602" type="line"/>
      <point x="121" y="594" type="line"/>
      <point x="121" y="120" type="line"/>
      <point x="55" y="112" type="line"/>
    </contour>
    <contour>
      <point x="314" y="135" type="line"/>
      <point x="314" y="321" type="line"/>
      <point x="389" y="321" type="line" smooth="yes"/>
      <point x="445" y="321"/>
      <point x="483" y="294"/>
      <point x="483" y="230" type="curve" smooth="yes"/>
      <point x="483" y="163"/>
      <point x="449" y="135"/>
      <point x="385" y="135" type="curve" smooth="yes"/>
    </contour>
  </outline>
</glyph>
<glyph name="uni13D0" format="2">
  <advance width="733"/>
  <unicode hex="13D0"/>
  <note>
uni13D0
</note>
  <anchor x="367" y="0" name="bottom"/>
  <anchor x="367" y="714" name="top"/>
  <outline>
    <contour>
      <point x="196" y="0" type="line"/>
      <point x="536" y="0" type="line"/>
      <point x="536" y="112" type="line"/>
      <point x="463" y="119" type="line"/>
      <point x="463" y="595" type="line"/>
      <point x="536" y="602" type="line"/>
      <point x="536" y="714" type="line"/>
      <point x="196" y="714" type="line"/>
      <point x="196" y="602" type="line"/>
      <point x="269" y="593" type="line"/>
      <point x="269" y="121" type="line"/>
      <point x="196" y="112" type="line"/>
    </contour>
    <contour>
      <point x="184" y="225" type="curve" smooth="yes"/>
      <point x="242" y="225"/>
      <point x="293" y="248"/>
      <point x="320" y="272" type="curve"/>
      <point x="320" y="404" type="line"/>
      <point x="289" y="371"/>
      <point x="248" y="347"/>
      <point x="205" y="347" type="curve" smooth="yes"/>
      <point x="166" y="347"/>
      <point x="154" y="363"/>
      <point x="154" y="390" type="curve" smooth="yes"/>
      <point x="154" y="394"/>
      <point x="155" y="401"/>
      <point x="156" y="405" type="curve"/>
      <point x="118" y="371" type="line"/>
      <point x="124" y="361"/>
      <point x="137" y="356"/>
      <point x="149" y="356" type="curve" smooth="yes"/>
      <point x="183" y="356"/>
      <point x="205" y="377"/>
      <point x="205" y="414" type="curve" smooth="yes"/>
      <point x="205" y="457"/>
      <point x="173" y="486"/>
      <point x="122" y="486" type="curve" smooth="yes"/>
      <point x="57" y="486"/>
      <point x="20" y="440"/>
      <point x="20" y="375" type="curve" smooth="yes"/>
      <point x="20" y="283"/>
      <point x="74" y="225"/>
    </contour>
    <contour>
      <point x="611" y="230" type="curve" smooth="yes"/>
      <point x="676" y="230"/>
      <point x="713" y="276"/>
      <point x="713" y="341" type="curve" smooth="yes"/>
      <point x="713" y="433"/>
      <point x="659" y="491"/>
      <point x="549" y="491" type="curve" smooth="yes"/>
      <point x="491" y="491"/>
      <point x="440" y="468"/>
      <point x="414" y="444" type="curve"/>
      <point x="414" y="312" type="line"/>
      <point x="444" y="345"/>
      <point x="485" y="369"/>
      <point x="528" y="369" type="curve" smooth="yes"/>
      <point x="567" y="369"/>
      <point x="579" y="353"/>
      <point x="579" y="326" type="curve" smooth="yes"/>
      <point x="579" y="322"/>
      <point x="578" y="315"/>
      <point x="577" y="311" type="curve"/>
      <point x="615" y="345" type="line"/>
      <point x="609" y="355"/>
      <point x="596" y="360"/>
      <point x="584" y="360" type="curve" smooth="yes"/>
      <point x="550" y="360"/>
      <point x="528" y="339"/>
      <point x="528" y="302" type="curve" smooth="yes"/>
      <point x="528" y="259"/>
      <point x="560" y="230"/>
    </contour>
  </outline>
</glyph>
<glyph name="uni13D1" format="2">
  <advance width="959"/>
  <unicode hex="13D1"/>
  <note>
uni13D1
</note>
  <anchor x="448" y="0" name="bottom"/>
  <anchor x="480" y="714" name="top"/>
  <outline>
    <contour>
      <point x="452" y="-8" type="curve" smooth="yes"/>
      <point x="568" y="-8"/>
      <point x="652" y="67"/>
      <point x="652" y="177" type="curve" smooth="yes"/>
      <point x="652" y="272"/>
      <point x="597" y="339"/>
      <point x="461" y="339" type="curve" smooth="yes"/>
      <point x="420" y="339" type="line"/>
      <point x="423" y="355"/>
      <point x="428" y="371"/>
      <point x="432" y="385" type="curve"/>
      <point x="589" y="432"/>
      <point x="636" y="546"/>
      <point x="713" y="546" type="curve" smooth="yes"/>
      <point x="747" y="546"/>
      <point x="766" y="530"/>
      <point x="766" y="502" type="curve" smooth="yes"/>
      <point x="766" y="464"/>
      <point x="735" y="445"/>
      <point x="692" y="445" type="curve"/>
      <point x="692" y="324" type="line"/>
      <point x="840" y="324"/>
      <point x="931" y="389"/>
      <point x="931" y="518" type="curve" smooth="yes"/>
      <point x="931" y="629"/>
      <point x="861" y="698"/>
      <point x="733" y="698" type="curve" smooth="yes"/>
      <point x="562" y="698"/>
      <point x="512" y="586"/>
      <point x="454" y="546" type="curve"/>
      <point x="454" y="548"/>
      <point x="454" y="550"/>
      <point x="454" y="553" type="curve" smooth="yes"/>
      <point x="454" y="640"/>
      <point x="397" y="725"/>
      <point x="252" y="725" type="curve" smooth="yes"/>
      <point x="123" y="725"/>
      <point x="34" y="661"/>
      <point x="34" y="542" type="curve" smooth="yes"/>
      <point x="34" y="438"/>
      <point x="100" y="365"/>
      <point x="226" y="365" type="curve" smooth="yes"/>
      <point x="237" y="365"/>
      <point x="247" y="365"/>
      <point x="256" y="366" type="curve"/>
      <point x="243" y="318"/>
      <point x="228" y="256"/>
      <point x="228" y="196" type="curve" smooth="yes"/>
      <point x="228" y="57"/>
      <point x="308" y="-8"/>
    </contour>
    <contour>
      <point x="451" y="115" type="curve" smooth="yes"/>
      <point x="420" y="115"/>
      <point x="399" y="133"/>
      <point x="399" y="187" type="curve" smooth="yes"/>
      <point x="399" y="200"/>
      <point x="399" y="212"/>
      <point x="400" y="223" type="curve"/>
      <point x="438" y="223" type="line" smooth="yes"/>
      <point x="469" y="223"/>
      <point x="502" y="211"/>
      <point x="502" y="170" type="curve" smooth="yes"/>
      <point x="502" y="139"/>
      <point x="481" y="115"/>
    </contour>
    <contour>
      <point x="250" y="493" type="curve" smooth="yes"/>
      <point x="217" y="493"/>
      <point x="195" y="512"/>
      <point x="195" y="550" type="curve" smooth="yes"/>
      <point x="195" y="579"/>
      <point x="212" y="601"/>
      <point x="242" y="601" type="curve" smooth="yes"/>
      <point x="272" y="601"/>
      <point x="288" y="579"/>
      <point x="288" y="540" type="curve" smooth="yes"/>
      <point x="288" y="525"/>
      <point x="286" y="510"/>
      <point x="283" y="495" type="curve"/>
      <point x="273" y="494"/>
      <point x="261" y="493"/>
    </contour>
  </outline>
</glyph>
<glyph name="uni13D2" format="2">
  <advance width="766"/>
  <unicode hex="13D2"/>
  <note>
uni13D2
</note>
  <anchor x="383" y="0" name="bottom"/>
  <anchor x="383" y="714" name="top"/>
  <outline>
    <contour>
      <point x="55" y="0" type="line"/>
      <point x="359" y="0" type="line"/>
      <point x="359" y="112" type="line"/>
      <point x="311" y="118" type="line"/>
      <point x="311" y="580" type="line"/>
      <point x="401" y="580" type="line" smooth="yes"/>
      <point x="475" y="580"/>
      <point x="536" y="546"/>
      <point x="536" y="464" type="curve" smooth="yes"/>
      <point x="536" y="427"/>
      <point x="529" y="400"/>
      <point x="516" y="381" type="curve"/>
      <point x="492" y="425" type="line"/>
      <point x="324" y="425" type="line"/>
      <point x="472" y="118" type="line"/>
      <point x="423" y="112" type="line"/>
      <point x="423" y="0" type="line"/>
      <point x="726" y="0" type="line"/>
      <point x="726" y="112" type="line"/>
      <point x="659" y="120" type="line"/>
      <point x="576" y="271" type="line"/>
      <point x="656" y="307"/>
      <point x="715" y="373"/>
      <point x="715" y="480" type="curve" smooth="yes"/>
      <point x="715" y="644"/>
      <point x="611" y="714"/>
      <point x="425" y="714" type="curve" smooth="yes"/>
      <point x="55" y="714" type="line"/>
      <point x="55" y="602" type="line"/>
      <point x="118" y="595" type="line"/>
      <point x="118" y="119" type="line"/>
      <point x="55" y="112" type="line"/>
    </contour>
  </outline>
</glyph>
<glyph name="uni13D3" format="2">
  <advance width="732"/>
  <unicode hex="13D3"/>
  <note>
uni13D3
</note>
  <anchor x="400" y="0" name="bottom"/>
  <anchor x="200" y="714" name="top"/>
  <outline>
    <contour>
      <point x="402" y="-11" type="curve" smooth="yes"/>
      <point x="590" y="-11"/>
      <point x="688" y="103"/>
      <point x="688" y="270" type="curve" smooth="yes"/>
      <point x="688" y="384"/>
      <point x="635" y="472"/>
      <point x="508" y="472" type="curve" smooth="yes"/>
      <point x="400" y="472"/>
      <point x="338" y="406"/>
      <point x="338" y="289" type="curve" smooth="yes"/>
      <point x="338" y="268"/>
      <point x="340" y="231"/>
      <point x="342" y="217" type="curve"/>
      <point x="478" y="217" type="line"/>
      <point x="477" y="228"/>
      <point x="476" y="246"/>
      <point x="476" y="276" type="curve" smooth="yes"/>
      <point x="476" y="317"/>
      <point x="489" y="334"/>
      <point x="508" y="334" type="curve" smooth="yes"/>
      <point x="526" y="334"/>
      <point x="538" y="310"/>
      <point x="538" y="252" type="curve" smooth="yes"/>
      <point x="538" y="160"/>
      <point x="495" y="121"/>
      <point x="428" y="121" type="curve" smooth="yes"/>
      <point x="334" y="121"/>
      <point x="298" y="173"/>
      <point x="298" y="285" type="curve" smooth="yes"/>
      <point x="298" y="593" type="line"/>
      <point x="371" y="602" type="line"/>
      <point x="371" y="714" type="line"/>
      <point x="40" y="714" type="line"/>
      <point x="40" y="602" type="line"/>
      <point x="107" y="594" type="line"/>
      <point x="107" y="296" type="line" smooth="yes"/>
      <point x="107" y="84"/>
      <point x="207" y="-11"/>
    </contour>
  </outline>
</glyph>
<glyph name="uni13D4" format="2">
  <advance width="1182"/>
  <unicode hex="13D4"/>
  <note>
uni13D4
</note>
  <anchor x="591" y="0" name="bottom"/>
  <anchor x="591" y="714" name="top"/>
  <outline>
    <contour>
      <point x="232" y="0" type="line"/>
      <point x="487" y="0" type="line"/>
      <point x="564" y="216" type="line"/>
      <point x="626" y="0" type="line"/>
      <point x="876" y="0" type="line"/>
      <point x="1169" y="714" type="line"/>
      <point x="960" y="714" type="line"/>
      <point x="786" y="263" type="line" smooth="yes"/>
      <point x="772" y="227"/>
      <point x="756" y="176"/>
      <point x="742" y="133" type="curve"/>
      <point x="740" y="133" type="line"/>
      <point x="729" y="177"/>
      <point x="711" y="249"/>
      <point x="700" y="286" type="curve" smooth="yes"/>
      <point x="672" y="378" type="line"/>
      <point x="816" y="714" type="line"/>
      <point x="632" y="714" type="line"/>
      <point x="572" y="543" type="line"/>
      <point x="529" y="714" type="line"/>
      <point x="351" y="714" type="line"/>
      <point x="469" y="369" type="line"/>
      <point x="438" y="284" type="line" smooth="yes"/>
      <point x="425" y="247"/>
      <point x="403" y="179"/>
      <point x="389" y="134" type="curve"/>
      <point x="387" y="134" type="line"/>
      <point x="375" y="185"/>
      <point x="355" y="255"/>
      <point x="345" y="292" type="curve" smooth="yes"/>
      <point x="227" y="714" type="line"/>
      <point x="8" y="714" type="line"/>
    </contour>
  </outline>
</glyph>
<glyph name="uni13D5" format="2">
  <advance width="701"/>
  <unicode hex="13D5"/>
  <note>
uni13D5
</note>
  <anchor x="303" y="0" name="bottom"/>
  <anchor x="327" y="714" name="top"/>
  <outline>
    <contour>
      <point x="279" y="-10" type="curve" smooth="yes"/>
      <point x="439" y="-10"/>
      <point x="528" y="59"/>
      <point x="557" y="146" type="curve"/>
      <point x="673" y="146" type="line"/>
      <point x="673" y="270" type="line"/>
      <point x="565" y="270" type="line"/>
      <point x="550" y="349"/>
      <point x="496" y="389"/>
      <point x="375" y="431" type="curve" smooth="yes"/>
      <point x="278" y="465"/>
      <point x="237" y="481"/>
      <point x="237" y="533" type="curve" smooth="yes"/>
      <point x="237" y="575"/>
      <point x="266" y="602"/>
      <point x="316" y="602" type="curve" smooth="yes"/>
      <point x="372" y="602"/>
      <point x="399" y="575"/>
      <point x="399" y="520" type="curve" smooth="yes"/>
      <point x="399" y="491" type="line"/>
      <point x="673" y="491" type="line"/>
      <point x="673" y="615" type="line"/>
      <point x="566" y="615" type="line"/>
      <point x="529" y="689"/>
      <point x="450" y="724"/>
      <point x="330" y="724" type="curve" smooth="yes"/>
      <point x="158" y="724"/>
      <point x="50" y="653"/>
      <point x="50" y="515" type="curve" smooth="yes"/>
      <point x="50" y="389"/>
      <point x="117" y="340"/>
      <point x="236" y="297" type="curve" smooth="yes"/>
      <point x="348" y="256"/>
      <point x="382" y="239"/>
      <point x="382" y="188" type="curve" smooth="yes"/>
      <point x="382" y="146"/>
      <point x="348" y="117"/>
      <point x="281" y="117" type="curve" smooth="yes"/>
      <point x="237" y="117"/>
      <point x="195" y="129"/>
      <point x="167" y="145" type="curve"/>
      <point x="157" y="239" type="line"/>
      <point x="50" y="239" type="line"/>
      <point x="50" y="39" type="line"/>
      <point x="110" y="11"/>
      <point x="176" y="-10"/>
    </contour>
  </outline>
</glyph>
<glyph name="uni13D6" format="2">
  <advance width="870"/>
  <unicode hex="13D6"/>
  <note>
uni13D6
</note>
  <anchor x="546" y="0" name="bottom"/>
  <anchor x="377" y="714" name="top"/>
  <outline>
    <contour>
      <point x="538" y="-9" type="curve" smooth="yes"/>
      <point x="708" y="-9"/>
      <point x="810" y="79"/>
      <point x="810" y="228" type="curve" smooth="yes"/>
      <point x="810" y="366"/>
      <point x="728" y="437"/>
      <point x="604" y="437" type="curve" smooth="yes"/>
      <point x="522" y="437"/>
      <point x="479" y="405"/>
      <point x="463" y="388" type="curve"/>
      <point x="460" y="388" type="line"/>
      <point x="462" y="412"/>
      <point x="462" y="431"/>
      <point x="462" y="456" type="curve" smooth="yes"/>
      <point x="462" y="579" type="line"/>
      <point x="688" y="579" type="line"/>
      <point x="688" y="714" type="line"/>
      <point x="40" y="714" type="line"/>
      <point x="40" y="470" type="line"/>
      <point x="142" y="470" type="line"/>
      <point x="156" y="579" type="line"/>
      <point x="269" y="579" type="line"/>
      <point x="269" y="268" type="line" smooth="yes"/>
      <point x="269" y="75"/>
      <point x="363" y="-9"/>
    </contour>
    <contour>
      <point x="542" y="123" type="curve" smooth="yes"/>
      <point x="492" y="123"/>
      <point x="464" y="155"/>
      <point x="464" y="214" type="curve" smooth="yes"/>
      <point x="464" y="271"/>
      <point x="491" y="306"/>
      <point x="546" y="306" type="curve" smooth="yes"/>
      <point x="598" y="306"/>
      <point x="623" y="269"/>
      <point x="623" y="215" type="curve" smooth="yes"/>
      <point x="623" y="158"/>
      <point x="592" y="123"/>
    </contour>
  </outline>
</glyph>
<glyph name="uni13D7" format="2">
  <advance width="771"/>
  <unicode hex="13D7"/>
  <note>
uni13D7
</note>
  <anchor x="386" y="0" name="bottom"/>
  <anchor x="547" y="714" name="top"/>
  <outline>
    <contour>
      <point x="179" y="-10" type="curve" smooth="yes"/>
      <point x="305" y="-10"/>
      <point x="403" y="91"/>
      <point x="456" y="186" type="curve"/>
      <point x="458" y="186" type="line"/>
      <point x="456" y="158"/>
      <point x="456" y="128"/>
      <point x="456" y="100" type="curve" smooth="yes"/>
      <point x="456" y="0" type="line"/>
      <point x="716" y="0" type="line"/>
      <point x="716" y="112" type="line"/>
      <point x="649" y="120" type="line"/>
      <point x="649" y="594" type="line"/>
      <point x="716" y="602" type="line"/>
      <point x="716" y="714" type="line"/>
      <point x="388" y="714" type="line"/>
      <point x="388" y="602" type="line"/>
      <point x="456" y="594" type="line"/>
      <point x="456" y="529" type="line" smooth="yes"/>
      <point x="456" y="385"/>
      <point x="326" y="147"/>
      <point x="204" y="147" type="curve" smooth="yes"/>
      <point x="197" y="147"/>
      <point x="192" y="148"/>
      <point x="188" y="149" type="curve"/>
      <point x="191" y="154"/>
      <point x="195" y="166"/>
      <point x="195" y="179" type="curve" smooth="yes"/>
      <point x="195" y="211"/>
      <point x="171" y="245"/>
      <point x="115" y="245" type="curve" smooth="yes"/>
      <point x="51" y="245"/>
      <point x="11" y="200"/>
      <point x="11" y="134" type="curve" smooth="yes"/>
      <point x="11" y="45"/>
      <point x="66" y="-10"/>
    </contour>
  </outline>
</glyph>
<glyph name="uni13D8" format="2">
  <advance width="823"/>
  <unicode hex="13D8"/>
  <note>
uni13D8
</note>
  <anchor x="412" y="0" name="bottom"/>
  <anchor x="493" y="714" name="top"/>
  <outline>
    <contour>
      <point x="179" y="-10" type="curve" smooth="yes"/>
      <point x="305" y="-10"/>
      <point x="403" y="91"/>
      <point x="456" y="186" type="curve"/>
      <point x="458" y="186" type="line"/>
      <point x="456" y="158"/>
      <point x="456" y="128"/>
      <point x="456" y="100" type="curve" smooth="yes"/>
      <point x="456" y="0" type="line"/>
      <point x="649" y="0" type="line"/>
      <point x="649" y="582" type="line"/>
      <point x="775" y="582" type="line"/>
      <point x="775" y="714" type="line"/>
      <point x="176" y="714" type="line"/>
      <point x="176" y="485" type="line"/>
      <point x="283" y="485" type="line"/>
      <point x="291" y="582" type="line"/>
      <point x="456" y="582" type="line"/>
      <point x="456" y="529" type="line" smooth="yes"/>
      <point x="456" y="385"/>
      <point x="326" y="147"/>
      <point x="204" y="147" type="curve" smooth="yes"/>
      <point x="197" y="147"/>
      <point x="192" y="148"/>
      <point x="188" y="149" type="curve"/>
      <point x="191" y="154"/>
      <point x="195" y="166"/>
      <point x="195" y="179" type="curve" smooth="yes"/>
      <point x="195" y="211"/>
      <point x="171" y="245"/>
      <point x="115" y="245" type="curve" smooth="yes"/>
      <point x="51" y="245"/>
      <point x="11" y="200"/>
      <point x="11" y="134" type="curve" smooth="yes"/>
      <point x="11" y="45"/>
      <point x="66" y="-10"/>
    </contour>
  </outline>
</glyph>
<glyph name="uni13D9" format="2">
  <advance width="778"/>
  <unicode hex="13D9"/>
  <note>
uni13D9
</note>
  <anchor x="389" y="0" name="bottom"/>
  <anchor x="389" y="714" name="top"/>
  <outline>
    <contour>
      <point x="234" y="0" type="line"/>
      <point x="506" y="0" type="line"/>
      <point x="711" y="595" type="line"/>
      <point x="770" y="602" type="line"/>
      <point x="770" y="714" type="line"/>
      <point x="442" y="714" type="line"/>
      <point x="442" y="602" type="line"/>
      <point x="502" y="595" type="line"/>
      <point x="418" y="310" type="line" smooth="yes"/>
      <point x="408" y="277"/>
      <point x="389" y="199"/>
      <point x="381" y="155" type="curve"/>
      <point x="376" y="155" type="line"/>
      <point x="368" y="200"/>
      <point x="351" y="279"/>
      <point x="343" y="312" type="curve" smooth="yes"/>
      <point x="275" y="595" type="line"/>
      <point x="338" y="602" type="line"/>
      <point x="338" y="714" type="line"/>
      <point x="8" y="714" type="line"/>
      <point x="8" y="602" type="line"/>
      <point x="64" y="596" type="line"/>
    </contour>
  </outline>
</glyph>
<glyph name="uni13DA" format="2">
  <advance width="619"/>
  <unicode hex="13DA"/>
  <note>
uni13DA
</note>
  <anchor x="310" y="0" name="bottom"/>
  <anchor x="310" y="714" name="top"/>
  <outline>
    <contour>
      <point x="279" y="-10" type="curve" smooth="yes"/>
      <point x="481" y="-10"/>
      <point x="569" y="100"/>
      <point x="569" y="217" type="curve" smooth="yes"/>
      <point x="569" y="333"/>
      <point x="521" y="380"/>
      <point x="375" y="431" type="curve" smooth="yes"/>
      <point x="278" y="465"/>
      <point x="237" y="481"/>
      <point x="237" y="533" type="curve" smooth="yes"/>
      <point x="237" y="575"/>
      <point x="264" y="602"/>
      <point x="328" y="602" type="curve" smooth="yes"/>
      <point x="365" y="602"/>
      <point x="392" y="595"/>
      <point x="413" y="586" type="curve"/>
      <point x="424" y="485" type="line"/>
      <point x="531" y="485" type="line"/>
      <point x="531" y="687" type="line"/>
      <point x="481" y="708"/>
      <point x="417" y="724"/>
      <point x="330" y="724" type="curve" smooth="yes"/>
      <point x="158" y="724"/>
      <point x="50" y="653"/>
      <point x="50" y="515" type="curve" smooth="yes"/>
      <point x="50" y="389"/>
      <point x="117" y="340"/>
      <point x="236" y="297" type="curve" smooth="yes"/>
      <point x="348" y="256"/>
      <point x="382" y="239"/>
      <point x="382" y="188" type="curve" smooth="yes"/>
      <point x="382" y="146"/>
      <point x="348" y="117"/>
      <point x="281" y="117" type="curve" smooth="yes"/>
      <point x="237" y="117"/>
      <point x="195" y="129"/>
      <point x="167" y="145" type="curve"/>
      <point x="157" y="239" type="line"/>
      <point x="50" y="239" type="line"/>
      <point x="50" y="39" type="line"/>
      <point x="110" y="11"/>
      <point x="176" y="-10"/>
    </contour>
  </outline>
</glyph>
<glyph name="uni13DB" format="2">
  <advance width="1175"/>
  <unicode hex="13DB"/>
  <note>
uni13DB
</note>
  <anchor x="295" y="0" name="bottom"/>
  <anchor x="679" y="714" name="top"/>
  <outline>
    <contour>
      <point x="293" y="-12" type="curve" smooth="yes"/>
      <point x="443" y="-12"/>
      <point x="517" y="86"/>
      <point x="517" y="243" type="curve" smooth="yes"/>
      <point x="517" y="570" type="line"/>
      <point x="563" y="549"/>
      <point x="586" y="490"/>
      <point x="586" y="385" type="curve"/>
      <point x="790" y="385" type="line"/>
      <point x="796" y="490"/>
      <point x="824" y="577"/>
      <point x="912" y="577" type="curve" smooth="yes"/>
      <point x="952" y="577"/>
      <point x="976" y="555"/>
      <point x="976" y="520" type="curve" smooth="yes"/>
      <point x="976" y="494"/>
      <point x="959" y="474"/>
      <point x="930" y="474" type="curve" smooth="yes"/>
      <point x="913" y="474"/>
      <point x="900" y="480"/>
      <point x="892" y="487" type="curve"/>
      <point x="833" y="363" type="line"/>
      <point x="852" y="347"/>
      <point x="893" y="327"/>
      <point x="954" y="327" type="curve" smooth="yes"/>
      <point x="1073" y="327"/>
      <point x="1145" y="413"/>
      <point x="1145" y="522" type="curve" smooth="yes"/>
      <point x="1145" y="635"/>
      <point x="1070" y="725"/>
      <point x="922" y="725" type="curve" smooth="yes"/>
      <point x="777" y="725"/>
      <point x="715" y="646"/>
      <point x="693" y="585" type="curve"/>
      <point x="690" y="585" type="line"/>
      <point x="668" y="647"/>
      <point x="603" y="724"/>
      <point x="421" y="724" type="curve" smooth="yes"/>
      <point x="180" y="724"/>
      <point x="51" y="560"/>
      <point x="51" y="305" type="curve" smooth="yes"/>
      <point x="51" y="84"/>
      <point x="140" y="-12"/>
    </contour>
    <contour>
      <point x="304" y="130" type="curve" smooth="yes"/>
      <point x="270" y="130"/>
      <point x="250" y="163"/>
      <point x="250" y="293" type="curve" smooth="yes"/>
      <point x="250" y="444"/>
      <point x="280" y="543"/>
      <point x="350" y="567" type="curve"/>
      <point x="350" y="247" type="line" smooth="yes"/>
      <point x="350" y="157"/>
      <point x="331" y="130"/>
    </contour>
  </outline>
</glyph>
<glyph name="uni13DC" format="2">
  <advance width="935"/>
  <unicode hex="13DC"/>
  <note>
uni13DC
</note>
  <anchor x="468" y="0" name="bottom"/>
  <anchor x="468" y="714" name="top"/>
  <outline>
    <contour>
      <point x="245" y="-12" type="curve" smooth="yes"/>
      <point x="362" y="-12"/>
      <point x="447" y="54"/>
      <point x="447" y="163" type="curve" smooth="yes"/>
      <point x="447" y="226"/>
      <point x="416" y="273"/>
      <point x="368" y="302" type="curve"/>
      <point x="400" y="316"/>
      <point x="446" y="330"/>
      <point x="464" y="339" type="curve"/>
      <point x="482" y="331"/>
      <point x="538" y="314"/>
      <point x="566" y="302" type="curve"/>
      <point x="517" y="274"/>
      <point x="485" y="229"/>
      <point x="485" y="163" type="curve" smooth="yes"/>
      <point x="485" y="53"/>
      <point x="567" y="-12"/>
      <point x="689" y="-12" type="curve" smooth="yes"/>
      <point x="830" y="-12"/>
      <point x="903" y="63"/>
      <point x="903" y="177" type="curve" smooth="yes"/>
      <point x="903" y="260"/>
      <point x="861" y="314"/>
      <point x="788" y="349" type="curve" smooth="yes"/>
      <point x="728" y="378"/>
      <point x="649" y="397"/>
      <point x="615" y="411" type="curve"/>
      <point x="681" y="452"/>
      <point x="703" y="493"/>
      <point x="703" y="555" type="curve" smooth="yes"/>
      <point x="703" y="657"/>
      <point x="614" y="724"/>
      <point x="472" y="724" type="curve" smooth="yes"/>
      <point x="326" y="724"/>
      <point x="236" y="657"/>
      <point x="236" y="553" type="curve" smooth="yes"/>
      <point x="236" y="491"/>
      <point x="258" y="447"/>
      <point x="318" y="407" type="curve"/>
      <point x="288" y="396"/>
      <point x="209" y="377"/>
      <point x="151" y="346" type="curve" smooth="yes"/>
      <point x="73" y="304"/>
      <point x="32" y="254"/>
      <point x="32" y="165" type="curve" smooth="yes"/>
      <point x="32" y="62"/>
      <point x="105" y="-12"/>
    </contour>
    <contour>
      <point x="243" y="96" type="curve" smooth="yes"/>
      <point x="213" y="96"/>
      <point x="198" y="118"/>
      <point x="198" y="161" type="curve" smooth="yes"/>
      <point x="198" y="204"/>
      <point x="212" y="233"/>
      <point x="244" y="253" type="curve"/>
      <point x="268" y="236"/>
      <point x="285" y="202"/>
      <point x="285" y="165" type="curve" smooth="yes"/>
      <point x="285" y="120"/>
      <point x="267" y="96"/>
    </contour>
    <contour>
      <point x="691" y="96" type="curve" smooth="yes"/>
      <point x="662" y="96"/>
      <point x="646" y="121"/>
      <point x="646" y="169" type="curve" smooth="yes"/>
      <point x="646" y="205"/>
      <point x="664" y="234"/>
      <point x="691" y="253" type="curve"/>
      <point x="722" y="230"/>
      <point x="735" y="205"/>
      <point x="735" y="167" type="curve" smooth="yes"/>
      <point x="735" y="118"/>
      <point x="717" y="96"/>
    </contour>
    <contour>
      <point x="468" y="461" type="curve"/>
      <point x="419" y="494"/>
      <point x="413" y="522"/>
      <point x="413" y="551" type="curve" smooth="yes"/>
      <point x="413" y="587"/>
      <point x="434" y="611"/>
      <point x="470" y="611" type="curve" smooth="yes"/>
      <point x="501" y="611"/>
      <point x="522" y="587"/>
      <point x="522" y="553" type="curve" smooth="yes"/>
      <point x="522" y="523"/>
      <point x="518" y="495"/>
    </contour>
  </outline>
</glyph>
<glyph name="uni13DD" format="2">
  <advance width="741"/>
  <unicode hex="13DD"/>
  <note>
uni13DD
</note>
  <anchor x="382" y="0" name="bottom"/>
  <anchor x="417" y="714" name="top"/>
  <outline>
    <contour>
      <point x="40" y="0" type="line"/>
      <point x="657" y="0" type="line"/>
      <point x="657" y="229" type="line"/>
      <point x="550" y="229" type="line"/>
      <point x="542" y="132" type="line"/>
      <point x="309" y="132" type="line"/>
      <point x="309" y="440" type="line" smooth="yes"/>
      <point x="309" y="535"/>
      <point x="345" y="594"/>
      <point x="422" y="594" type="curve" smooth="yes"/>
      <point x="454" y="594"/>
      <point x="475" y="583"/>
      <point x="487" y="570" type="curve"/>
      <point x="484" y="565"/>
      <point x="482" y="557"/>
      <point x="482" y="548" type="curve" smooth="yes"/>
      <point x="482" y="490"/>
      <point x="509" y="459"/>
      <point x="570" y="459" type="curve" smooth="yes"/>
      <point x="631" y="459"/>
      <point x="667" y="497"/>
      <point x="667" y="560" type="curve" smooth="yes"/>
      <point x="667" y="656"/>
      <point x="594" y="726"/>
      <point x="424" y="726" type="curve" smooth="yes"/>
      <point x="217" y="726"/>
      <point x="116" y="616"/>
      <point x="116" y="414" type="curve" smooth="yes"/>
      <point x="116" y="121" type="line"/>
      <point x="40" y="112" type="line"/>
    </contour>
  </outline>
</glyph>
<glyph name="uni13DE" format="2">
  <advance width="678"/>
  <unicode hex="13DE"/>
  <note>
uni13DE
</note>
  <anchor x="359" y="0" name="bottom"/>
  <anchor x="224" y="714" name="top"/>
  <outline>
    <contour>
      <point x="55" y="0" type="line"/>
      <point x="654" y="0" type="line"/>
      <point x="654" y="229" type="line"/>
      <point x="547" y="229" type="line"/>
      <point x="539" y="132" type="line"/>
      <point x="324" y="132" type="line"/>
      <point x="324" y="593" type="line"/>
      <point x="400" y="602" type="line"/>
      <point x="400" y="714" type="line"/>
      <point x="55" y="714" type="line"/>
      <point x="55" y="602" type="line"/>
      <point x="131" y="593" type="line"/>
      <point x="131" y="121" type="line"/>
      <point x="55" y="112" type="line"/>
    </contour>
  </outline>
</glyph>
<glyph name="uni13DF" format="2">
  <advance width="710"/>
  <unicode hex="13DF"/>
  <note>
uni13DF
</note>
  <anchor x="395" y="0" name="bottom"/>
  <anchor x="405" y="714" name="top"/>
  <outline>
    <contour>
      <point x="390" y="-10" type="curve" smooth="yes"/>
      <point x="571" y="-10"/>
      <point x="673" y="81"/>
      <point x="681" y="220" type="curve"/>
      <point x="528" y="220" type="line"/>
      <point x="513" y="153"/>
      <point x="472" y="127"/>
      <point x="407" y="127" type="curve" smooth="yes"/>
      <point x="301" y="127"/>
      <point x="249" y="200"/>
      <point x="249" y="354" type="curve" smooth="yes"/>
      <point x="249" y="520"/>
      <point x="313" y="589"/>
      <point x="424" y="589" type="curve" smooth="yes"/>
      <point x="466" y="589"/>
      <point x="497" y="578"/>
      <point x="519" y="565" type="curve"/>
      <point x="535" y="475" type="line"/>
      <point x="652" y="475" type="line"/>
      <point x="652" y="659" type="line"/>
      <point x="589" y="704"/>
      <point x="506" y="724"/>
      <point x="407" y="724" type="curve" smooth="yes"/>
      <point x="174" y="724"/>
      <point x="51" y="571"/>
      <point x="51" y="355" type="curve" smooth="yes"/>
      <point x="51" y="118"/>
      <point x="162" y="-10"/>
    </contour>
  </outline>
</glyph>
<glyph name="uni13E0" format="2">
  <advance width="976"/>
  <unicode hex="13E0"/>
  <note>
uni13E0
</note>
  <anchor x="586" y="0" name="bottom"/>
  <anchor x="488" y="714" name="top"/>
  <outline>
    <contour>
      <point x="587" y="-9" type="curve" smooth="yes"/>
      <point x="777" y="-9"/>
      <point x="865" y="106"/>
      <point x="865" y="247" type="curve" smooth="yes"/>
      <point x="865" y="592" type="line"/>
      <point x="936" y="602" type="line"/>
      <point x="936" y="714" type="line"/>
      <point x="614" y="714" type="line"/>
      <point x="614" y="602" type="line"/>
      <point x="688" y="593" type="line"/>
      <point x="688" y="422" type="line"/>
      <point x="498" y="422" type="line"/>
      <point x="498" y="488" type="line" smooth="yes"/>
      <point x="498" y="615"/>
      <point x="420" y="698"/>
      <point x="270" y="698" type="curve" smooth="yes"/>
      <point x="114" y="698"/>
      <point x="29" y="619"/>
      <point x="29" y="494" type="curve" smooth="yes"/>
      <point x="29" y="359"/>
      <point x="121" y="280"/>
      <point x="266" y="280" type="curve" smooth="yes"/>
      <point x="321" y="280" type="line"/>
      <point x="321" y="226" type="line" smooth="yes"/>
      <point x="321" y="76"/>
      <point x="410" y="-9"/>
    </contour>
    <contour>
      <point x="285" y="422" type="line" smooth="yes"/>
      <point x="234" y="422"/>
      <point x="200" y="446"/>
      <point x="200" y="491" type="curve" smooth="yes"/>
      <point x="200" y="533"/>
      <point x="225" y="558"/>
      <point x="262" y="558" type="curve" smooth="yes"/>
      <point x="301" y="558"/>
      <point x="321" y="529"/>
      <point x="321" y="479" type="curve" smooth="yes"/>
      <point x="321" y="422" type="line"/>
    </contour>
    <contour>
      <point x="591" y="133" type="curve" smooth="yes"/>
      <point x="530" y="133"/>
      <point x="498" y="163"/>
      <point x="498" y="232" type="curve" smooth="yes"/>
      <point x="498" y="280" type="line"/>
      <point x="688" y="280" type="line"/>
      <point x="688" y="232" type="line" smooth="yes"/>
      <point x="688" y="183"/>
      <point x="669" y="133"/>
    </contour>
  </outline>
</glyph>
<glyph name="uni13E1" format="2">
  <advance width="1012"/>
  <unicode hex="13E1"/>
  <note>
uni13E1
</note>
  <anchor x="513" y="0" name="bottom"/>
  <anchor x="522" y="714" name="top"/>
  <outline>
    <contour>
      <point x="513" y="-10" type="curve" smooth="yes"/>
      <point x="670" y="-10"/>
      <point x="766" y="86"/>
      <point x="766" y="249" type="curve" smooth="yes"/>
      <point x="766" y="357"/>
      <point x="730" y="450"/>
      <point x="643" y="540" type="curve"/>
      <point x="662" y="563"/>
      <point x="685" y="583"/>
      <point x="719" y="583" type="curve" smooth="yes"/>
      <point x="761" y="583"/>
      <point x="787" y="551"/>
      <point x="787" y="481" type="curve" smooth="yes"/>
      <point x="787" y="454"/>
      <point x="785" y="432"/>
      <point x="783" y="412" type="curve"/>
      <point x="959" y="412" type="line"/>
      <point x="964" y="439"/>
      <point x="967" y="471"/>
      <point x="967" y="505" type="curve" smooth="yes"/>
      <point x="967" y="649"/>
      <point x="891" y="726"/>
      <point x="740" y="726" type="curve" smooth="yes"/>
      <point x="641" y="726"/>
      <point x="573" y="690"/>
      <point x="524" y="649" type="curve"/>
      <point x="473" y="693"/>
      <point x="409" y="726"/>
      <point x="315" y="726" type="curve" smooth="yes"/>
      <point x="168" y="726"/>
      <point x="84" y="646"/>
      <point x="64" y="532" type="curve"/>
      <point x="17" y="526" type="line"/>
      <point x="17" y="414" type="line"/>
      <point x="293" y="414" type="line"/>
      <point x="293" y="526" type="line"/>
      <point x="249" y="532" type="line"/>
      <point x="259" y="564"/>
      <point x="278" y="583"/>
      <point x="315" y="583" type="curve" smooth="yes"/>
      <point x="356" y="583"/>
      <point x="380" y="563"/>
      <point x="400" y="539" type="curve"/>
      <point x="317" y="452"/>
      <point x="276" y="345"/>
      <point x="276" y="232" type="curve" smooth="yes"/>
      <point x="276" y="77"/>
      <point x="367" y="-10"/>
    </contour>
    <contour>
      <point x="518" y="134" type="curve" smooth="yes"/>
      <point x="486" y="134"/>
      <point x="464" y="160"/>
      <point x="464" y="235" type="curve" smooth="yes"/>
      <point x="464" y="294"/>
      <point x="482" y="370"/>
      <point x="522" y="429" type="curve"/>
      <point x="559" y="375"/>
      <point x="576" y="305"/>
      <point x="576" y="239" type="curve" smooth="yes"/>
      <point x="576" y="164"/>
      <point x="556" y="134"/>
    </contour>
  </outline>
</glyph>
<glyph name="uni13E2" format="2">
  <advance width="716"/>
  <unicode hex="13E2"/>
  <note>
uni13E2
</note>
  <anchor x="221" y="0" name="bottom"/>
  <anchor x="358" y="714" name="top"/>
  <outline>
    <contour>
      <point x="55" y="0" type="line"/>
      <point x="379" y="0" type="line"/>
      <point x="379" y="112" type="line"/>
      <point x="314" y="120" type="line"/>
      <point x="314" y="258" type="line"/>
      <point x="391" y="258" type="line" smooth="yes"/>
      <point x="581" y="258"/>
      <point x="676" y="352"/>
      <point x="676" y="492" type="curve" smooth="yes"/>
      <point x="676" y="642"/>
      <point x="589" y="714"/>
      <point x="401" y="714" type="curve" smooth="yes"/>
      <point x="55" y="714" type="line"/>
      <point x="55" y="602" type="line"/>
      <point x="121" y="594" type="line"/>
      <point x="121" y="120" type="line"/>
      <point x="55" y="112" type="line"/>
    </contour>
    <contour>
      <point x="314" y="393" type="line"/>
      <point x="314" y="579" type="line"/>
      <point x="378" y="579" type="line" smooth="yes"/>
      <point x="449" y="579"/>
      <point x="483" y="549"/>
      <point x="483" y="489" type="curve" smooth="yes"/>
      <point x="483" y="425"/>
      <point x="447" y="393"/>
      <point x="383" y="393" type="curve" smooth="yes"/>
    </contour>
  </outline>
</glyph>
<glyph name="uni13E3" format="2">
  <advance width="740"/>
  <unicode hex="13E3"/>
  <note>
uni13E3
</note>
  <anchor x="385" y="0" name="bottom"/>
  <anchor x="400" y="714" name="top"/>
  <outline>
    <contour>
      <point x="390" y="-10" type="curve" smooth="yes"/>
      <point x="606" y="-10"/>
      <point x="694" y="98"/>
      <point x="694" y="208" type="curve" smooth="yes"/>
      <point x="694" y="281"/>
      <point x="653" y="322"/>
      <point x="585" y="322" type="curve" smooth="yes"/>
      <point x="514" y="322"/>
      <point x="484" y="281"/>
      <point x="484" y="239" type="curve" smooth="yes"/>
      <point x="484" y="207"/>
      <point x="499" y="186"/>
      <point x="512" y="178" type="curve"/>
      <point x="500" y="161"/>
      <point x="474" y="135"/>
      <point x="408" y="135" type="curve" smooth="yes"/>
      <point x="292" y="135"/>
      <point x="249" y="219"/>
      <point x="249" y="354" type="curve" smooth="yes"/>
      <point x="249" y="516"/>
      <point x="310" y="584"/>
      <point x="401" y="584" type="curve" smooth="yes"/>
      <point x="450" y="584"/>
      <point x="477" y="568"/>
      <point x="486" y="539" type="curve"/>
      <point x="437" y="532" type="line"/>
      <point x="437" y="426" type="line"/>
      <point x="710" y="426" type="line"/>
      <point x="710" y="532" type="line"/>
      <point x="667" y="538" type="line"/>
      <point x="652" y="645"/>
      <point x="584" y="724"/>
      <point x="397" y="724" type="curve" smooth="yes"/>
      <point x="174" y="724"/>
      <point x="51" y="571"/>
      <point x="51" y="355" type="curve" smooth="yes"/>
      <point x="51" y="138"/>
      <point x="147" y="-10"/>
    </contour>
  </outline>
</glyph>
<glyph name="uni13E4" format="2">
  <advance width="958"/>
  <unicode hex="13E4"/>
  <note>
uni13E4
</note>
  <anchor x="424" y="0" name="bottom"/>
  <anchor x="479" y="714" name="top"/>
  <outline>
    <contour>
      <point x="269" y="0" type="line"/>
      <point x="554" y="0" type="line"/>
      <point x="946" y="714" type="line"/>
      <point x="736" y="714" type="line"/>
      <point x="525" y="301" type="line" smooth="yes"/>
      <point x="496" y="244"/>
      <point x="479" y="208"/>
      <point x="459" y="161" type="curve"/>
      <point x="457" y="161" type="line"/>
      <point x="461" y="232"/>
      <point x="462" y="266"/>
      <point x="462" y="316" type="curve" smooth="yes"/>
      <point x="462" y="579" type="line"/>
      <point x="575" y="579" type="line"/>
      <point x="575" y="714" type="line"/>
      <point x="40" y="714" type="line"/>
      <point x="40" y="470" type="line"/>
      <point x="142" y="470" type="line"/>
      <point x="156" y="579" type="line"/>
      <point x="269" y="579" type="line"/>
    </contour>
  </outline>
</glyph>
<glyph name="uni13E5" format="2">
  <advance width="1002"/>
  <unicode hex="13E5"/>
  <note>
uni13E5
</note>
  <anchor x="412" y="0" name="bottom"/>
  <anchor x="222" y="714" name="top"/>
  <outline>
    <contour>
      <point x="55" y="0" type="line"/>
      <point x="381" y="0" type="line"/>
      <point x="381" y="112" type="line"/>
      <point x="322" y="119" type="line"/>
      <point x="322" y="173" type="line" smooth="yes"/>
      <point x="322" y="276"/>
      <point x="369" y="336"/>
      <point x="504" y="354" type="curve"/>
      <point x="504" y="119" type="line"/>
      <point x="446" y="112" type="line"/>
      <point x="446" y="0" type="line"/>
      <point x="772" y="0" type="line"/>
      <point x="772" y="112" type="line"/>
      <point x="698" y="121" type="line"/>
      <point x="698" y="354" type="line"/>
      <point x="779" y="345"/>
      <point x="800" y="323"/>
      <point x="808" y="293" type="curve"/>
      <point x="803" y="285"/>
      <point x="799" y="275"/>
      <point x="799" y="262" type="curve" smooth="yes"/>
      <point x="799" y="218"/>
      <point x="826" y="189"/>
      <point x="887" y="189" type="curve" smooth="yes"/>
      <point x="950" y="189"/>
      <point x="984" y="230"/>
      <point x="984" y="294" type="curve" smooth="yes"/>
      <point x="984" y="402"/>
      <point x="894" y="498"/>
      <point x="625" y="498" type="curve" smooth="yes"/>
      <point x="435" y="498"/>
      <point x="350" y="442"/>
      <point x="322" y="398" type="curve"/>
      <point x="319" y="398" type="line"/>
      <point x="320" y="416"/>
      <point x="322" y="437"/>
      <point x="322" y="469" type="curve" smooth="yes"/>
      <point x="322" y="595" type="line"/>
      <point x="386" y="602" type="line"/>
      <point x="386" y="714" type="line"/>
      <point x="55" y="714" type="line"/>
      <point x="55" y="602" type="line"/>
      <point x="128" y="593" type="line"/>
      <point x="128" y="121" type="line"/>
      <point x="55" y="112" type="line"/>
    </contour>
  </outline>
</glyph>
<glyph name="uni13E6" format="2">
  <advance width="825"/>
  <unicode hex="13E6"/>
  <note>
uni13E6
</note>
  <anchor x="418" y="0" name="bottom"/>
  <anchor x="418" y="714" name="top"/>
  <outline>
    <contour>
      <point x="55" y="0" type="line"/>
      <point x="379" y="0" type="line"/>
      <point x="379" y="112" type="line"/>
      <point x="319" y="119" type="line"/>
      <point x="319" y="207" type="line"/>
      <point x="359" y="237" type="line"/>
      <point x="418" y="287" type="line"/>
      <point x="505" y="117" type="line"/>
      <point x="454" y="112" type="line"/>
      <point x="454" y="0" type="line"/>
      <point x="784" y="0" type="line"/>
      <point x="784" y="112" type="line"/>
      <point x="728" y="121" type="line"/>
      <point x="551" y="418" type="line"/>
      <point x="726" y="591" type="line"/>
      <point x="783" y="602" type="line"/>
      <point x="783" y="714" type="line"/>
      <point x="471" y="714" type="line"/>
      <point x="471" y="602" type="line"/>
      <point x="528" y="598" type="line"/>
      <point x="387" y="449" type="line"/>
      <point x="319" y="373" type="line"/>
      <point x="319" y="595" type="line"/>
      <point x="379" y="602" type="line"/>
      <point x="379" y="714" type="line"/>
      <point x="55" y="714" type="line"/>
      <point x="55" y="602" type="line"/>
      <point x="125" y="594" type="line"/>
      <point x="125" y="120" type="line"/>
      <point x="55" y="112" type="line"/>
    </contour>
  </outline>
</glyph>
<glyph name="uni13E7" format="2">
  <advance width="699"/>
  <unicode hex="13E7"/>
  <note>
uni13E7
</note>
  <anchor x="294" y="0" name="bottom"/>
  <anchor x="469" y="714" name="top"/>
  <outline>
    <contour>
      <point x="290" y="-9" type="curve" smooth="yes"/>
      <point x="495" y="-9"/>
      <point x="572" y="105"/>
      <point x="572" y="298" type="curve" smooth="yes"/>
      <point x="572" y="592" type="line"/>
      <point x="659" y="602" type="line"/>
      <point x="659" y="714" type="line"/>
      <point x="292" y="714" type="line"/>
      <point x="292" y="602" type="line"/>
      <point x="379" y="592" type="line"/>
      <point x="379" y="456" type="line" smooth="yes"/>
      <point x="379" y="431"/>
      <point x="379" y="412"/>
      <point x="381" y="388" type="curve"/>
      <point x="378" y="388" type="line"/>
      <point x="365" y="403"/>
      <point x="321" y="437"/>
      <point x="242" y="437" type="curve" smooth="yes"/>
      <point x="119" y="437"/>
      <point x="31" y="363"/>
      <point x="31" y="222" type="curve" smooth="yes"/>
      <point x="31" y="73"/>
      <point x="122" y="-9"/>
    </contour>
    <contour>
      <point x="297" y="123" type="curve" smooth="yes"/>
      <point x="247" y="123"/>
      <point x="218" y="158"/>
      <point x="218" y="215" type="curve" smooth="yes"/>
      <point x="218" y="271"/>
      <point x="244" y="306"/>
      <point x="300" y="306" type="curve" smooth="yes"/>
      <point x="348" y="306"/>
      <point x="377" y="271"/>
      <point x="377" y="221" type="curve" smooth="yes"/>
      <point x="377" y="157"/>
      <point x="347" y="123"/>
    </contour>
  </outline>
</glyph>
<glyph name="uni13E8" format="2">
  <advance width="877"/>
  <unicode hex="13E8"/>
  <note>
uni13E8
</note>
  <anchor x="439" y="0" name="bottom"/>
  <anchor x="439" y="714" name="top"/>
  <outline>
    <contour>
      <point x="372" y="-11" type="curve" smooth="yes"/>
      <point x="460" y="-11"/>
      <point x="539" y="16"/>
      <point x="590" y="71" type="curve"/>
      <point x="659" y="2" type="line"/>
      <point x="661" y="2" type="line"/>
      <point x="726" y="75" type="line"/>
      <point x="786" y="4" type="line"/>
      <point x="788" y="4" type="line"/>
      <point x="874" y="83" type="line"/>
      <point x="739" y="248" type="line"/>
      <point x="737" y="248" type="line"/>
      <point x="663" y="165" type="line"/>
      <point x="588" y="245" type="line"/>
      <point x="586" y="245" type="line"/>
      <point x="534" y="157"/>
      <point x="475" y="127"/>
      <point x="405" y="127" type="curve" smooth="yes"/>
      <point x="310" y="127"/>
      <point x="249" y="191"/>
      <point x="249" y="351" type="curve" smooth="yes"/>
      <point x="249" y="526"/>
      <point x="321" y="589"/>
      <point x="420" y="589" type="curve" smooth="yes"/>
      <point x="493" y="589"/>
      <point x="540" y="562"/>
      <point x="589" y="481" type="curve"/>
      <point x="591" y="481" type="line"/>
      <point x="662" y="558" type="line"/>
      <point x="730" y="479" type="line"/>
      <point x="732" y="479" type="line"/>
      <point x="875" y="636" type="line"/>
      <point x="792" y="715" type="line"/>
      <point x="790" y="715" type="line"/>
      <point x="726" y="645" type="line"/>
      <point x="664" y="715" type="line"/>
      <point x="662" y="715" type="line"/>
      <point x="600" y="647" type="line"/>
      <point x="561" y="688"/>
      <point x="496" y="725"/>
      <point x="392" y="725" type="curve" smooth="yes"/>
      <point x="188" y="725"/>
      <point x="51" y="579"/>
      <point x="51" y="354" type="curve" smooth="yes"/>
      <point x="51" y="121"/>
      <point x="167" y="-11"/>
    </contour>
  </outline>
</glyph>
<glyph name="uni13E9" format="2">
  <advance width="910"/>
  <unicode hex="13E9"/>
  <note>
uni13E9
</note>
  <anchor x="455" y="0" name="bottom"/>
  <anchor x="409" y="714" name="top"/>
  <outline>
    <contour>
      <point x="359" y="-10" type="curve" smooth="yes"/>
      <point x="444" y="-10"/>
      <point x="504" y="12"/>
      <point x="546" y="46" type="curve"/>
      <point x="581" y="12"/>
      <point x="633" y="-4"/>
      <point x="692" y="-4" type="curve" smooth="yes"/>
      <point x="818" y="-4"/>
      <point x="880" y="62"/>
      <point x="880" y="179" type="curve" smooth="yes"/>
      <point x="880" y="194"/>
      <point x="879" y="203"/>
      <point x="878" y="218" type="curve"/>
      <point x="758" y="218" type="line"/>
      <point x="759" y="209"/>
      <point x="759" y="202"/>
      <point x="759" y="191" type="curve" smooth="yes"/>
      <point x="759" y="149"/>
      <point x="747" y="124"/>
      <point x="709" y="124" type="curve" smooth="yes"/>
      <point x="674" y="124"/>
      <point x="662" y="146"/>
      <point x="662" y="177" type="curve" smooth="yes"/>
      <point x="662" y="233" type="line"/>
      <point x="725" y="240" type="line"/>
      <point x="725" y="352" type="line"/>
      <point x="419" y="352" type="line"/>
      <point x="419" y="240" type="line"/>
      <point x="493" y="231" type="line"/>
      <point x="493" y="194" type="line"/>
      <point x="478" y="152"/>
      <point x="446" y="129"/>
      <point x="391" y="129" type="curve" smooth="yes"/>
      <point x="305" y="129"/>
      <point x="249" y="180"/>
      <point x="249" y="337" type="curve" smooth="yes"/>
      <point x="249" y="528"/>
      <point x="310" y="594"/>
      <point x="421" y="594" type="curve" smooth="yes"/>
      <point x="480" y="594"/>
      <point x="505" y="573"/>
      <point x="516" y="559" type="curve"/>
      <point x="506" y="550"/>
      <point x="497" y="534"/>
      <point x="497" y="511" type="curve" smooth="yes"/>
      <point x="497" y="472"/>
      <point x="523" y="434"/>
      <point x="584" y="434" type="curve" smooth="yes"/>
      <point x="644" y="434"/>
      <point x="678" y="475"/>
      <point x="678" y="539" type="curve" smooth="yes"/>
      <point x="678" y="631"/>
      <point x="600" y="724"/>
      <point x="407" y="724" type="curve" smooth="yes"/>
      <point x="174" y="724"/>
      <point x="51" y="594"/>
      <point x="51" y="332" type="curve" smooth="yes"/>
      <point x="51" y="118"/>
      <point x="149" y="-10"/>
    </contour>
  </outline>
</glyph>
<glyph name="uni13EA" format="2">
  <advance width="1221"/>
  <unicode hex="13EA"/>
  <note>
uni13EA
</note>
  <anchor x="611" y="0" name="bottom"/>
  <anchor x="720" y="714" name="top"/>
  <outline>
    <contour>
      <point x="280" y="-10" type="curve" smooth="yes"/>
      <point x="375" y="-10"/>
      <point x="431" y="18"/>
      <point x="481" y="59" type="curve"/>
      <point x="531" y="16"/>
      <point x="622" y="-10"/>
      <point x="726" y="-10" type="curve" smooth="yes"/>
      <point x="1039" y="-10"/>
      <point x="1183" y="238"/>
      <point x="1183" y="478" type="curve" smooth="yes"/>
      <point x="1183" y="638"/>
      <point x="1094" y="720"/>
      <point x="960" y="720" type="curve" smooth="yes"/>
      <point x="814" y="720"/>
      <point x="736" y="637"/>
      <point x="736" y="479" type="curve" smooth="yes"/>
      <point x="736" y="365"/>
      <point x="775" y="262"/>
      <point x="878" y="186" type="curve"/>
      <point x="855" y="158"/>
      <point x="804" y="129"/>
      <point x="726" y="129" type="curve" smooth="yes"/>
      <point x="671" y="129"/>
      <point x="617" y="147"/>
      <point x="597" y="169" type="curve"/>
      <point x="667" y="250"/>
      <point x="712" y="363"/>
      <point x="712" y="484" type="curve" smooth="yes"/>
      <point x="712" y="644"/>
      <point x="624" y="726"/>
      <point x="492" y="726" type="curve" smooth="yes"/>
      <point x="346" y="726"/>
      <point x="258" y="635"/>
      <point x="258" y="467" type="curve" smooth="yes"/>
      <point x="258" y="355"/>
      <point x="294" y="252"/>
      <point x="368" y="166" type="curve"/>
      <point x="351" y="147"/>
      <point x="327" y="129"/>
      <point x="297" y="129" type="curve" smooth="yes"/>
      <point x="244" y="129"/>
      <point x="215" y="164"/>
      <point x="215" y="242" type="curve" smooth="yes"/>
      <point x="215" y="262"/>
      <point x="217" y="287"/>
      <point x="219" y="304" type="curve"/>
      <point x="52" y="304" type="line"/>
      <point x="48" y="282"/>
      <point x="45" y="256"/>
      <point x="45" y="227" type="curve" smooth="yes"/>
      <point x="45" y="78"/>
      <point x="125" y="-10"/>
    </contour>
    <contour>
      <point x="483" y="296" type="curve"/>
      <point x="458" y="340"/>
      <point x="442" y="406"/>
      <point x="442" y="476" type="curve" smooth="yes"/>
      <point x="442" y="561"/>
      <point x="460" y="586"/>
      <point x="487" y="586" type="curve" smooth="yes"/>
      <point x="508" y="586"/>
      <point x="530" y="565"/>
      <point x="530" y="480" type="curve" smooth="yes"/>
      <point x="530" y="421"/>
      <point x="507" y="340"/>
    </contour>
    <contour>
      <point x="968" y="316" type="curve"/>
      <point x="940" y="355"/>
      <point x="917" y="414"/>
      <point x="917" y="480" type="curve" smooth="yes"/>
      <point x="917" y="558"/>
      <point x="932" y="580"/>
      <point x="956" y="580" type="curve" smooth="yes"/>
      <point x="978" y="580"/>
      <point x="1000" y="560"/>
      <point x="1000" y="474" type="curve" smooth="yes"/>
      <point x="1000" y="415"/>
      <point x="984" y="358"/>
    </contour>
  </outline>
</glyph>
<glyph name="uni13EB" format="2">
  <advance width="796"/>
  <unicode hex="13EB"/>
  <note>
uni13EB
</note>
  <anchor x="398" y="0" name="bottom"/>
  <anchor x="398" y="714" name="top"/>
  <outline>
    <contour>
      <point x="398" y="-10" type="curve" smooth="yes"/>
      <point x="643" y="-10"/>
      <point x="745" y="137"/>
      <point x="745" y="358" type="curve" smooth="yes"/>
      <point x="745" y="580"/>
      <point x="643" y="725"/>
      <point x="399" y="725" type="curve" smooth="yes"/>
      <point x="158" y="725"/>
      <point x="51" y="581"/>
      <point x="51" y="359" type="curve" smooth="yes"/>
      <point x="51" y="136"/>
      <point x="158" y="-10"/>
    </contour>
    <contour>
      <point x="398" y="131" type="curve" smooth="yes"/>
      <point x="287" y="131"/>
      <point x="243" y="209"/>
      <point x="243" y="342" type="curve" smooth="yes"/>
      <point x="243" y="351"/>
      <point x="243" y="359"/>
      <point x="243" y="368" type="curve"/>
      <point x="325" y="368" type="line"/>
      <point x="340" y="210" type="line"/>
      <point x="528" y="210" type="line"/>
      <point x="504" y="157"/>
      <point x="463" y="131"/>
    </contour>
    <contour>
      <point x="471" y="349" type="line"/>
      <point x="456" y="507" type="line"/>
      <point x="269" y="507" type="line"/>
      <point x="292" y="561"/>
      <point x="334" y="587"/>
      <point x="399" y="587" type="curve" smooth="yes"/>
      <point x="511" y="587"/>
      <point x="553" y="507"/>
      <point x="553" y="375" type="curve" smooth="yes"/>
      <point x="553" y="366"/>
      <point x="553" y="358"/>
      <point x="553" y="349" type="curve"/>
    </contour>
  </outline>
</glyph>
<glyph name="uni13EC" format="2">
  <advance width="1116"/>
  <unicode hex="13EC"/>
  <note>
uni13EC
</note>
  <anchor x="558" y="0" name="bottom"/>
  <anchor x="558" y="714" name="top"/>
  <outline>
    <contour>
      <point x="548" y="-10" type="curve" smooth="yes"/>
      <point x="897" y="-10"/>
      <point x="1079" y="190"/>
      <point x="1079" y="430" type="curve" smooth="yes"/>
      <point x="1079" y="600"/>
      <point x="982" y="713"/>
      <point x="799" y="713" type="curve" smooth="yes"/>
      <point x="662" y="713"/>
      <point x="581" y="631"/>
      <point x="581" y="515" type="curve" smooth="yes"/>
      <point x="581" y="388"/>
      <point x="658" y="336"/>
      <point x="777" y="334" type="curve"/>
      <point x="777" y="472" type="line"/>
      <point x="755" y="474"/>
      <point x="741" y="489"/>
      <point x="741" y="513" type="curve" smooth="yes"/>
      <point x="741" y="543"/>
      <point x="761" y="566"/>
      <point x="800" y="566" type="curve" smooth="yes"/>
      <point x="861" y="566"/>
      <point x="889" y="501"/>
      <point x="889" y="428" type="curve" smooth="yes"/>
      <point x="889" y="261"/>
      <point x="790" y="151"/>
      <point x="569" y="151" type="curve" smooth="yes"/>
      <point x="481" y="151"/>
      <point x="422" y="171"/>
      <point x="399" y="188" type="curve"/>
      <point x="477" y="257"/>
      <point x="526" y="366"/>
      <point x="526" y="484" type="curve" smooth="yes"/>
      <point x="526" y="644"/>
      <point x="432" y="726"/>
      <point x="296" y="726" type="curve" smooth="yes"/>
      <point x="150" y="726"/>
      <point x="49" y="638"/>
      <point x="49" y="439" type="curve" smooth="yes"/>
      <point x="49" y="184"/>
      <point x="228" y="-10"/>
    </contour>
    <contour>
      <point x="273" y="284" type="curve"/>
      <point x="245" y="325"/>
      <point x="226" y="396"/>
      <point x="226" y="458" type="curve" smooth="yes"/>
      <point x="226" y="537"/>
      <point x="252" y="576"/>
      <point x="294" y="576" type="curve" smooth="yes"/>
      <point x="328" y="576"/>
      <point x="354" y="547"/>
      <point x="354" y="475" type="curve" smooth="yes"/>
      <point x="354" y="386"/>
      <point x="309" y="310"/>
    </contour>
  </outline>
</glyph>
<glyph name="uni13ED" format="2">
  <advance width="693"/>
  <unicode hex="13ED"/>
  <note>
uni13ED
</note>
  <anchor x="347" y="0" name="bottom"/>
  <anchor x="347" y="714" name="top"/>
  <outline>
    <contour>
      <point x="304" y="-10" type="curve" smooth="yes"/>
      <point x="543" y="-10"/>
      <point x="632" y="184"/>
      <point x="632" y="390" type="curve" smooth="yes"/>
      <point x="632" y="619"/>
      <point x="533" y="726"/>
      <point x="347" y="726" type="curve" smooth="yes"/>
      <point x="186" y="726"/>
      <point x="92" y="635"/>
      <point x="92" y="497" type="curve" smooth="yes"/>
      <point x="92" y="352"/>
      <point x="192" y="276"/>
      <point x="408" y="206" type="curve"/>
      <point x="392" y="166"/>
      <point x="362" y="142"/>
      <point x="317" y="142" type="curve" smooth="yes"/>
      <point x="254" y="142"/>
      <point x="223" y="174"/>
      <point x="223" y="227" type="curve" smooth="yes"/>
      <point x="223" y="233"/>
      <point x="223" y="238"/>
      <point x="223" y="244" type="curve"/>
      <point x="48" y="244" type="line"/>
      <point x="47" y="235"/>
      <point x="47" y="227"/>
      <point x="47" y="217" type="curve" smooth="yes"/>
      <point x="47" y="83"/>
      <point x="136" y="-10"/>
    </contour>
    <contour>
      <point x="438" y="354" type="curve"/>
      <point x="315" y="403"/>
      <point x="282" y="441"/>
      <point x="282" y="501" type="curve" smooth="yes"/>
      <point x="282" y="549"/>
      <point x="310" y="580"/>
      <point x="352" y="580" type="curve" smooth="yes"/>
      <point x="411" y="580"/>
      <point x="439" y="535"/>
      <point x="439" y="400" type="curve" smooth="yes"/>
      <point x="439" y="384"/>
      <point x="439" y="369"/>
    </contour>
  </outline>
</glyph>
<glyph name="uni13EE" format="2">
  <advance width="667"/>
  <unicode hex="13EE"/>
  <note>
uni13EE
</note>
  <anchor x="334" y="0" name="bottom"/>
  <anchor x="334" y="714" name="top"/>
  <outline>
    <contour>
      <point x="337" y="-9" type="curve" smooth="yes"/>
      <point x="505" y="-9"/>
      <point x="607" y="89"/>
      <point x="607" y="238" type="curve" smooth="yes"/>
      <point x="607" y="379"/>
      <point x="525" y="450"/>
      <point x="401" y="450" type="curve" smooth="yes"/>
      <point x="319" y="450"/>
      <point x="278" y="418"/>
      <point x="260" y="392" type="curve"/>
      <point x="257" y="392" type="line"/>
      <point x="261" y="537"/>
      <point x="305" y="601"/>
      <point x="377" y="601" type="curve" smooth="yes"/>
      <point x="408" y="601"/>
      <point x="426" y="593"/>
      <point x="439" y="582" type="curve"/>
      <point x="436" y="577"/>
      <point x="435" y="570"/>
      <point x="435" y="556" type="curve" smooth="yes"/>
      <point x="435" y="509"/>
      <point x="459" y="480"/>
      <point x="513" y="480" type="curve" smooth="yes"/>
      <point x="568" y="480"/>
      <point x="600" y="516"/>
      <point x="600" y="575" type="curve" smooth="yes"/>
      <point x="600" y="656"/>
      <point x="531" y="724"/>
      <point x="381" y="724" type="curve" smooth="yes"/>
      <point x="183" y="724"/>
      <point x="66" y="599"/>
      <point x="66" y="330" type="curve" smooth="yes"/>
      <point x="66" y="92"/>
      <point x="160" y="-9"/>
    </contour>
    <contour>
      <point x="339" y="116" type="curve" smooth="yes"/>
      <point x="289" y="116"/>
      <point x="261" y="151"/>
      <point x="261" y="222" type="curve" smooth="yes"/>
      <point x="261" y="284"/>
      <point x="288" y="325"/>
      <point x="343" y="325" type="curve" smooth="yes"/>
      <point x="395" y="325"/>
      <point x="420" y="284"/>
      <point x="420" y="223" type="curve" smooth="yes"/>
      <point x="420" y="156"/>
      <point x="389" y="116"/>
    </contour>
  </outline>
</glyph>
<glyph name="uni13EF" format="2">
  <advance width="1110"/>
  <unicode hex="13EF"/>
  <note>
uni13EF
</note>
  <anchor x="555" y="0" name="bottom"/>
  <anchor x="637" y="714" name="top"/>
  <outline>
    <contour>
      <point x="295" y="-11" type="curve" smooth="yes"/>
      <point x="413" y="-11"/>
      <point x="474" y="35"/>
      <point x="521" y="102" type="curve"/>
      <point x="523" y="102" type="line"/>
      <point x="562" y="39"/>
      <point x="627" y="-11"/>
      <point x="748" y="-11" type="curve" smooth="yes"/>
      <point x="927" y="-11"/>
      <point x="1060" y="116"/>
      <point x="1060" y="335" type="curve" smooth="yes"/>
      <point x="1060" y="554"/>
      <point x="917" y="725"/>
      <point x="644" y="725" type="curve" smooth="yes"/>
      <point x="488" y="725"/>
      <point x="401" y="679"/>
      <point x="333" y="633" type="curve"/>
      <point x="410" y="503" type="line"/>
      <point x="460" y="538"/>
      <point x="525" y="572"/>
      <point x="629" y="572" type="curve" smooth="yes"/>
      <point x="780" y="572"/>
      <point x="870" y="484"/>
      <point x="870" y="335" type="curve" smooth="yes"/>
      <point x="870" y="197"/>
      <point x="814" y="139"/>
      <point x="730" y="139" type="curve" smooth="yes"/>
      <point x="664" y="139"/>
      <point x="634" y="184"/>
      <point x="613" y="240" type="curve"/>
      <point x="622" y="267"/>
      <point x="639" y="291"/>
      <point x="653" y="303" type="curve"/>
      <point x="671" y="295"/>
      <point x="695" y="288"/>
      <point x="717" y="288" type="curve" smooth="yes"/>
      <point x="741" y="288"/>
      <point x="764" y="293"/>
      <point x="788" y="299" type="curve"/>
      <point x="777" y="437" type="line"/>
      <point x="763" y="434"/>
      <point x="744" y="431"/>
      <point x="733" y="431" type="curve" smooth="yes"/>
      <point x="706" y="431"/>
      <point x="679" y="450"/>
      <point x="642" y="450" type="curve" smooth="yes"/>
      <point x="597" y="450"/>
      <point x="566" y="434"/>
      <point x="533" y="370" type="curve"/>
      <point x="531" y="370" type="line"/>
      <point x="501" y="432"/>
      <point x="468" y="452"/>
      <point x="410" y="452" type="curve" smooth="yes"/>
      <point x="361" y="452"/>
      <point x="329" y="440"/>
      <point x="291" y="420" type="curve"/>
      <point x="301" y="294" type="line"/>
      <point x="336" y="303"/>
      <point x="366" y="310"/>
      <point x="398" y="310" type="curve"/>
      <point x="414" y="298"/>
      <point x="437" y="277"/>
      <point x="448" y="240" type="curve"/>
      <point x="419" y="181"/>
      <point x="382" y="138"/>
      <point x="321" y="138" type="curve" smooth="yes"/>
      <point x="257" y="138"/>
      <point x="219" y="182"/>
      <point x="219" y="262" type="curve" smooth="yes"/>
      <point x="219" y="321"/>
      <point x="234" y="357"/>
      <point x="250" y="391" type="curve"/>
      <point x="91" y="404" type="line"/>
      <point x="65" y="367"/>
      <point x="45" y="307"/>
      <point x="45" y="238" type="curve" smooth="yes"/>
      <point x="45" y="82"/>
      <point x="138" y="-11"/>
    </contour>
  </outline>
</glyph>
<glyph name="uni13F0" format="2">
  <advance width="877"/>
  <unicode hex="13F0"/>
  <note>
uni13F0
</note>
  <anchor x="701" y="0" name="bottom"/>
  <anchor x="552" y="714" name="top"/>
  <outline>
    <contour>
      <point x="263" y="-269" type="line"/>
      <point x="454" y="-269" type="line"/>
      <point x="454" y="-10" type="line"/>
      <point x="468" y="-11"/>
      <point x="482" y="-11"/>
      <point x="496" y="-11" type="curve" smooth="yes"/>
      <point x="708" y="-11"/>
      <point x="830" y="80"/>
      <point x="830" y="210" type="curve" smooth="yes"/>
      <point x="830" y="307"/>
      <point x="781" y="350"/>
      <point x="686" y="373" type="curve"/>
      <point x="686" y="375" type="line"/>
      <point x="719" y="391" type="line" smooth="yes"/>
      <point x="774" y="417"/>
      <point x="821" y="453"/>
      <point x="821" y="547" type="curve" smooth="yes"/>
      <point x="821" y="654"/>
      <point x="730" y="726"/>
      <point x="564" y="726" type="curve" smooth="yes"/>
      <point x="350" y="726"/>
      <point x="263" y="626"/>
      <point x="263" y="464" type="curve" smooth="yes"/>
      <point x="263" y="182" type="line"/>
      <point x="217" y="208"/>
      <point x="197" y="250"/>
      <point x="197" y="322" type="curve"/>
      <point x="30" y="322" type="line"/>
      <point x="30" y="153"/>
      <point x="106" y="60"/>
      <point x="263" y="18" type="curve"/>
    </contour>
    <contour>
      <point x="499" y="137" type="curve" smooth="yes"/>
      <point x="485" y="137"/>
      <point x="469" y="138"/>
      <point x="454" y="140" type="curve"/>
      <point x="454" y="468" type="line" smooth="yes"/>
      <point x="454" y="549"/>
      <point x="483" y="591"/>
      <point x="550" y="591" type="curve" smooth="yes"/>
      <point x="603" y="591"/>
      <point x="628" y="563"/>
      <point x="628" y="521" type="curve" smooth="yes"/>
      <point x="628" y="479"/>
      <point x="604" y="464"/>
      <point x="567" y="441" type="curve" smooth="yes"/>
      <point x="533" y="420"/>
      <point x="511" y="407"/>
      <point x="511" y="367" type="curve" smooth="yes"/>
      <point x="511" y="333"/>
      <point x="527" y="315"/>
      <point x="563" y="297" type="curve" smooth="yes"/>
      <point x="613" y="272"/>
      <point x="642" y="256"/>
      <point x="642" y="216" type="curve" smooth="yes"/>
      <point x="642" y="169"/>
      <point x="597" y="137"/>
    </contour>
  </outline>
</glyph>
<glyph name="uni13F1" format="2">
  <advance width="920"/>
  <unicode hex="13F1"/>
  <note>
uni13F1
</note>
  <anchor x="612" y="0" name="bottom"/>
  <anchor x="519" y="714" name="top"/>
  <outline>
    <contour>
      <point x="608" y="-13" type="curve" smooth="yes"/>
      <point x="781" y="-13"/>
      <point x="880" y="91"/>
      <point x="880" y="261" type="curve" smooth="yes"/>
      <point x="880" y="407"/>
      <point x="784" y="504"/>
      <point x="605" y="561" type="curve"/>
      <point x="607" y="594" type="line"/>
      <point x="685" y="602" type="line"/>
      <point x="685" y="714" type="line"/>
      <point x="354" y="714" type="line"/>
      <point x="354" y="602" type="line"/>
      <point x="432" y="594" type="line"/>
      <point x="432" y="557" type="line"/>
      <point x="414" y="482"/>
      <point x="301" y="381"/>
      <point x="155" y="317" type="curve"/>
      <point x="214" y="183" type="line"/>
      <point x="367" y="252"/>
      <point x="480" y="353"/>
      <point x="528" y="434" type="curve"/>
      <point x="632" y="402"/>
      <point x="705" y="353"/>
      <point x="705" y="248" type="curve" smooth="yes"/>
      <point x="705" y="175"/>
      <point x="675" y="124"/>
      <point x="609" y="124" type="curve" smooth="yes"/>
      <point x="570" y="124"/>
      <point x="550" y="144"/>
      <point x="550" y="174" type="curve" smooth="yes"/>
      <point x="550" y="198"/>
      <point x="564" y="208"/>
      <point x="586" y="210" type="curve"/>
      <point x="586" y="332" type="line"/>
      <point x="471" y="330"/>
      <point x="400" y="276"/>
      <point x="400" y="165" type="curve" smooth="yes"/>
      <point x="400" y="60"/>
      <point x="471" y="-13"/>
    </contour>
    <contour>
      <point x="32" y="25" type="line"/>
      <point x="166" y="26"/>
      <point x="261" y="114"/>
      <point x="261" y="240" type="curve" smooth="yes"/>
      <point x="261" y="362"/>
      <point x="172" y="440"/>
      <point x="43" y="441" type="curve"/>
      <point x="43" y="312" type="line"/>
      <point x="77" y="310"/>
      <point x="117" y="287"/>
      <point x="117" y="233" type="curve" smooth="yes"/>
      <point x="117" y="181"/>
      <point x="77" y="151"/>
      <point x="32" y="149" type="curve"/>
    </contour>
  </outline>
</glyph>
<glyph name="uni13F2" format="2">
  <advance width="821"/>
  <unicode hex="13F2"/>
  <note>
uni13F2
</note>
  <anchor x="411" y="0" name="bottom"/>
  <anchor x="411" y="714" name="top"/>
  <outline>
    <contour>
      <point x="40" y="0" type="line"/>
      <point x="371" y="0" type="line"/>
      <point x="371" y="112" type="line"/>
      <point x="298" y="121" type="line"/>
      <point x="298" y="159" type="line" smooth="yes"/>
      <point x="298" y="241"/>
      <point x="333" y="286"/>
      <point x="414" y="286" type="curve" smooth="yes"/>
      <point x="487" y="286"/>
      <point x="517" y="243"/>
      <point x="517" y="173" type="curve" smooth="yes"/>
      <point x="517" y="120" type="line"/>
      <point x="450" y="112" type="line"/>
      <point x="450" y="0" type="line"/>
      <point x="781" y="0" type="line"/>
      <point x="781" y="112" type="line"/>
      <point x="708" y="121" type="line"/>
      <point x="708" y="188" type="line" smooth="yes"/>
      <point x="708" y="357"/>
      <point x="625" y="448"/>
      <point x="480" y="448" type="curve" smooth="yes"/>
      <point x="378" y="448"/>
      <point x="322" y="400"/>
      <point x="298" y="353" type="curve"/>
      <point x="294" y="355" type="line"/>
      <point x="297" y="370"/>
      <point x="298" y="388"/>
      <point x="298" y="404" type="curve" smooth="yes"/>
      <point x="298" y="458" type="line" smooth="yes"/>
      <point x="298" y="554"/>
      <point x="338" y="594"/>
      <point x="422" y="594" type="curve" smooth="yes"/>
      <point x="456" y="594"/>
      <point x="483" y="585"/>
      <point x="497" y="572" type="curve"/>
      <point x="494" y="567"/>
      <point x="492" y="559"/>
      <point x="492" y="550" type="curve" smooth="yes"/>
      <point x="492" y="496"/>
      <point x="521" y="470"/>
      <point x="582" y="470" type="curve" smooth="yes"/>
      <point x="643" y="470"/>
      <point x="677" y="503"/>
      <point x="677" y="560" type="curve" smooth="yes"/>
      <point x="677" y="656"/>
      <point x="604" y="726"/>
      <point x="432" y="726" type="curve" smooth="yes"/>
      <point x="219" y="726"/>
      <point x="107" y="629"/>
      <point x="107" y="415" type="curve" smooth="yes"/>
      <point x="107" y="120" type="line"/>
      <point x="40" y="112" type="line"/>
    </contour>
  </outline>
</glyph>
<glyph name="uni13F3" format="2">
  <advance width="877"/>
  <unicode hex="13F3"/>
  <note>
uni13F3
</note>
  <anchor x="396" y="0" name="bottom"/>
  <anchor x="390" y="714" name="top"/>
  <outline>
    <contour>
      <point x="321" y="-10" type="curve" smooth="yes"/>
      <point x="401" y="-10"/>
      <point x="455" y="16"/>
      <point x="492" y="55" type="curve"/>
      <point x="492" y="0" type="line"/>
      <point x="661" y="0" type="line"/>
      <point x="661" y="233" type="line"/>
      <point x="724" y="240" type="line"/>
      <point x="724" y="352" type="line"/>
      <point x="418" y="352" type="line"/>
      <point x="418" y="240" type="line"/>
      <point x="492" y="231" type="line"/>
      <point x="492" y="191" type="line"/>
      <point x="476" y="157"/>
      <point x="442" y="129"/>
      <point x="390" y="129" type="curve" smooth="yes"/>
      <point x="295" y="129"/>
      <point x="249" y="191"/>
      <point x="249" y="351" type="curve" smooth="yes"/>
      <point x="249" y="526"/>
      <point x="321" y="589"/>
      <point x="420" y="589" type="curve" smooth="yes"/>
      <point x="493" y="589"/>
      <point x="540" y="562"/>
      <point x="589" y="481" type="curve"/>
      <point x="591" y="481" type="line"/>
      <point x="662" y="558" type="line"/>
      <point x="730" y="479" type="line"/>
      <point x="732" y="479" type="line"/>
      <point x="875" y="636" type="line"/>
      <point x="792" y="715" type="line"/>
      <point x="790" y="715" type="line"/>
      <point x="726" y="645" type="line"/>
      <point x="664" y="715" type="line"/>
      <point x="662" y="715" type="line"/>
      <point x="600" y="647" type="line"/>
      <point x="561" y="688"/>
      <point x="496" y="725"/>
      <point x="392" y="725" type="curve" smooth="yes"/>
      <point x="188" y="725"/>
      <point x="51" y="589"/>
      <point x="51" y="337" type="curve" smooth="yes"/>
      <point x="51" y="121"/>
      <point x="157" y="-10"/>
    </contour>
  </outline>
</glyph>
<glyph name="uni13F4" format="2">
  <advance width="785"/>
  <unicode hex="13F4"/>
  <note>
uni13F4
</note>
  <anchor x="403" y="0" name="bottom"/>
  <anchor x="403" y="714" name="top"/>
  <outline>
    <contour>
      <point x="55" y="0" type="line"/>
      <point x="456" y="0" type="line" smooth="yes"/>
      <point x="624" y="0"/>
      <point x="730" y="79"/>
      <point x="730" y="209" type="curve" smooth="yes"/>
      <point x="730" y="323"/>
      <point x="660" y="359"/>
      <point x="602" y="374" type="curve"/>
      <point x="602" y="379" type="line"/>
      <point x="655" y="392"/>
      <point x="716" y="442"/>
      <point x="716" y="536" type="curve" smooth="yes"/>
      <point x="716" y="651"/>
      <point x="633" y="714"/>
      <point x="427" y="714" type="curve" smooth="yes"/>
      <point x="55" y="714" type="line"/>
      <point x="55" y="602" type="line"/>
      <point x="128" y="593" type="line"/>
      <point x="128" y="121" type="line"/>
      <point x="55" y="112" type="line"/>
    </contour>
    <contour>
      <point x="321" y="130" type="line"/>
      <point x="321" y="306" type="line"/>
      <point x="427" y="306" type="line" smooth="yes"/>
      <point x="499" y="306"/>
      <point x="531" y="270"/>
      <point x="531" y="225" type="curve" smooth="yes"/>
      <point x="531" y="162"/>
      <point x="499" y="130"/>
      <point x="432" y="130" type="curve" smooth="yes"/>
    </contour>
    <contour>
      <point x="321" y="432" type="line"/>
      <point x="321" y="587" type="line"/>
      <point x="418" y="587" type="line" smooth="yes"/>
      <point x="480" y="587"/>
      <point x="518" y="566"/>
      <point x="518" y="508" type="curve" smooth="yes"/>
      <point x="518" y="462"/>
      <point x="486" y="432"/>
      <point x="422" y="432" type="curve" smooth="yes"/>
    </contour>
  </outline>
</glyph>
<glyph name="uni13F5" format="2">
  <advance width="781"/>
  <unicode hex="13F5"/>
  <note>
uni13C0
</note>
  <anchor x="391" y="0" name="bottom"/>
  <anchor x="391" y="714" name="top"/>
  <outline>
    <contour>
      <point x="387" y="-12" type="curve" smooth="yes"/>
      <point x="520" y="-12"/>
      <point x="605" y="14"/>
      <point x="669" y="43" type="curve"/>
      <point x="669" y="233" type="line"/>
      <point x="732" y="240" type="line"/>
      <point x="732" y="352" type="line"/>
      <point x="419" y="352" type="line"/>
      <point x="419" y="240" type="line"/>
      <point x="489" y="231" type="line"/>
      <point x="489" y="144" type="line"/>
      <point x="464" y="136"/>
      <point x="441" y="131"/>
      <point x="398" y="131" type="curve" smooth="yes"/>
      <point x="304" y="131"/>
      <point x="249" y="182"/>
      <point x="249" y="274" type="curve" smooth="yes"/>
      <point x="249" y="423"/>
      <point x="360" y="525"/>
      <point x="671" y="581" type="curve"/>
      <point x="624" y="727" type="line"/>
      <point x="289" y="678"/>
      <point x="51" y="531"/>
      <point x="51" y="273" type="curve" smooth="yes"/>
      <point x="51" y="95"/>
      <point x="159" y="-12"/>
    </contour>
  </outline>
</glyph>
<glyph name="uni13F8" format="2">
  <advance width="719"/>
  <unicode hex="13F8"/>
  <anchor x="597" y="0" name="bottom"/>
  <anchor x="464" y="535" name="top"/>
  <outline>
    <contour>
      <point x="220" y="-230" type="line"/>
      <point x="383" y="-230" type="line"/>
      <point x="383" y="-7" type="line"/>
      <point x="387" y="-7"/>
      <point x="396" y="-8"/>
      <point x="411" y="-8" type="curve" smooth="yes"/>
      <point x="582" y="-8"/>
      <point x="680" y="62"/>
      <point x="680" y="160" type="curve" smooth="yes"/>
      <point x="680" y="238"/>
      <point x="630" y="266"/>
      <point x="569" y="281" type="curve"/>
      <point x="569" y="283" type="line"/>
      <point x="590" y="292" type="line" smooth="yes"/>
      <point x="634" y="310"/>
      <point x="673" y="339"/>
      <point x="673" y="407" type="curve" smooth="yes"/>
      <point x="673" y="493"/>
      <point x="599" y="547"/>
      <point x="464" y="547" type="curve" smooth="yes"/>
      <point x="288" y="547"/>
      <point x="220" y="470"/>
      <point x="220" y="347" type="curve" smooth="yes"/>
      <point x="220" y="145" type="line"/>
      <point x="171" y="166"/>
      <point x="160" y="197"/>
      <point x="160" y="245" type="curve"/>
      <point x="22" y="245" type="line"/>
      <point x="22" y="115"/>
      <point x="82" y="42"/>
      <point x="220" y="11" type="curve"/>
    </contour>
    <contour>
      <point x="413" y="118" type="curve" smooth="yes"/>
      <point x="404" y="118"/>
      <point x="394" y="118"/>
      <point x="383" y="119" type="curve"/>
      <point x="383" y="352" type="line" smooth="yes"/>
      <point x="383" y="408"/>
      <point x="403" y="432"/>
      <point x="452" y="432" type="curve" smooth="yes"/>
      <point x="489" y="432"/>
      <point x="508" y="412"/>
      <point x="508" y="387" type="curve" smooth="yes"/>
      <point x="508" y="360"/>
      <point x="492" y="350"/>
      <point x="465" y="336" type="curve" smooth="yes"/>
      <point x="438" y="322"/>
      <point x="418" y="309"/>
      <point x="418" y="276" type="curve" smooth="yes"/>
      <point x="418" y="249"/>
      <point x="432" y="234"/>
      <point x="460" y="222" type="curve" smooth="yes"/>
      <point x="499" y="206"/>
      <point x="519" y="195"/>
      <point x="519" y="167" type="curve" smooth="yes"/>
      <point x="519" y="139"/>
      <point x="486" y="118"/>
    </contour>
  </outline>
</glyph>
<glyph name="uni13F9" format="2">
  <advance width="763"/>
  <unicode hex="13F9"/>
  <anchor x="382" y="0" name="bottom"/>
  <anchor x="418" y="535" name="top"/>
  <outline>
    <contour>
      <point x="515" y="-11" type="curve" smooth="yes"/>
      <point x="648" y="-11"/>
      <point x="735" y="66"/>
      <point x="735" y="198" type="curve" smooth="yes"/>
      <point x="735" y="312"/>
      <point x="661" y="395"/>
      <point x="497" y="422" type="curve"/>
      <point x="497" y="433" type="line"/>
      <point x="559" y="439" type="line"/>
      <point x="559" y="535" type="line"/>
      <point x="288" y="535" type="line"/>
      <point x="288" y="439" type="line"/>
      <point x="349" y="433" type="line"/>
      <point x="349" y="413" type="line"/>
      <point x="333" y="364"/>
      <point x="239" y="291"/>
      <point x="124" y="247" type="curve"/>
      <point x="173" y="133" type="line"/>
      <point x="299" y="186"/>
      <point x="392" y="261"/>
      <point x="431" y="313" type="curve"/>
      <point x="523" y="298"/>
      <point x="587" y="265"/>
      <point x="587" y="187" type="curve" smooth="yes"/>
      <point x="587" y="138"/>
      <point x="562" y="106"/>
      <point x="512" y="106" type="curve" smooth="yes"/>
      <point x="479" y="106"/>
      <point x="466" y="118"/>
      <point x="466" y="134" type="curve" smooth="yes"/>
      <point x="466" y="147"/>
      <point x="475" y="150"/>
      <point x="489" y="152" type="curve"/>
      <point x="489" y="255" type="line"/>
      <point x="396" y="254"/>
      <point x="339" y="204"/>
      <point x="339" y="127" type="curve" smooth="yes"/>
      <point x="339" y="47"/>
      <point x="389" y="-11"/>
    </contour>
    <contour>
      <point x="27" y="10" type="line"/>
      <point x="136" y="10"/>
      <point x="213" y="80"/>
      <point x="213" y="180" type="curve" smooth="yes"/>
      <point x="213" y="276"/>
      <point x="140" y="336"/>
      <point x="35" y="336" type="curve"/>
      <point x="35" y="226" type="line"/>
      <point x="59" y="226"/>
      <point x="91" y="211"/>
      <point x="91" y="173" type="curve" smooth="yes"/>
      <point x="91" y="137"/>
      <point x="60" y="117"/>
      <point x="27" y="115" type="curve"/>
    </contour>
  </outline>
</glyph>
<glyph name="uni13FA" format="2">
  <advance width="659"/>
  <unicode hex="13FA"/>
  <anchor x="330" y="0" name="bottom"/>
  <anchor x="330" y="535" name="top"/>
  <outline>
    <contour>
      <point x="32" y="0" type="line"/>
      <point x="303" y="0" type="line"/>
      <point x="303" y="96" type="line"/>
      <point x="246" y="103" type="line"/>
      <point x="246" y="117" type="line" smooth="yes"/>
      <point x="246" y="165"/>
      <point x="271" y="197"/>
      <point x="331" y="197" type="curve" smooth="yes"/>
      <point x="386" y="197"/>
      <point x="408" y="165"/>
      <point x="408" y="126" type="curve" smooth="yes"/>
      <point x="408" y="102" type="line"/>
      <point x="357" y="96" type="line"/>
      <point x="357" y="0" type="line"/>
      <point x="628" y="0" type="line"/>
      <point x="628" y="96" type="line"/>
      <point x="571" y="103" type="line"/>
      <point x="571" y="139" type="line" smooth="yes"/>
      <point x="571" y="261"/>
      <point x="503" y="329"/>
      <point x="389" y="329" type="curve" smooth="yes"/>
      <point x="310" y="329"/>
      <point x="265" y="296"/>
      <point x="246" y="264" type="curve"/>
      <point x="243" y="266" type="line"/>
      <point x="246" y="276"/>
      <point x="246" y="287"/>
      <point x="246" y="296" type="curve" smooth="yes"/>
      <point x="246" y="337" type="line" smooth="yes"/>
      <point x="246" y="401"/>
      <point x="276" y="434"/>
      <point x="343" y="434" type="curve" smooth="yes"/>
      <point x="364" y="434"/>
      <point x="379" y="429"/>
      <point x="389" y="424" type="curve"/>
      <point x="389" y="421"/>
      <point x="388" y="415"/>
      <point x="388" y="411" type="curve" smooth="yes"/>
      <point x="388" y="374"/>
      <point x="412" y="349"/>
      <point x="464" y="349" type="curve" smooth="yes"/>
      <point x="518" y="349"/>
      <point x="547" y="384"/>
      <point x="547" y="428" type="curve" smooth="yes"/>
      <point x="547" y="504"/>
      <point x="480" y="546"/>
      <point x="346" y="546" type="curve" smooth="yes"/>
      <point x="174" y="546"/>
      <point x="83" y="460"/>
      <point x="83" y="310" type="curve" smooth="yes"/>
      <point x="83" y="102" type="line"/>
      <point x="32" y="96" type="line"/>
    </contour>
  </outline>
</glyph>
<glyph name="uni13FB" format="2">
  <advance width="704"/>
  <unicode hex="13FB"/>
  <anchor x="352" y="0" name="bottom"/>
  <anchor x="352" y="535" name="top"/>
  <outline>
    <contour>
      <point x="264" y="-7" type="curve" smooth="yes"/>
      <point x="317" y="-7"/>
      <point x="353" y="7"/>
      <point x="381" y="31" type="curve"/>
      <point x="381" y="0" type="line"/>
      <point x="526" y="0" type="line"/>
      <point x="526" y="170" type="line"/>
      <point x="573" y="175" type="line"/>
      <point x="573" y="271" type="line"/>
      <point x="324" y="271" type="line"/>
      <point x="324" y="175" type="line"/>
      <point x="381" y="168" type="line"/>
      <point x="381" y="140" type="line"/>
      <point x="369" y="125"/>
      <point x="348" y="110"/>
      <point x="308" y="110" type="curve" smooth="yes"/>
      <point x="247" y="110"/>
      <point x="210" y="149"/>
      <point x="210" y="263" type="curve" smooth="yes"/>
      <point x="210" y="391"/>
      <point x="266" y="428"/>
      <point x="339" y="428" type="curve" smooth="yes"/>
      <point x="395" y="428"/>
      <point x="431" y="410"/>
      <point x="470" y="352" type="curve"/>
      <point x="472" y="352" type="line"/>
      <point x="527" y="409" type="line"/>
      <point x="581" y="351" type="line"/>
      <point x="583" y="351" type="line"/>
      <point x="701" y="475" type="line"/>
      <point x="630" y="541" type="line"/>
      <point x="628" y="541" type="line"/>
      <point x="577" y="489" type="line"/>
      <point x="529" y="539" type="line"/>
      <point x="527" y="539" type="line"/>
      <point x="479" y="490" type="line"/>
      <point x="448" y="515"/>
      <point x="397" y="543"/>
      <point x="314" y="543" type="curve" smooth="yes"/>
      <point x="152" y="543"/>
      <point x="41" y="453"/>
      <point x="41" y="257" type="curve" smooth="yes"/>
      <point x="41" y="91"/>
      <point x="125" y="-7"/>
    </contour>
  </outline>
</glyph>
<glyph name="uni13FC" format="2">
  <advance width="631"/>
  <unicode hex="13FC"/>
  <anchor x="316" y="0" name="bottom"/>
  <anchor x="316" y="535" name="top"/>
  <outline>
    <contour>
      <point x="44" y="0" type="line"/>
      <point x="372" y="0" type="line" smooth="yes"/>
      <point x="502" y="0"/>
      <point x="587" y="62"/>
      <point x="587" y="158" type="curve" smooth="yes"/>
      <point x="587" y="247"/>
      <point x="529" y="269"/>
      <point x="489" y="280" type="curve"/>
      <point x="489" y="284" type="line"/>
      <point x="527" y="293"/>
      <point x="576" y="328"/>
      <point x="576" y="401" type="curve" smooth="yes"/>
      <point x="576" y="485"/>
      <point x="511" y="535"/>
      <point x="347" y="535" type="curve" smooth="yes"/>
      <point x="44" y="535" type="line"/>
      <point x="44" y="439" type="line"/>
      <point x="99" y="432" type="line"/>
      <point x="99" y="103" type="line"/>
      <point x="44" y="96" type="line"/>
    </contour>
    <contour>
      <point x="264" y="110" type="line"/>
      <point x="264" y="223" type="line"/>
      <point x="343" y="223" type="line" smooth="yes"/>
      <point x="394" y="223"/>
      <point x="416" y="197"/>
      <point x="416" y="172" type="curve" smooth="yes"/>
      <point x="416" y="132"/>
      <point x="395" y="110"/>
      <point x="351" y="110" type="curve" smooth="yes"/>
    </contour>
    <contour>
      <point x="264" y="329" type="line"/>
      <point x="264" y="427" type="line"/>
      <point x="339" y="427" type="line" smooth="yes"/>
      <point x="379" y="427"/>
      <point x="407" y="414"/>
      <point x="407" y="377" type="curve" smooth="yes"/>
      <point x="407" y="350"/>
      <point x="383" y="329"/>
      <point x="339" y="329" type="curve" smooth="yes"/>
    </contour>
  </outline>
</glyph>
<glyph name="uni13FD" format="2">
  <advance width="621"/>
  <unicode hex="13FD"/>
  <anchor x="311" y="0" name="bottom"/>
  <anchor x="311" y="535" name="top"/>
  <outline>
    <contour>
      <point x="309" y="-9" type="curve" smooth="yes"/>
      <point x="415" y="-9"/>
      <point x="483" y="12"/>
      <point x="534" y="34" type="curve"/>
      <point x="534" y="171" type="line"/>
      <point x="581" y="176" type="line"/>
      <point x="581" y="271" type="line"/>
      <point x="326" y="271" type="line"/>
      <point x="326" y="176" type="line"/>
      <point x="383" y="169" type="line"/>
      <point x="383" y="118" type="line"/>
      <point x="365" y="114"/>
      <point x="348" y="112"/>
      <point x="318" y="112" type="curve" smooth="yes"/>
      <point x="252" y="112"/>
      <point x="210" y="144"/>
      <point x="210" y="207" type="curve" smooth="yes"/>
      <point x="210" y="306"/>
      <point x="291" y="382"/>
      <point x="537" y="421" type="curve"/>
      <point x="497" y="545" type="line"/>
      <point x="235" y="512"/>
      <point x="41" y="403"/>
      <point x="41" y="206" type="curve" smooth="yes"/>
      <point x="41" y="70"/>
      <point x="127" y="-9"/>
    </contour>
  </outline>
</glyph>
<glyph name="uniAB70" format="2">
  <advance width="637"/>
  <unicode hex="AB70"/>
  <anchor x="319" y="0" name="bottom"/>
  <anchor x="319" y="535" name="top"/>
  <outline>
    <contour>
      <point x="44" y="0" type="line"/>
      <point x="274" y="0" type="line" smooth="yes"/>
      <point x="477" y="0"/>
      <point x="595" y="91"/>
      <point x="595" y="273" type="curve" smooth="yes"/>
      <point x="595" y="450"/>
      <point x="487" y="535"/>
      <point x="295" y="535" type="curve" smooth="yes"/>
      <point x="44" y="535" type="line"/>
      <point x="44" y="439" type="line"/>
      <point x="91" y="434" type="line"/>
      <point x="91" y="101" type="line"/>
      <point x="44" y="95" type="line"/>
    </contour>
    <contour>
      <point x="255" y="122" type="line"/>
      <point x="255" y="414" type="line"/>
      <point x="295" y="414" type="line" smooth="yes"/>
      <point x="379" y="414"/>
      <point x="424" y="378"/>
      <point x="424" y="274" type="curve" smooth="yes"/>
      <point x="424" y="161"/>
      <point x="367" y="122"/>
      <point x="283" y="122" type="curve" smooth="yes"/>
    </contour>
  </outline>
</glyph>
<glyph name="uniAB71" format="2">
  <advance width="631"/>
  <unicode hex="AB71"/>
  <anchor x="316" y="0" name="bottom"/>
  <anchor x="316" y="535" name="top"/>
  <outline>
    <contour>
      <point x="503" y="-5" type="curve" smooth="yes"/>
      <point x="547" y="-5"/>
      <point x="583" y="6"/>
      <point x="603" y="16" type="curve"/>
      <point x="589" y="99" type="line"/>
      <point x="583" y="96"/>
      <point x="575" y="94"/>
      <point x="564" y="94" type="curve" smooth="yes"/>
      <point x="543" y="94"/>
      <point x="532" y="102"/>
      <point x="525" y="137" type="curve" smooth="yes"/>
      <point x="518" y="170" type="line" smooth="yes"/>
      <point x="508" y="219"/>
      <point x="478" y="238"/>
      <point x="428" y="247" type="curve"/>
      <point x="428" y="248" type="line"/>
      <point x="502" y="264"/>
      <point x="548" y="312"/>
      <point x="548" y="385" type="curve" smooth="yes"/>
      <point x="548" y="483"/>
      <point x="487" y="535"/>
      <point x="340" y="535" type="curve" smooth="yes"/>
      <point x="44" y="535" type="line"/>
      <point x="44" y="439" type="line"/>
      <point x="91" y="434" type="line"/>
      <point x="91" y="101" type="line"/>
      <point x="44" y="96" type="line"/>
      <point x="44" y="0" type="line"/>
      <point x="293" y="0" type="line"/>
      <point x="293" y="96" type="line"/>
      <point x="257" y="100" type="line"/>
      <point x="257" y="194" type="line"/>
      <point x="298" y="194" type="line" smooth="yes"/>
      <point x="337" y="194"/>
      <point x="356" y="189"/>
      <point x="365" y="132" type="curve" smooth="yes"/>
      <point x="370" y="100" type="line" smooth="yes"/>
      <point x="384" y="12"/>
      <point x="429" y="-5"/>
    </contour>
    <contour>
      <point x="257" y="300" type="line"/>
      <point x="257" y="421" type="line"/>
      <point x="310" y="421" type="line" smooth="yes"/>
      <point x="360" y="421"/>
      <point x="382" y="398"/>
      <point x="382" y="362" type="curve" smooth="yes"/>
      <point x="382" y="312"/>
      <point x="345" y="300"/>
      <point x="304" y="300" type="curve" smooth="yes"/>
    </contour>
  </outline>
</glyph>
<glyph name="uniAB72" format="2">
  <advance width="587"/>
  <unicode hex="AB72"/>
  <anchor x="294" y="0" name="bottom"/>
  <anchor x="294" y="535" name="top"/>
  <outline>
    <contour>
      <point x="134" y="0" type="line"/>
      <point x="453" y="0" type="line"/>
      <point x="453" y="96" type="line"/>
      <point x="376" y="105" type="line"/>
      <point x="376" y="420" type="line"/>
      <point x="455" y="420" type="line"/>
      <point x="467" y="339" type="line"/>
      <point x="552" y="339" type="line"/>
      <point x="552" y="535" type="line"/>
      <point x="35" y="535" type="line"/>
      <point x="35" y="339" type="line"/>
      <point x="120" y="339" type="line"/>
      <point x="132" y="420" type="line"/>
      <point x="211" y="420" type="line"/>
      <point x="211" y="105" type="line"/>
      <point x="134" y="96" type="line"/>
    </contour>
  </outline>
</glyph>
<glyph name="uniAB73" format="2">
  <advance width="734"/>
  <unicode hex="AB73"/>
  <anchor x="367" y="0" name="bottom"/>
  <anchor x="400" y="535" name="top"/>
  <outline>
    <contour>
      <point x="457" y="-10" type="line"/>
      <point x="604" y="-2"/>
      <point x="694" y="65"/>
      <point x="694" y="196" type="curve" smooth="yes"/>
      <point x="694" y="305"/>
      <point x="618" y="378"/>
      <point x="481" y="422" type="curve"/>
      <point x="481" y="433" type="line"/>
      <point x="542" y="439" type="line"/>
      <point x="542" y="535" type="line"/>
      <point x="271" y="535" type="line"/>
      <point x="271" y="439" type="line"/>
      <point x="332" y="433" type="line"/>
      <point x="332" y="413" type="line"/>
      <point x="330" y="395"/>
      <point x="308" y="374"/>
      <point x="261" y="357" type="curve"/>
      <point x="253" y="357"/>
      <point x="246" y="358"/>
      <point x="237" y="358" type="curve" smooth="yes"/>
      <point x="121" y="358"/>
      <point x="38" y="296"/>
      <point x="38" y="180" type="curve" smooth="yes"/>
      <point x="38" y="66"/>
      <point x="118" y="3"/>
      <point x="237" y="3" type="curve" smooth="yes"/>
      <point x="353" y="3"/>
      <point x="436" y="72"/>
      <point x="436" y="185" type="curve" smooth="yes"/>
      <point x="436" y="236"/>
      <point x="417" y="275"/>
      <point x="392" y="299" type="curve"/>
      <point x="400" y="303"/>
      <point x="409" y="308"/>
      <point x="416" y="314" type="curve"/>
      <point x="491" y="290"/>
      <point x="544" y="259"/>
      <point x="544" y="190" type="curve" smooth="yes"/>
      <point x="544" y="137"/>
      <point x="505" y="112"/>
      <point x="457" y="107" type="curve"/>
    </contour>
    <contour>
      <point x="237" y="118" type="curve" smooth="yes"/>
      <point x="209" y="118"/>
      <point x="188" y="138"/>
      <point x="188" y="182" type="curve" smooth="yes"/>
      <point x="188" y="224"/>
      <point x="210" y="243"/>
      <point x="237" y="243" type="curve" smooth="yes"/>
      <point x="265" y="243"/>
      <point x="286" y="228"/>
      <point x="286" y="184" type="curve" smooth="yes"/>
      <point x="286" y="141"/>
      <point x="264" y="118"/>
    </contour>
  </outline>
</glyph>
<glyph name="uniAB74" format="2">
  <advance width="919"/>
  <unicode hex="AB74"/>
  <anchor x="287" y="0" name="bottom"/>
  <anchor x="294" y="535" name="top"/>
  <outline>
    <contour>
      <point x="287" y="-7" type="curve" smooth="yes"/>
      <point x="439" y="-7"/>
      <point x="507" y="77"/>
      <point x="529" y="178" type="curve"/>
      <point x="558" y="158"/>
      <point x="602" y="146"/>
      <point x="656" y="146" type="curve" smooth="yes"/>
      <point x="785" y="146"/>
      <point x="883" y="232"/>
      <point x="883" y="360" type="curve" smooth="yes"/>
      <point x="883" y="476"/>
      <point x="821" y="548"/>
      <point x="710" y="548" type="curve" smooth="yes"/>
      <point x="619" y="548"/>
      <point x="561" y="497"/>
      <point x="561" y="406" type="curve" smooth="yes"/>
      <point x="561" y="391"/>
      <point x="563" y="375"/>
      <point x="564" y="363" type="curve"/>
      <point x="692" y="363" type="line"/>
      <point x="692" y="372"/>
      <point x="691" y="383"/>
      <point x="691" y="394" type="curve" smooth="yes"/>
      <point x="691" y="417"/>
      <point x="700" y="427"/>
      <point x="713" y="427" type="curve" smooth="yes"/>
      <point x="730" y="427"/>
      <point x="742" y="413"/>
      <point x="742" y="357" type="curve" smooth="yes"/>
      <point x="742" y="295"/>
      <point x="700" y="273"/>
      <point x="641" y="273" type="curve" smooth="yes"/>
      <point x="575" y="273"/>
      <point x="549" y="307"/>
      <point x="530" y="373" type="curve" smooth="yes"/>
      <point x="501" y="475"/>
      <point x="432" y="543"/>
      <point x="295" y="543" type="curve" smooth="yes"/>
      <point x="115" y="543"/>
      <point x="41" y="433"/>
      <point x="41" y="269" type="curve" smooth="yes"/>
      <point x="41" y="105"/>
      <point x="116" y="-7"/>
    </contour>
    <contour>
      <point x="291" y="129" type="curve" smooth="yes"/>
      <point x="234" y="129"/>
      <point x="213" y="183"/>
      <point x="213" y="268" type="curve" smooth="yes"/>
      <point x="213" y="353"/>
      <point x="233" y="409"/>
      <point x="291" y="409" type="curve" smooth="yes"/>
      <point x="351" y="409"/>
      <point x="371" y="353"/>
      <point x="371" y="268" type="curve" smooth="yes"/>
      <point x="371" y="184"/>
      <point x="351" y="129"/>
    </contour>
  </outline>
</glyph>
<glyph name="uniAB75" format="2">
  <advance width="374"/>
  <unicode hex="AB75"/>
  <anchor x="187" y="0" name="bottom"/>
  <anchor x="187" y="535" name="top"/>
  <outline>
    <contour>
      <point x="25" y="0" type="line"/>
      <point x="349" y="0" type="line"/>
      <point x="349" y="96" type="line"/>
      <point x="269" y="105" type="line"/>
      <point x="269" y="351" type="line"/>
      <point x="104" y="351" type="line"/>
      <point x="104" y="105" type="line"/>
      <point x="25" y="96" type="line"/>
    </contour>
    <contour>
      <point x="188" y="397" type="curve" smooth="yes"/>
      <point x="242" y="397"/>
      <point x="275" y="425"/>
      <point x="275" y="471" type="curve" smooth="yes"/>
      <point x="275" y="516"/>
      <point x="243" y="543"/>
      <point x="188" y="543" type="curve" smooth="yes"/>
      <point x="130" y="543"/>
      <point x="99" y="517"/>
      <point x="99" y="471" type="curve" smooth="yes"/>
      <point x="99" y="424"/>
      <point x="132" y="397"/>
    </contour>
  </outline>
</glyph>
<glyph name="uniAB76" format="2">
  <advance width="529"/>
  <unicode hex="AB76"/>
  <anchor x="265" y="0" name="bottom"/>
  <anchor x="265" y="535" name="top"/>
  <outline>
    <contour>
      <point x="245" y="-11" type="curve" smooth="yes"/>
      <point x="416" y="-11"/>
      <point x="478" y="68"/>
      <point x="478" y="145" type="curve" smooth="yes"/>
      <point x="478" y="179"/>
      <point x="457" y="209"/>
      <point x="438" y="221" type="curve"/>
      <point x="438" y="223" type="line"/>
      <point x="453" y="222"/>
      <point x="467" y="222"/>
      <point x="480" y="222" type="curve" smooth="yes"/>
      <point x="504" y="222" type="line"/>
      <point x="504" y="328" type="line"/>
      <point x="268" y="328" type="line"/>
      <point x="236" y="339"/>
      <point x="216" y="357"/>
      <point x="216" y="389" type="curve" smooth="yes"/>
      <point x="216" y="419"/>
      <point x="236" y="442"/>
      <point x="285" y="442" type="curve" smooth="yes"/>
      <point x="312" y="442"/>
      <point x="332" y="436"/>
      <point x="342" y="427" type="curve"/>
      <point x="342" y="424"/>
      <point x="342" y="420"/>
      <point x="342" y="411" type="curve" smooth="yes"/>
      <point x="342" y="371"/>
      <point x="361" y="348"/>
      <point x="406" y="348" type="curve" smooth="yes"/>
      <point x="452" y="348"/>
      <point x="479" y="377"/>
      <point x="479" y="425" type="curve" smooth="yes"/>
      <point x="479" y="496"/>
      <point x="413" y="546"/>
      <point x="284" y="546" type="curve" smooth="yes"/>
      <point x="135" y="546"/>
      <point x="59" y="491"/>
      <point x="59" y="401" type="curve" smooth="yes"/>
      <point x="59" y="368"/>
      <point x="76" y="342"/>
      <point x="93" y="330" type="curve"/>
      <point x="93" y="328" type="line"/>
      <point x="77" y="329"/>
      <point x="64" y="329"/>
      <point x="52" y="329" type="curve" smooth="yes"/>
      <point x="25" y="329" type="line"/>
      <point x="25" y="223" type="line"/>
      <point x="262" y="223" type="line"/>
      <point x="307" y="211"/>
      <point x="324" y="184"/>
      <point x="324" y="158" type="curve" smooth="yes"/>
      <point x="324" y="119"/>
      <point x="298" y="97"/>
      <point x="248" y="97" type="curve" smooth="yes"/>
      <point x="216" y="97"/>
      <point x="190" y="108"/>
      <point x="182" y="118" type="curve"/>
      <point x="182" y="121"/>
      <point x="181" y="125"/>
      <point x="181" y="134" type="curve" smooth="yes"/>
      <point x="181" y="173"/>
      <point x="162" y="197"/>
      <point x="117" y="197" type="curve" smooth="yes"/>
      <point x="71" y="197"/>
      <point x="45" y="168"/>
      <point x="45" y="119" type="curve" smooth="yes"/>
      <point x="45" y="49"/>
      <point x="104" y="-11"/>
    </contour>
  </outline>
</glyph>
